%TF.GenerationSoftware,KiCad,Pcbnew,9.0.0*%
%TF.CreationDate,2025-04-08T13:38:05+08:00*%
%TF.ProjectId,project,70726f6a-6563-4742-9e6b-696361645f70,rev?*%
%TF.SameCoordinates,Original*%
%TF.FileFunction,Profile,NP*%
%FSLAX46Y46*%
G04 Gerber Fmt 4.6, Leading zero omitted, Abs format (unit mm)*
G04 Created by KiCad (PCBNEW 9.0.0) date 2025-04-08 13:38:05*
%MOMM*%
%LPD*%
G01*
G04 APERTURE LIST*
%TA.AperFunction,Profile*%
%ADD10C,0.050000*%
%TD*%
G04 APERTURE END LIST*
D10*
X148970000Y-29438254D02*
X150010000Y-31418254D01*
X150410000Y-32458254D01*
X150770000Y-33418254D01*
X151080000Y-34428254D01*
X151330000Y-35448254D01*
X151740000Y-37418254D01*
X152030000Y-39408254D01*
X152180000Y-41458254D01*
X152220000Y-42428254D01*
X152160000Y-44438254D01*
X152030000Y-45408254D01*
X151700000Y-47428254D01*
X150920000Y-50308254D01*
X150510000Y-51388254D01*
X149460000Y-53468254D01*
X148080000Y-55438254D01*
X146180000Y-57478254D01*
X148980000Y-56938254D01*
X150030000Y-57018254D01*
X151160000Y-57258254D01*
X150620000Y-58428254D01*
X149140000Y-60338254D01*
X147840000Y-61588254D01*
X146380000Y-62968254D01*
X147770000Y-64508254D01*
X149190000Y-66448254D01*
X149710000Y-67418254D01*
X150150000Y-68398254D01*
X146030000Y-69238254D01*
X144480000Y-69278254D01*
X143270000Y-69138254D01*
X142400000Y-68808254D01*
X138970000Y-70608254D01*
X137250000Y-71198254D01*
X135840000Y-71458254D01*
X137060000Y-73948254D01*
X138380000Y-76988254D01*
X139520000Y-80418254D01*
X140630000Y-84518254D01*
X141300000Y-87718254D01*
X141690000Y-90438254D01*
X141910000Y-91848254D01*
X142060000Y-93618254D01*
X142160000Y-95238254D01*
X142180000Y-96998254D01*
X142333334Y-105048254D01*
X113870149Y-105048254D01*
X115590000Y-93358254D01*
X116570000Y-87438254D01*
X117440000Y-84468254D01*
X118060000Y-82458254D01*
X118930000Y-80468254D01*
X119250000Y-79948254D01*
X118010000Y-80258254D01*
X117010000Y-80298254D01*
X115640000Y-80158254D01*
X115900000Y-79438254D01*
X116400000Y-78488254D01*
X117310000Y-77448254D01*
X117970000Y-76958254D01*
X118750000Y-76438254D01*
X118020000Y-75998254D01*
X116980000Y-75418254D01*
X115920000Y-74458254D01*
X115150000Y-73448254D01*
X114700000Y-72458254D01*
X114500000Y-71728254D01*
X113010000Y-71108254D01*
X111040000Y-70168254D01*
X109590000Y-69228254D01*
X108010000Y-69768254D01*
X107010000Y-69968254D01*
X105970000Y-70058254D01*
X105000000Y-70018254D01*
X104010000Y-69818254D01*
X103210000Y-69398254D01*
X103770000Y-68458254D01*
X104330000Y-67468254D01*
X104830000Y-66468254D01*
X105690000Y-64488254D01*
X106050000Y-63228254D01*
X104490000Y-62588254D01*
X103380000Y-61788254D01*
X102330000Y-60698254D01*
X101360000Y-58908254D01*
X101020000Y-57508254D01*
X103460000Y-58098254D01*
X105560000Y-58408254D01*
X107060000Y-58478254D01*
X107890000Y-58408254D01*
X106090000Y-55858254D01*
X104680000Y-53278254D01*
X103660000Y-50458254D01*
X102970000Y-47698254D01*
X102750000Y-45558254D01*
X102700000Y-43668254D01*
X102860000Y-41398254D01*
X103210000Y-39018254D01*
X104020000Y-36108254D01*
X104840000Y-34008254D01*
X105670000Y-32368254D01*
X106350000Y-31228254D01*
X107170000Y-30048254D01*
X108410000Y-28708254D01*
X110410000Y-30598254D01*
X115640000Y-36378254D01*
X120580000Y-42158254D01*
X120960000Y-42698254D01*
X121640000Y-42378254D01*
X122770000Y-41998254D01*
X123460000Y-41898254D01*
X122680000Y-40438254D01*
X121650000Y-38498254D01*
X121200000Y-37468254D01*
X121020000Y-36498254D01*
X120980000Y-35698254D01*
X121010000Y-35048254D01*
X121970000Y-35118254D01*
X124020000Y-35408254D01*
X126020000Y-35888254D01*
X126970000Y-36268254D01*
X129020000Y-37188254D01*
X131000000Y-38378254D01*
X132970000Y-39868254D01*
X134000000Y-40758254D01*
X135020000Y-41828254D01*
X136050000Y-40588254D01*
X138080000Y-38138254D01*
X140050000Y-35968254D01*
X142010000Y-33998254D01*
X143010000Y-33058254D01*
X144020000Y-32168254D01*
X145000000Y-31248254D01*
X147010000Y-29598254D01*
X148380000Y-28558254D01*
X148970000Y-29438254D01*
M02*
