%TF.GenerationSoftware,KiCad,Pcbnew,9.0.0*%
%TF.CreationDate,2025-04-08T13:38:04+08:00*%
%TF.ProjectId,project,70726f6a-6563-4742-9e6b-696361645f70,rev?*%
%TF.SameCoordinates,Original*%
%TF.FileFunction,Legend,Top*%
%TF.FilePolarity,Positive*%
%FSLAX46Y46*%
G04 Gerber Fmt 4.6, Leading zero omitted, Abs format (unit mm)*
G04 Created by KiCad (PCBNEW 9.0.0) date 2025-04-08 13:38:04*
%MOMM*%
%LPD*%
G01*
G04 APERTURE LIST*
%ADD10C,0.150000*%
%ADD11C,0.120000*%
%ADD12C,0.000000*%
G04 APERTURE END LIST*
D10*
X132266905Y-61414819D02*
X132266905Y-60414819D01*
X132266905Y-60414819D02*
X132505000Y-60414819D01*
X132505000Y-60414819D02*
X132647857Y-60462438D01*
X132647857Y-60462438D02*
X132743095Y-60557676D01*
X132743095Y-60557676D02*
X132790714Y-60652914D01*
X132790714Y-60652914D02*
X132838333Y-60843390D01*
X132838333Y-60843390D02*
X132838333Y-60986247D01*
X132838333Y-60986247D02*
X132790714Y-61176723D01*
X132790714Y-61176723D02*
X132743095Y-61271961D01*
X132743095Y-61271961D02*
X132647857Y-61367200D01*
X132647857Y-61367200D02*
X132505000Y-61414819D01*
X132505000Y-61414819D02*
X132266905Y-61414819D01*
X133219286Y-60510057D02*
X133266905Y-60462438D01*
X133266905Y-60462438D02*
X133362143Y-60414819D01*
X133362143Y-60414819D02*
X133600238Y-60414819D01*
X133600238Y-60414819D02*
X133695476Y-60462438D01*
X133695476Y-60462438D02*
X133743095Y-60510057D01*
X133743095Y-60510057D02*
X133790714Y-60605295D01*
X133790714Y-60605295D02*
X133790714Y-60700533D01*
X133790714Y-60700533D02*
X133743095Y-60843390D01*
X133743095Y-60843390D02*
X133171667Y-61414819D01*
X133171667Y-61414819D02*
X133790714Y-61414819D01*
X124666667Y-67157200D02*
X124809524Y-67204819D01*
X124809524Y-67204819D02*
X125047619Y-67204819D01*
X125047619Y-67204819D02*
X125142857Y-67157200D01*
X125142857Y-67157200D02*
X125190476Y-67109580D01*
X125190476Y-67109580D02*
X125238095Y-67014342D01*
X125238095Y-67014342D02*
X125238095Y-66919104D01*
X125238095Y-66919104D02*
X125190476Y-66823866D01*
X125190476Y-66823866D02*
X125142857Y-66776247D01*
X125142857Y-66776247D02*
X125047619Y-66728628D01*
X125047619Y-66728628D02*
X124857143Y-66681009D01*
X124857143Y-66681009D02*
X124761905Y-66633390D01*
X124761905Y-66633390D02*
X124714286Y-66585771D01*
X124714286Y-66585771D02*
X124666667Y-66490533D01*
X124666667Y-66490533D02*
X124666667Y-66395295D01*
X124666667Y-66395295D02*
X124714286Y-66300057D01*
X124714286Y-66300057D02*
X124761905Y-66252438D01*
X124761905Y-66252438D02*
X124857143Y-66204819D01*
X124857143Y-66204819D02*
X125095238Y-66204819D01*
X125095238Y-66204819D02*
X125238095Y-66252438D01*
X125571429Y-66204819D02*
X125809524Y-67204819D01*
X125809524Y-67204819D02*
X126000000Y-66490533D01*
X126000000Y-66490533D02*
X126190476Y-67204819D01*
X126190476Y-67204819D02*
X126428572Y-66204819D01*
X126761905Y-66300057D02*
X126809524Y-66252438D01*
X126809524Y-66252438D02*
X126904762Y-66204819D01*
X126904762Y-66204819D02*
X127142857Y-66204819D01*
X127142857Y-66204819D02*
X127238095Y-66252438D01*
X127238095Y-66252438D02*
X127285714Y-66300057D01*
X127285714Y-66300057D02*
X127333333Y-66395295D01*
X127333333Y-66395295D02*
X127333333Y-66490533D01*
X127333333Y-66490533D02*
X127285714Y-66633390D01*
X127285714Y-66633390D02*
X126714286Y-67204819D01*
X126714286Y-67204819D02*
X127333333Y-67204819D01*
X137666667Y-60657200D02*
X137809524Y-60704819D01*
X137809524Y-60704819D02*
X138047619Y-60704819D01*
X138047619Y-60704819D02*
X138142857Y-60657200D01*
X138142857Y-60657200D02*
X138190476Y-60609580D01*
X138190476Y-60609580D02*
X138238095Y-60514342D01*
X138238095Y-60514342D02*
X138238095Y-60419104D01*
X138238095Y-60419104D02*
X138190476Y-60323866D01*
X138190476Y-60323866D02*
X138142857Y-60276247D01*
X138142857Y-60276247D02*
X138047619Y-60228628D01*
X138047619Y-60228628D02*
X137857143Y-60181009D01*
X137857143Y-60181009D02*
X137761905Y-60133390D01*
X137761905Y-60133390D02*
X137714286Y-60085771D01*
X137714286Y-60085771D02*
X137666667Y-59990533D01*
X137666667Y-59990533D02*
X137666667Y-59895295D01*
X137666667Y-59895295D02*
X137714286Y-59800057D01*
X137714286Y-59800057D02*
X137761905Y-59752438D01*
X137761905Y-59752438D02*
X137857143Y-59704819D01*
X137857143Y-59704819D02*
X138095238Y-59704819D01*
X138095238Y-59704819D02*
X138238095Y-59752438D01*
X138571429Y-59704819D02*
X138809524Y-60704819D01*
X138809524Y-60704819D02*
X139000000Y-59990533D01*
X139000000Y-59990533D02*
X139190476Y-60704819D01*
X139190476Y-60704819D02*
X139428572Y-59704819D01*
X139714286Y-59704819D02*
X140333333Y-59704819D01*
X140333333Y-59704819D02*
X140000000Y-60085771D01*
X140000000Y-60085771D02*
X140142857Y-60085771D01*
X140142857Y-60085771D02*
X140238095Y-60133390D01*
X140238095Y-60133390D02*
X140285714Y-60181009D01*
X140285714Y-60181009D02*
X140333333Y-60276247D01*
X140333333Y-60276247D02*
X140333333Y-60514342D01*
X140333333Y-60514342D02*
X140285714Y-60609580D01*
X140285714Y-60609580D02*
X140238095Y-60657200D01*
X140238095Y-60657200D02*
X140142857Y-60704819D01*
X140142857Y-60704819D02*
X139857143Y-60704819D01*
X139857143Y-60704819D02*
X139761905Y-60657200D01*
X139761905Y-60657200D02*
X139714286Y-60609580D01*
X110666667Y-60657200D02*
X110809524Y-60704819D01*
X110809524Y-60704819D02*
X111047619Y-60704819D01*
X111047619Y-60704819D02*
X111142857Y-60657200D01*
X111142857Y-60657200D02*
X111190476Y-60609580D01*
X111190476Y-60609580D02*
X111238095Y-60514342D01*
X111238095Y-60514342D02*
X111238095Y-60419104D01*
X111238095Y-60419104D02*
X111190476Y-60323866D01*
X111190476Y-60323866D02*
X111142857Y-60276247D01*
X111142857Y-60276247D02*
X111047619Y-60228628D01*
X111047619Y-60228628D02*
X110857143Y-60181009D01*
X110857143Y-60181009D02*
X110761905Y-60133390D01*
X110761905Y-60133390D02*
X110714286Y-60085771D01*
X110714286Y-60085771D02*
X110666667Y-59990533D01*
X110666667Y-59990533D02*
X110666667Y-59895295D01*
X110666667Y-59895295D02*
X110714286Y-59800057D01*
X110714286Y-59800057D02*
X110761905Y-59752438D01*
X110761905Y-59752438D02*
X110857143Y-59704819D01*
X110857143Y-59704819D02*
X111095238Y-59704819D01*
X111095238Y-59704819D02*
X111238095Y-59752438D01*
X111571429Y-59704819D02*
X111809524Y-60704819D01*
X111809524Y-60704819D02*
X112000000Y-59990533D01*
X112000000Y-59990533D02*
X112190476Y-60704819D01*
X112190476Y-60704819D02*
X112428572Y-59704819D01*
X113333333Y-60704819D02*
X112761905Y-60704819D01*
X113047619Y-60704819D02*
X113047619Y-59704819D01*
X113047619Y-59704819D02*
X112952381Y-59847676D01*
X112952381Y-59847676D02*
X112857143Y-59942914D01*
X112857143Y-59942914D02*
X112761905Y-59990533D01*
X119256905Y-53494819D02*
X119256905Y-52494819D01*
X119256905Y-52494819D02*
X119495000Y-52494819D01*
X119495000Y-52494819D02*
X119637857Y-52542438D01*
X119637857Y-52542438D02*
X119733095Y-52637676D01*
X119733095Y-52637676D02*
X119780714Y-52732914D01*
X119780714Y-52732914D02*
X119828333Y-52923390D01*
X119828333Y-52923390D02*
X119828333Y-53066247D01*
X119828333Y-53066247D02*
X119780714Y-53256723D01*
X119780714Y-53256723D02*
X119733095Y-53351961D01*
X119733095Y-53351961D02*
X119637857Y-53447200D01*
X119637857Y-53447200D02*
X119495000Y-53494819D01*
X119495000Y-53494819D02*
X119256905Y-53494819D01*
X120780714Y-53494819D02*
X120209286Y-53494819D01*
X120495000Y-53494819D02*
X120495000Y-52494819D01*
X120495000Y-52494819D02*
X120399762Y-52637676D01*
X120399762Y-52637676D02*
X120304524Y-52732914D01*
X120304524Y-52732914D02*
X120209286Y-52780533D01*
X122994819Y-41743094D02*
X121994819Y-41743094D01*
X121994819Y-41743094D02*
X121994819Y-41504999D01*
X121994819Y-41504999D02*
X122042438Y-41362142D01*
X122042438Y-41362142D02*
X122137676Y-41266904D01*
X122137676Y-41266904D02*
X122232914Y-41219285D01*
X122232914Y-41219285D02*
X122423390Y-41171666D01*
X122423390Y-41171666D02*
X122566247Y-41171666D01*
X122566247Y-41171666D02*
X122756723Y-41219285D01*
X122756723Y-41219285D02*
X122851961Y-41266904D01*
X122851961Y-41266904D02*
X122947200Y-41362142D01*
X122947200Y-41362142D02*
X122994819Y-41504999D01*
X122994819Y-41504999D02*
X122994819Y-41743094D01*
X121994819Y-40838332D02*
X121994819Y-40219285D01*
X121994819Y-40219285D02*
X122375771Y-40552618D01*
X122375771Y-40552618D02*
X122375771Y-40409761D01*
X122375771Y-40409761D02*
X122423390Y-40314523D01*
X122423390Y-40314523D02*
X122471009Y-40266904D01*
X122471009Y-40266904D02*
X122566247Y-40219285D01*
X122566247Y-40219285D02*
X122804342Y-40219285D01*
X122804342Y-40219285D02*
X122899580Y-40266904D01*
X122899580Y-40266904D02*
X122947200Y-40314523D01*
X122947200Y-40314523D02*
X122994819Y-40409761D01*
X122994819Y-40409761D02*
X122994819Y-40695475D01*
X122994819Y-40695475D02*
X122947200Y-40790713D01*
X122947200Y-40790713D02*
X122899580Y-40838332D01*
D11*
%TO.C,D2*%
X135565000Y-58545000D02*
X135565000Y-55455000D01*
X130015000Y-56999952D02*
G75*
G02*
X135565000Y-55455170I2990000J-48D01*
G01*
X135565000Y-58544830D02*
G75*
G02*
X130015000Y-57000048I-2560000J1544830D01*
G01*
X135504999Y-57000000D02*
G75*
G02*
X130504999Y-57000000I-2500000J0D01*
G01*
X130504999Y-57000000D02*
G75*
G02*
X135504999Y-57000000I2500000J0D01*
G01*
D12*
%TO.C,G\u002A\u002A\u002A*%
G36*
X125217543Y-61704285D02*
G01*
X125545245Y-61706964D01*
X125814751Y-61714667D01*
X126031421Y-61728825D01*
X126200615Y-61750871D01*
X126327696Y-61782238D01*
X126418024Y-61824358D01*
X126476959Y-61878663D01*
X126509864Y-61946587D01*
X126522098Y-62029562D01*
X126522556Y-62053007D01*
X126518457Y-62133741D01*
X126501339Y-62197901D01*
X126463966Y-62248886D01*
X126399105Y-62290094D01*
X126299521Y-62324927D01*
X126157980Y-62356781D01*
X125967247Y-62389057D01*
X125735008Y-62423050D01*
X125542411Y-62450009D01*
X125372056Y-62473386D01*
X125233709Y-62491878D01*
X125137131Y-62504185D01*
X125092087Y-62509005D01*
X125090225Y-62508980D01*
X125053384Y-62504639D01*
X124968871Y-62495568D01*
X124852352Y-62483437D01*
X124803759Y-62478456D01*
X124651304Y-62460681D01*
X124497988Y-62439191D01*
X124373808Y-62418243D01*
X124360164Y-62415536D01*
X124196768Y-62359424D01*
X124082543Y-62274256D01*
X124018602Y-62169977D01*
X124006059Y-62056533D01*
X124046028Y-61943870D01*
X124139623Y-61841932D01*
X124286870Y-61761085D01*
X124341785Y-61742534D01*
X124404030Y-61728367D01*
X124482556Y-61718038D01*
X124586316Y-61711002D01*
X124724262Y-61706711D01*
X124905348Y-61704619D01*
X125138525Y-61704180D01*
X125217543Y-61704285D01*
G37*
G36*
X113051324Y-62786557D02*
G01*
X113157439Y-62844204D01*
X113242386Y-62950132D01*
X113265552Y-62998714D01*
X113305989Y-63145291D01*
X113330303Y-63337005D01*
X113337898Y-63557260D01*
X113328178Y-63789456D01*
X113301825Y-64009288D01*
X113281564Y-64139415D01*
X113267410Y-64243364D01*
X113261176Y-64307006D01*
X113261937Y-64319915D01*
X113292449Y-64310462D01*
X113369874Y-64278034D01*
X113483746Y-64227232D01*
X113623603Y-64162660D01*
X113682265Y-64135052D01*
X113973158Y-64001205D01*
X114260263Y-63876154D01*
X114535946Y-63762736D01*
X114792577Y-63663788D01*
X115022522Y-63582148D01*
X115218151Y-63520653D01*
X115371831Y-63482140D01*
X115472765Y-63469423D01*
X115577695Y-63498260D01*
X115666463Y-63572816D01*
X115722023Y-63675155D01*
X115732330Y-63742540D01*
X115722478Y-63823491D01*
X115687816Y-63891656D01*
X115620687Y-63952449D01*
X115513432Y-64011281D01*
X115358393Y-64073567D01*
X115176297Y-64135550D01*
X115039716Y-64181539D01*
X114898250Y-64232897D01*
X114744875Y-64292618D01*
X114572570Y-64363697D01*
X114374313Y-64449129D01*
X114143080Y-64551909D01*
X113871851Y-64675032D01*
X113553602Y-64821493D01*
X113387738Y-64898336D01*
X113199762Y-64983521D01*
X113058138Y-65041647D01*
X112952823Y-65075196D01*
X112873778Y-65086646D01*
X112810961Y-65078478D01*
X112756265Y-65054287D01*
X112698283Y-65016509D01*
X112656561Y-64973481D01*
X112630432Y-64916534D01*
X112619229Y-64837002D01*
X112622285Y-64726215D01*
X112638932Y-64575506D01*
X112668504Y-64376206D01*
X112692606Y-64227061D01*
X112730121Y-63983078D01*
X112755998Y-63780849D01*
X112769852Y-63625136D01*
X112771298Y-63520700D01*
X112759951Y-63472303D01*
X112753877Y-63469423D01*
X112715492Y-63481467D01*
X112630077Y-63514429D01*
X112508852Y-63563555D01*
X112363038Y-63624091D01*
X112203859Y-63691282D01*
X112042535Y-63760374D01*
X111890287Y-63826613D01*
X111758338Y-63885245D01*
X111657910Y-63931515D01*
X111622974Y-63948553D01*
X111509532Y-63998262D01*
X111403291Y-64032270D01*
X111339310Y-64042355D01*
X111225565Y-64013613D01*
X111138795Y-63936116D01*
X111090906Y-63822959D01*
X111085212Y-63762884D01*
X111096082Y-63674694D01*
X111134860Y-63600915D01*
X111210799Y-63531879D01*
X111333150Y-63457919D01*
X111419423Y-63413693D01*
X111512090Y-63370303D01*
X111645718Y-63310984D01*
X111809721Y-63240126D01*
X111993511Y-63162122D01*
X112186498Y-63081360D01*
X112378097Y-63002232D01*
X112557719Y-62929128D01*
X112714775Y-62866438D01*
X112838679Y-62818554D01*
X112918843Y-62789866D01*
X112935857Y-62784856D01*
X113051324Y-62786557D01*
G37*
G36*
X131417769Y-64937077D02*
G01*
X131503878Y-65003623D01*
X131558657Y-65096347D01*
X131570794Y-65206981D01*
X131538925Y-65309329D01*
X131465323Y-65400352D01*
X131336982Y-65501877D01*
X131161285Y-65610515D01*
X130945620Y-65722876D01*
X130697370Y-65835571D01*
X130423921Y-65945208D01*
X130132657Y-66048400D01*
X129830965Y-66141756D01*
X129578195Y-66209278D01*
X129242675Y-66266597D01*
X128868715Y-66285064D01*
X128467190Y-66266087D01*
X128048971Y-66211073D01*
X127624932Y-66121429D01*
X127205947Y-65998561D01*
X126823595Y-65852817D01*
X126529400Y-65726627D01*
X126083507Y-66028372D01*
X125756214Y-66241272D01*
X125457587Y-66415441D01*
X125172211Y-66558081D01*
X124884672Y-66676389D01*
X124579556Y-66777564D01*
X124333739Y-66845547D01*
X124172423Y-66886594D01*
X124053991Y-66913250D01*
X123959678Y-66926991D01*
X123870718Y-66929294D01*
X123768346Y-66921636D01*
X123633797Y-66905494D01*
X123610150Y-66902492D01*
X123259526Y-66837138D01*
X122925561Y-66734590D01*
X122618670Y-66599660D01*
X122349268Y-66437158D01*
X122127770Y-66251895D01*
X122071463Y-66191738D01*
X121988725Y-66062844D01*
X121966407Y-65937492D01*
X122004493Y-65821730D01*
X122072612Y-65744908D01*
X122172919Y-65684001D01*
X122275131Y-65674210D01*
X122387332Y-65717323D01*
X122517611Y-65815126D01*
X122557987Y-65852136D01*
X122770294Y-66020590D01*
X123015671Y-66152855D01*
X123302085Y-66252277D01*
X123637503Y-66322203D01*
X123698187Y-66331149D01*
X123804448Y-66343283D01*
X123895751Y-66344587D01*
X123992108Y-66332915D01*
X124113531Y-66306122D01*
X124239290Y-66273136D01*
X124502279Y-66196471D01*
X124740345Y-66113623D01*
X124966021Y-66018378D01*
X125191844Y-65904524D01*
X125430348Y-65765848D01*
X125694069Y-65596135D01*
X125929250Y-65435498D01*
X126077132Y-65334523D01*
X126213317Y-65245094D01*
X126326359Y-65174465D01*
X126404811Y-65129893D01*
X126427656Y-65119586D01*
X126471805Y-65110219D01*
X126525797Y-65114206D01*
X126600613Y-65134825D01*
X126707233Y-65175355D01*
X126856640Y-65239074D01*
X126917175Y-65265735D01*
X127275401Y-65412944D01*
X127613951Y-65526174D01*
X127953031Y-65610403D01*
X128312846Y-65670607D01*
X128713602Y-65711762D01*
X128734711Y-65713381D01*
X128903322Y-65721337D01*
X129053666Y-65715373D01*
X129215347Y-65693322D01*
X129343053Y-65668817D01*
X129582700Y-65611523D01*
X129840014Y-65536123D01*
X130103306Y-65447260D01*
X130360886Y-65349576D01*
X130601064Y-65247713D01*
X130812151Y-65146314D01*
X130982457Y-65050022D01*
X131084584Y-64977202D01*
X131196810Y-64915598D01*
X131311643Y-64904979D01*
X131417769Y-64937077D01*
G37*
G36*
X138273614Y-62553241D02*
G01*
X138311329Y-62582733D01*
X138354770Y-62627387D01*
X138389034Y-62683165D01*
X138415617Y-62758366D01*
X138436015Y-62861290D01*
X138451724Y-63000235D01*
X138464240Y-63183500D01*
X138475060Y-63419386D01*
X138478513Y-63510197D01*
X138486636Y-63696597D01*
X138496132Y-63858320D01*
X138506231Y-63985736D01*
X138516164Y-64069210D01*
X138525163Y-64099112D01*
X138525531Y-64099045D01*
X138565032Y-64072896D01*
X138644075Y-64011184D01*
X138754697Y-63920722D01*
X138888937Y-63808327D01*
X139038835Y-63680814D01*
X139196427Y-63544998D01*
X139353755Y-63407695D01*
X139502855Y-63275720D01*
X139635767Y-63155888D01*
X139739155Y-63060102D01*
X139893405Y-62917870D01*
X140013034Y-62818745D01*
X140106899Y-62759329D01*
X140183855Y-62736228D01*
X140252757Y-62746046D01*
X140322462Y-62785387D01*
X140365978Y-62819746D01*
X140437018Y-62897290D01*
X140462780Y-62983625D01*
X140463909Y-63014116D01*
X140457865Y-63072176D01*
X140434363Y-63129629D01*
X140385350Y-63198708D01*
X140302770Y-63291643D01*
X140233145Y-63364581D01*
X140101009Y-63497015D01*
X139950392Y-63639687D01*
X139775571Y-63797609D01*
X139570821Y-63975792D01*
X139330419Y-64179247D01*
X139048640Y-64412987D01*
X138846364Y-64578812D01*
X138664106Y-64726871D01*
X138523237Y-64838805D01*
X138416469Y-64919511D01*
X138336513Y-64973890D01*
X138276081Y-65006840D01*
X138227885Y-65023258D01*
X138184636Y-65028044D01*
X138177943Y-65028060D01*
X138085665Y-65017177D01*
X138015548Y-64991928D01*
X138010274Y-64988273D01*
X137972520Y-64955151D01*
X137943726Y-64915681D01*
X137922981Y-64861727D01*
X137909371Y-64785153D01*
X137901983Y-64677821D01*
X137899904Y-64531596D01*
X137902222Y-64338341D01*
X137908023Y-64089919D01*
X137908296Y-64079404D01*
X137913979Y-63830164D01*
X137916319Y-63638916D01*
X137915175Y-63500074D01*
X137910408Y-63408050D01*
X137901878Y-63357260D01*
X137889834Y-63342105D01*
X137856661Y-63363421D01*
X137785626Y-63422958D01*
X137684055Y-63514103D01*
X137559276Y-63630239D01*
X137418617Y-63764753D01*
X137378590Y-63803634D01*
X137207455Y-63968984D01*
X137073647Y-64093235D01*
X136969900Y-64180717D01*
X136888947Y-64235759D01*
X136823520Y-64262691D01*
X136766353Y-64265844D01*
X136710178Y-64249548D01*
X136666140Y-64228134D01*
X136568988Y-64151668D01*
X136523590Y-64046638D01*
X136517564Y-63978696D01*
X136520071Y-63940709D01*
X136532202Y-63901556D01*
X136559273Y-63854912D01*
X136606599Y-63794449D01*
X136679496Y-63713841D01*
X136783281Y-63606762D01*
X136923269Y-63466885D01*
X137065841Y-63326190D01*
X137297306Y-63101490D01*
X137491615Y-62920304D01*
X137653950Y-62778608D01*
X137789497Y-62672380D01*
X137903439Y-62597595D01*
X138000960Y-62550230D01*
X138087244Y-62526263D01*
X138098692Y-62524549D01*
X138197956Y-62521882D01*
X138273614Y-62553241D01*
G37*
G36*
X140636441Y-53326279D02*
G01*
X140705022Y-53435229D01*
X140716762Y-53558145D01*
X140671453Y-53679929D01*
X140641781Y-53719841D01*
X140565016Y-53809147D01*
X139814212Y-53818740D01*
X139603218Y-53822435D01*
X139415144Y-53827643D01*
X139258764Y-53833963D01*
X139142853Y-53840995D01*
X139076183Y-53848338D01*
X139063408Y-53853038D01*
X139075367Y-53890954D01*
X139107625Y-53973543D01*
X139154751Y-54087248D01*
X139192830Y-54176141D01*
X139416860Y-54748554D01*
X139614124Y-55367948D01*
X139781338Y-56022133D01*
X139915219Y-56698920D01*
X139972804Y-57071679D01*
X139991523Y-57244324D01*
X140007805Y-57469051D01*
X140021449Y-57734322D01*
X140032252Y-58028599D01*
X140040014Y-58340344D01*
X140044533Y-58658018D01*
X140045608Y-58970084D01*
X140043038Y-59265003D01*
X140036620Y-59531238D01*
X140026153Y-59757251D01*
X140020979Y-59831382D01*
X139995055Y-60137620D01*
X139967496Y-60419292D01*
X139939185Y-60669609D01*
X139911004Y-60881778D01*
X139883835Y-61049009D01*
X139858561Y-61164511D01*
X139841530Y-61212816D01*
X139766322Y-61296066D01*
X139660309Y-61337840D01*
X139542603Y-61336168D01*
X139432316Y-61289081D01*
X139396172Y-61258714D01*
X139365823Y-61227256D01*
X139343760Y-61196088D01*
X139329898Y-61156458D01*
X139324151Y-61099615D01*
X139326435Y-61016806D01*
X139336664Y-60899280D01*
X139354754Y-60738286D01*
X139380619Y-60525071D01*
X139388419Y-60461528D01*
X139412340Y-60222957D01*
X139431901Y-59939386D01*
X139447056Y-59621610D01*
X139457758Y-59280425D01*
X139463960Y-58926628D01*
X139465616Y-58571014D01*
X139462677Y-58224379D01*
X139455098Y-57897519D01*
X139442831Y-57601230D01*
X139425830Y-57346309D01*
X139404047Y-57143550D01*
X139402883Y-57135338D01*
X139266365Y-56354081D01*
X139087194Y-55612510D01*
X138866265Y-54913785D01*
X138604475Y-54261069D01*
X138559721Y-54162976D01*
X138412936Y-53846723D01*
X136951000Y-53867132D01*
X136652181Y-53871601D01*
X136373284Y-53876346D01*
X136120678Y-53881217D01*
X135900734Y-53886064D01*
X135719819Y-53890738D01*
X135584305Y-53895088D01*
X135500559Y-53898966D01*
X135474779Y-53901827D01*
X135473587Y-53936334D01*
X135478400Y-54024612D01*
X135488476Y-54157133D01*
X135503069Y-54324369D01*
X135521437Y-54516793D01*
X135527651Y-54578795D01*
X135596127Y-55393558D01*
X135630898Y-56155003D01*
X135631866Y-56863875D01*
X135598936Y-57520921D01*
X135532009Y-58126888D01*
X135430990Y-58682521D01*
X135295781Y-59188567D01*
X135126285Y-59645771D01*
X134922405Y-60054881D01*
X134788275Y-60270551D01*
X134662801Y-60435228D01*
X134503401Y-60612855D01*
X134327804Y-60785765D01*
X134153735Y-60936291D01*
X134027566Y-61028676D01*
X133732727Y-61191706D01*
X133401498Y-61322514D01*
X133095427Y-61404184D01*
X132919390Y-61438665D01*
X132788172Y-61456293D01*
X132684615Y-61454764D01*
X132591565Y-61431776D01*
X132491863Y-61385024D01*
X132368356Y-61312206D01*
X132356606Y-61304984D01*
X132137846Y-61152677D01*
X131908089Y-60962124D01*
X131686674Y-60751047D01*
X131492935Y-60537168D01*
X131424232Y-60450451D01*
X131221929Y-60144416D01*
X131037150Y-59790569D01*
X130876185Y-59403760D01*
X130745330Y-58998837D01*
X130663048Y-58654382D01*
X130595208Y-58262546D01*
X130546899Y-57863087D01*
X130518228Y-57449081D01*
X130509301Y-57013600D01*
X130520225Y-56549719D01*
X130551106Y-56050512D01*
X130602050Y-55509052D01*
X130673164Y-54918414D01*
X130726393Y-54531719D01*
X130752900Y-54335393D01*
X130768091Y-54190685D01*
X130772559Y-54086677D01*
X130766900Y-54012452D01*
X130756890Y-53971329D01*
X130741728Y-53839475D01*
X130784068Y-53725118D01*
X130859619Y-53652101D01*
X130933181Y-53624254D01*
X131070218Y-53595462D01*
X131270552Y-53565746D01*
X131534007Y-53535128D01*
X131860406Y-53503632D01*
X132249570Y-53471278D01*
X132379733Y-53461318D01*
X132711395Y-53437736D01*
X133055445Y-53416040D01*
X133416198Y-53396099D01*
X133797970Y-53377781D01*
X134205074Y-53360954D01*
X134641827Y-53345486D01*
X135112542Y-53331246D01*
X135621535Y-53318102D01*
X136173121Y-53305922D01*
X136771614Y-53294574D01*
X137421329Y-53283928D01*
X138126581Y-53273850D01*
X138798283Y-53265326D01*
X140554336Y-53244174D01*
X140636441Y-53326279D01*
G37*
G36*
X117770678Y-54086332D02*
G01*
X118941893Y-54110381D01*
X120159323Y-54157866D01*
X121420379Y-54228773D01*
X122030115Y-54270381D01*
X122289730Y-54289599D01*
X122493154Y-54306116D01*
X122647748Y-54320895D01*
X122760873Y-54334896D01*
X122839893Y-54349081D01*
X122892168Y-54364411D01*
X122925061Y-54381846D01*
X122932953Y-54388259D01*
X123015502Y-54497890D01*
X123036357Y-54623105D01*
X123018773Y-54708040D01*
X122955364Y-54807041D01*
X122852199Y-54873819D01*
X122729396Y-54897776D01*
X122670910Y-54891294D01*
X122601455Y-54885473D01*
X122565149Y-54898571D01*
X122562310Y-54939896D01*
X122568328Y-55028821D01*
X122581935Y-55150093D01*
X122592432Y-55226687D01*
X122635264Y-55584035D01*
X122667753Y-55988484D01*
X122689461Y-56424251D01*
X122699948Y-56875553D01*
X122698776Y-57326608D01*
X122685505Y-57761633D01*
X122670306Y-58026566D01*
X122608120Y-58699575D01*
X122518909Y-59315778D01*
X122402398Y-59876133D01*
X122258314Y-60381601D01*
X122086384Y-60833140D01*
X121886334Y-61231708D01*
X121657891Y-61578264D01*
X121657397Y-61578918D01*
X121429480Y-61840492D01*
X121178544Y-62057083D01*
X120911274Y-62225396D01*
X120634353Y-62342136D01*
X120354466Y-62404010D01*
X120078295Y-62407723D01*
X119997493Y-62397057D01*
X119683101Y-62313025D01*
X119392951Y-62170537D01*
X119127199Y-61970065D01*
X118885999Y-61712080D01*
X118669504Y-61397053D01*
X118477870Y-61025455D01*
X118311251Y-60597756D01*
X118169801Y-60114427D01*
X118053676Y-59575940D01*
X117963028Y-58982765D01*
X117898014Y-58335373D01*
X117858787Y-57634234D01*
X117845501Y-56879821D01*
X117858312Y-56072603D01*
X117864413Y-55894251D01*
X117874734Y-55637024D01*
X117885726Y-55397775D01*
X117896911Y-55184547D01*
X117907813Y-55005386D01*
X117917955Y-54868336D01*
X117926859Y-54781442D01*
X117931927Y-54755208D01*
X117942656Y-54693794D01*
X117908408Y-54662513D01*
X117907862Y-54662302D01*
X117865416Y-54658471D01*
X117767250Y-54656068D01*
X117621286Y-54654979D01*
X117435444Y-54655088D01*
X117217645Y-54656279D01*
X116975809Y-54658437D01*
X116717859Y-54661446D01*
X116451714Y-54665191D01*
X116185295Y-54669556D01*
X115926523Y-54674426D01*
X115683320Y-54679684D01*
X115463605Y-54685217D01*
X115275301Y-54690908D01*
X115126326Y-54696641D01*
X115024604Y-54702301D01*
X114996684Y-54704758D01*
X114818056Y-54724290D01*
X114606927Y-55307841D01*
X114368732Y-56007516D01*
X114168142Y-56684643D01*
X114006872Y-57332603D01*
X113886636Y-57944777D01*
X113836330Y-58281202D01*
X113812225Y-58528425D01*
X113798219Y-58811987D01*
X113793946Y-59116556D01*
X113799042Y-59426797D01*
X113813145Y-59727375D01*
X113835890Y-60002956D01*
X113866913Y-60238207D01*
X113885047Y-60334210D01*
X113987658Y-60737795D01*
X114119309Y-61116864D01*
X114289748Y-61498302D01*
X114350705Y-61618767D01*
X114442129Y-61803298D01*
X114508466Y-61954770D01*
X114546526Y-62065430D01*
X114554636Y-62114535D01*
X114526525Y-62225821D01*
X114453018Y-62311903D01*
X114350356Y-62363503D01*
X114234776Y-62371342D01*
X114152237Y-62344449D01*
X114080320Y-62281948D01*
X113994661Y-62167607D01*
X113899644Y-62010613D01*
X113799649Y-61820150D01*
X113699059Y-61605404D01*
X113602255Y-61375561D01*
X113513620Y-61139806D01*
X113437535Y-60907324D01*
X113396170Y-60759551D01*
X113294434Y-60264043D01*
X113233406Y-59729912D01*
X113213138Y-59167526D01*
X113233684Y-58587248D01*
X113295097Y-57999443D01*
X113379521Y-57501378D01*
X113443539Y-57210167D01*
X113526574Y-56875462D01*
X113624048Y-56512894D01*
X113731383Y-56138095D01*
X113844003Y-55766694D01*
X113957328Y-55414324D01*
X114066782Y-55096616D01*
X114145865Y-54884610D01*
X114168622Y-54812167D01*
X114171888Y-54769345D01*
X114170499Y-54767157D01*
X114135193Y-54764706D01*
X114047741Y-54767909D01*
X113919344Y-54776099D01*
X113761200Y-54788612D01*
X113662663Y-54797365D01*
X113438156Y-54817690D01*
X113267837Y-54831499D01*
X113142539Y-54838493D01*
X113053096Y-54838372D01*
X112990339Y-54830840D01*
X112945103Y-54815596D01*
X112908221Y-54792343D01*
X112883453Y-54771992D01*
X112816587Y-54677411D01*
X112796427Y-54563491D01*
X112819839Y-54449444D01*
X112883690Y-54354480D01*
X112959455Y-54306052D01*
X113017855Y-54292664D01*
X113127461Y-54275932D01*
X113276011Y-54257412D01*
X113451240Y-54238663D01*
X113599749Y-54224775D01*
X114560213Y-54154940D01*
X115577249Y-54108598D01*
X116648267Y-54085733D01*
X117770678Y-54086332D01*
G37*
D11*
%TO.C,SW2*%
X122500000Y-70250000D02*
X122500000Y-71750000D01*
X123750000Y-74250000D02*
X128250000Y-74250000D01*
X128250000Y-67750000D02*
X123750000Y-67750000D01*
X129500000Y-71750000D02*
X129500000Y-70250000D01*
%TO.C,SW3*%
X135500000Y-63750000D02*
X135500000Y-65250000D01*
X136750000Y-67750000D02*
X141250000Y-67750000D01*
X141250000Y-61250000D02*
X136750000Y-61250000D01*
X142500000Y-65250000D02*
X142500000Y-63750000D01*
%TO.C,SW1*%
X108500000Y-63750000D02*
X108500000Y-65250000D01*
X109750000Y-67750000D02*
X114250000Y-67750000D01*
X114250000Y-61250000D02*
X109750000Y-61250000D01*
X115500000Y-65250000D02*
X115500000Y-63750000D01*
%TO.C,D1*%
X117435000Y-55455000D02*
X117435000Y-58545000D01*
X117435000Y-55455170D02*
G75*
G02*
X122985000Y-56999952I2560000J-1544830D01*
G01*
X122985000Y-57000048D02*
G75*
G02*
X117435000Y-58544830I-2990000J48D01*
G01*
X122495000Y-57000000D02*
G75*
G02*
X117495000Y-57000000I-2500000J0D01*
G01*
X117495000Y-57000000D02*
G75*
G02*
X122495000Y-57000000I2500000J0D01*
G01*
D12*
%TO.C,G\u002A\u002A\u002A*%
G36*
X127352666Y-92676675D02*
G01*
X127449127Y-92679869D01*
X127540180Y-92684996D01*
X127621472Y-92691977D01*
X127688652Y-92700731D01*
X127737369Y-92711178D01*
X127755866Y-92718195D01*
X127790697Y-92747584D01*
X127814949Y-92788993D01*
X127821753Y-92822433D01*
X127811489Y-92861384D01*
X127785926Y-92899615D01*
X127752905Y-92925785D01*
X127749146Y-92927443D01*
X127725051Y-92933788D01*
X127680822Y-92942407D01*
X127621606Y-92952554D01*
X127552552Y-92963479D01*
X127478808Y-92974432D01*
X127405522Y-92984666D01*
X127337843Y-92993432D01*
X127280919Y-92999980D01*
X127239899Y-93003562D01*
X127223450Y-93003906D01*
X127185994Y-93000881D01*
X127153332Y-92997457D01*
X127051053Y-92984365D01*
X126972720Y-92972198D01*
X126916847Y-92960686D01*
X126881943Y-92949559D01*
X126877611Y-92947493D01*
X126832585Y-92912649D01*
X126808517Y-92868867D01*
X126804894Y-92820899D01*
X126821204Y-92773499D01*
X126856934Y-92731420D01*
X126904016Y-92702572D01*
X126941542Y-92692492D01*
X126999770Y-92684824D01*
X127074348Y-92679488D01*
X127160925Y-92676405D01*
X127255148Y-92675494D01*
X127352666Y-92676675D01*
G37*
G36*
X129778755Y-93979475D02*
G01*
X129800421Y-93999873D01*
X129827132Y-94041746D01*
X129834242Y-94082177D01*
X129820813Y-94122439D01*
X129785905Y-94163809D01*
X129728582Y-94207561D01*
X129647903Y-94254971D01*
X129591235Y-94284056D01*
X129429572Y-94356450D01*
X129257432Y-94420140D01*
X129085437Y-94471439D01*
X128980350Y-94496063D01*
X128838070Y-94515045D01*
X128681404Y-94517293D01*
X128514629Y-94503396D01*
X128342023Y-94473941D01*
X128167866Y-94429515D01*
X127996435Y-94370707D01*
X127959492Y-94355889D01*
X127810765Y-94294591D01*
X127654642Y-94401554D01*
X127457106Y-94525686D01*
X127261380Y-94625812D01*
X127065068Y-94703039D01*
X126898696Y-94750847D01*
X126831722Y-94765136D01*
X126774235Y-94772104D01*
X126716875Y-94771933D01*
X126650287Y-94764804D01*
X126598492Y-94756671D01*
X126447765Y-94722360D01*
X126310245Y-94673019D01*
X126189168Y-94610070D01*
X126087773Y-94534937D01*
X126082300Y-94529994D01*
X126029174Y-94476546D01*
X125997027Y-94431086D01*
X125984185Y-94389977D01*
X125988971Y-94349583D01*
X125993487Y-94337315D01*
X126021768Y-94293447D01*
X126062791Y-94270766D01*
X126101638Y-94266265D01*
X126129306Y-94271827D01*
X126162430Y-94290442D01*
X126205846Y-94325003D01*
X126218650Y-94336274D01*
X126327972Y-94417259D01*
X126448489Y-94476368D01*
X126577453Y-94513028D01*
X126712117Y-94526669D01*
X126849730Y-94516721D01*
X126962355Y-94490711D01*
X127071497Y-94452699D01*
X127183214Y-94403808D01*
X127301349Y-94342049D01*
X127429745Y-94265434D01*
X127552051Y-94185643D01*
X127619131Y-94141098D01*
X127680023Y-94101893D01*
X127731266Y-94070156D01*
X127769397Y-94048020D01*
X127790953Y-94037614D01*
X127793487Y-94037092D01*
X127812437Y-94041969D01*
X127849668Y-94055330D01*
X127900212Y-94075270D01*
X127959104Y-94099885D01*
X127974067Y-94106337D01*
X128113184Y-94162719D01*
X128241448Y-94205644D01*
X128367737Y-94237748D01*
X128492581Y-94260419D01*
X128629895Y-94277110D01*
X128751488Y-94282241D01*
X128864442Y-94275586D01*
X128975840Y-94256916D01*
X129033092Y-94243024D01*
X129148168Y-94209406D01*
X129263305Y-94170014D01*
X129373553Y-94126921D01*
X129473959Y-94082201D01*
X129559574Y-94037926D01*
X129625444Y-93996168D01*
X129628964Y-93993561D01*
X129682247Y-93965375D01*
X129733240Y-93960719D01*
X129778755Y-93979475D01*
G37*
G36*
X122420529Y-93114622D02*
G01*
X122462975Y-93137681D01*
X122496954Y-93180052D01*
X122506220Y-93199485D01*
X122522395Y-93258116D01*
X122532121Y-93334801D01*
X122535159Y-93422903D01*
X122531271Y-93515782D01*
X122520729Y-93603714D01*
X122512625Y-93655765D01*
X122506963Y-93697345D01*
X122504470Y-93722802D01*
X122504774Y-93727965D01*
X122516979Y-93724184D01*
X122547949Y-93711213D01*
X122593498Y-93690892D01*
X122649440Y-93665063D01*
X122672905Y-93654020D01*
X122789263Y-93600481D01*
X122904105Y-93550461D01*
X123014378Y-93505094D01*
X123117030Y-93465515D01*
X123209008Y-93432859D01*
X123287260Y-93408261D01*
X123348732Y-93392855D01*
X123389105Y-93387768D01*
X123431077Y-93399303D01*
X123466584Y-93429126D01*
X123488809Y-93470061D01*
X123492931Y-93497015D01*
X123488990Y-93529396D01*
X123475126Y-93556662D01*
X123448274Y-93580979D01*
X123405372Y-93604512D01*
X123343356Y-93629426D01*
X123270518Y-93654219D01*
X123215886Y-93672615D01*
X123159299Y-93693158D01*
X123097949Y-93717046D01*
X123029027Y-93745478D01*
X122949724Y-93779651D01*
X122857231Y-93820763D01*
X122748740Y-93870012D01*
X122621440Y-93928596D01*
X122555095Y-93959334D01*
X122479904Y-93993408D01*
X122423254Y-94016658D01*
X122381128Y-94030078D01*
X122349510Y-94034658D01*
X122324384Y-94031391D01*
X122302505Y-94021714D01*
X122279313Y-94006603D01*
X122262624Y-93989392D01*
X122252172Y-93966613D01*
X122247691Y-93934800D01*
X122248913Y-93890485D01*
X122255572Y-93830202D01*
X122267401Y-93750482D01*
X122277042Y-93690824D01*
X122292048Y-93593231D01*
X122302399Y-93512339D01*
X122307940Y-93450054D01*
X122308519Y-93408279D01*
X122303980Y-93388921D01*
X122301550Y-93387768D01*
X122286196Y-93392586D01*
X122252030Y-93405771D01*
X122203540Y-93425421D01*
X122145215Y-93449636D01*
X122081543Y-93476512D01*
X122017013Y-93504149D01*
X121956114Y-93530645D01*
X121903335Y-93554097D01*
X121863163Y-93572605D01*
X121849189Y-93579421D01*
X121803812Y-93599304D01*
X121761316Y-93612907D01*
X121735723Y-93616941D01*
X121690225Y-93605444D01*
X121655517Y-93574446D01*
X121636362Y-93529183D01*
X121634084Y-93505153D01*
X121638432Y-93469877D01*
X121653943Y-93440365D01*
X121684319Y-93412751D01*
X121733259Y-93383167D01*
X121767768Y-93365477D01*
X121804835Y-93348120D01*
X121858287Y-93324393D01*
X121923888Y-93296050D01*
X121997404Y-93264848D01*
X122074599Y-93232543D01*
X122151238Y-93200892D01*
X122223087Y-93171650D01*
X122285909Y-93146575D01*
X122335471Y-93127421D01*
X122367537Y-93115946D01*
X122374342Y-93113942D01*
X122420529Y-93114622D01*
G37*
G36*
X132509445Y-93021296D02*
G01*
X132524531Y-93033092D01*
X132541907Y-93050954D01*
X132555613Y-93073265D01*
X132566246Y-93103346D01*
X132574405Y-93144515D01*
X132580689Y-93200093D01*
X132585695Y-93273399D01*
X132590023Y-93367754D01*
X132591404Y-93404078D01*
X132594654Y-93478638D01*
X132598452Y-93543327D01*
X132602492Y-93594294D01*
X132606465Y-93627683D01*
X132610065Y-93639644D01*
X132610212Y-93639617D01*
X132626012Y-93629158D01*
X132657629Y-93604473D01*
X132701878Y-93568288D01*
X132755574Y-93523330D01*
X132815533Y-93472325D01*
X132878570Y-93417999D01*
X132941501Y-93363077D01*
X133001141Y-93310287D01*
X133054306Y-93262355D01*
X133095661Y-93224040D01*
X133157361Y-93167147D01*
X133205213Y-93127497D01*
X133242759Y-93103731D01*
X133273541Y-93094491D01*
X133301102Y-93098418D01*
X133328984Y-93114154D01*
X133346391Y-93127898D01*
X133374806Y-93158915D01*
X133385111Y-93193449D01*
X133385563Y-93205646D01*
X133383145Y-93228870D01*
X133373745Y-93251851D01*
X133354139Y-93279482D01*
X133321107Y-93316657D01*
X133293257Y-93345832D01*
X133240403Y-93398805D01*
X133180156Y-93455874D01*
X133110228Y-93519043D01*
X133028328Y-93590316D01*
X132932167Y-93671698D01*
X132819455Y-93765194D01*
X132738545Y-93831524D01*
X132665642Y-93890748D01*
X132609294Y-93935521D01*
X132566587Y-93967804D01*
X132534605Y-93989555D01*
X132510432Y-94002735D01*
X132491153Y-94009302D01*
X132473854Y-94011217D01*
X132471176Y-94011223D01*
X132434265Y-94006870D01*
X132406218Y-93996771D01*
X132404109Y-93995308D01*
X132389007Y-93982060D01*
X132377490Y-93966272D01*
X132369192Y-93944690D01*
X132363748Y-93914060D01*
X132360793Y-93871128D01*
X132359961Y-93812638D01*
X132360888Y-93735336D01*
X132363208Y-93635967D01*
X132363318Y-93631761D01*
X132365591Y-93532065D01*
X132366527Y-93455566D01*
X132366069Y-93400029D01*
X132364162Y-93363219D01*
X132360750Y-93342903D01*
X132355933Y-93336841D01*
X132342664Y-93345368D01*
X132314250Y-93369183D01*
X132273621Y-93405640D01*
X132223710Y-93452095D01*
X132167446Y-93505900D01*
X132151435Y-93521453D01*
X132082981Y-93587593D01*
X132029458Y-93637293D01*
X131987959Y-93672286D01*
X131955578Y-93694303D01*
X131929407Y-93705076D01*
X131906540Y-93706337D01*
X131884071Y-93699818D01*
X131866455Y-93691253D01*
X131827595Y-93660666D01*
X131809435Y-93618654D01*
X131807025Y-93591478D01*
X131808028Y-93576283D01*
X131812880Y-93560622D01*
X131823708Y-93541964D01*
X131842639Y-93517779D01*
X131871798Y-93485536D01*
X131913312Y-93442704D01*
X131969307Y-93386753D01*
X132026336Y-93330475D01*
X132118922Y-93240595D01*
X132196645Y-93168121D01*
X132261579Y-93111443D01*
X132315798Y-93068951D01*
X132361375Y-93039037D01*
X132400383Y-93020091D01*
X132434897Y-93010504D01*
X132439476Y-93009819D01*
X132479182Y-93008752D01*
X132509445Y-93021296D01*
G37*
G36*
X124309508Y-89635748D02*
G01*
X124525468Y-89638487D01*
X124739710Y-89642594D01*
X124948840Y-89648051D01*
X125149466Y-89654838D01*
X125338197Y-89662937D01*
X125479097Y-89670391D01*
X125664379Y-89681411D01*
X125828720Y-89691706D01*
X125971459Y-89701225D01*
X126091936Y-89709919D01*
X126189489Y-89717738D01*
X126263458Y-89724634D01*
X126313182Y-89730556D01*
X126335238Y-89734606D01*
X126380922Y-89758718D01*
X126409544Y-89798886D01*
X126417869Y-89849780D01*
X126415764Y-89867216D01*
X126398776Y-89911945D01*
X126365742Y-89941187D01*
X126313613Y-89957155D01*
X126287521Y-89960256D01*
X126247737Y-89964522D01*
X126227858Y-89970672D01*
X126222343Y-89981571D01*
X126223961Y-89993117D01*
X126239036Y-90076828D01*
X126251826Y-90181959D01*
X126262262Y-90304564D01*
X126270274Y-90440698D01*
X126275793Y-90586414D01*
X126278749Y-90737765D01*
X126279073Y-90890805D01*
X126276697Y-91041588D01*
X126271549Y-91186167D01*
X126263561Y-91320596D01*
X126252664Y-91440930D01*
X126249852Y-91465262D01*
X126212549Y-91717606D01*
X126164396Y-91947117D01*
X126105411Y-92153765D01*
X126035611Y-92337518D01*
X125955012Y-92498344D01*
X125863634Y-92636212D01*
X125761494Y-92751089D01*
X125648608Y-92842945D01*
X125524995Y-92911748D01*
X125429042Y-92947089D01*
X125333904Y-92964080D01*
X125230641Y-92962962D01*
X125128971Y-92943853D01*
X125011365Y-92897047D01*
X124900718Y-92827039D01*
X124798654Y-92735521D01*
X124706794Y-92624190D01*
X124626760Y-92494740D01*
X124560662Y-92350124D01*
X124494871Y-92155348D01*
X124440361Y-91939556D01*
X124397102Y-91702469D01*
X124365068Y-91443809D01*
X124344228Y-91163296D01*
X124334556Y-90860653D01*
X124336022Y-90535601D01*
X124345934Y-90243007D01*
X124350073Y-90158248D01*
X124354382Y-90078690D01*
X124358569Y-90009078D01*
X124362346Y-89954156D01*
X124365421Y-89918670D01*
X124366084Y-89913115D01*
X124373602Y-89856957D01*
X123853693Y-89866758D01*
X123736498Y-89869121D01*
X123623428Y-89871692D01*
X123517890Y-89874373D01*
X123423291Y-89877064D01*
X123343038Y-89879668D01*
X123280537Y-89882086D01*
X123239196Y-89884219D01*
X123232277Y-89884720D01*
X123130771Y-89892881D01*
X123106681Y-89956540D01*
X123013058Y-90216106D01*
X122930849Y-90469285D01*
X122860781Y-90713327D01*
X122803583Y-90945486D01*
X122759982Y-91163012D01*
X122730704Y-91363159D01*
X122728088Y-91386818D01*
X122720788Y-91484978D01*
X122717669Y-91596861D01*
X122718492Y-91715824D01*
X122723018Y-91835225D01*
X122731008Y-91948422D01*
X122742222Y-92048773D01*
X122754520Y-92120951D01*
X122792115Y-92272769D01*
X122840017Y-92418157D01*
X122900984Y-92564315D01*
X122977773Y-92718443D01*
X122996971Y-92753967D01*
X123018372Y-92795168D01*
X123028344Y-92823187D01*
X123028700Y-92846590D01*
X123021910Y-92871958D01*
X122995952Y-92915374D01*
X122956365Y-92942214D01*
X122909756Y-92951356D01*
X122862732Y-92941679D01*
X122821902Y-92912060D01*
X122817379Y-92906669D01*
X122797485Y-92876202D01*
X122770380Y-92827339D01*
X122738522Y-92765241D01*
X122704369Y-92695069D01*
X122670379Y-92621982D01*
X122639009Y-92551142D01*
X122612718Y-92487709D01*
X122594763Y-92439247D01*
X122538889Y-92241562D01*
X122501175Y-92034648D01*
X122481707Y-91817588D01*
X122480568Y-91589463D01*
X122497844Y-91349357D01*
X122533618Y-91096353D01*
X122587977Y-90829533D01*
X122661003Y-90547980D01*
X122752781Y-90250776D01*
X122812426Y-90077090D01*
X122833362Y-90017627D01*
X122850804Y-89967147D01*
X122863167Y-89930305D01*
X122868869Y-89911758D01*
X122869072Y-89910598D01*
X122858162Y-89906707D01*
X122834059Y-89907288D01*
X122770084Y-89913588D01*
X122698481Y-89920099D01*
X122624906Y-89926368D01*
X122555009Y-89931942D01*
X122494445Y-89936366D01*
X122448867Y-89939189D01*
X122426418Y-89939989D01*
X122387916Y-89934186D01*
X122356287Y-89912847D01*
X122344316Y-89900320D01*
X122321763Y-89869122D01*
X122309573Y-89840665D01*
X122308871Y-89834755D01*
X122317705Y-89794339D01*
X122339865Y-89754614D01*
X122368835Y-89726160D01*
X122378924Y-89720991D01*
X122403519Y-89715501D01*
X122450320Y-89708687D01*
X122516123Y-89700864D01*
X122597722Y-89692349D01*
X122691912Y-89683454D01*
X122795489Y-89674497D01*
X122905248Y-89665792D01*
X123017984Y-89657654D01*
X123034585Y-89656526D01*
X123167600Y-89649143D01*
X123322641Y-89643264D01*
X123496316Y-89638869D01*
X123685232Y-89635939D01*
X123885997Y-89634455D01*
X124095220Y-89634398D01*
X124309508Y-89635748D01*
G37*
G36*
X133370193Y-89295320D02*
G01*
X133423438Y-89306245D01*
X133462850Y-89333689D01*
X133486310Y-89372379D01*
X133491697Y-89417041D01*
X133476892Y-89462401D01*
X133450294Y-89494579D01*
X133433757Y-89508669D01*
X133417896Y-89518421D01*
X133397853Y-89524634D01*
X133368771Y-89528105D01*
X133325794Y-89529632D01*
X133264065Y-89530014D01*
X133234536Y-89530024D01*
X133157026Y-89530668D01*
X133076298Y-89532422D01*
X133001925Y-89535017D01*
X132943669Y-89538171D01*
X132828890Y-89546319D01*
X132896213Y-89709121D01*
X132997668Y-89979819D01*
X133080107Y-90256396D01*
X133144623Y-90543221D01*
X133192310Y-90844666D01*
X133203231Y-90936197D01*
X133212090Y-91038407D01*
X133218577Y-91160346D01*
X133222695Y-91296388D01*
X133224448Y-91440910D01*
X133223839Y-91588288D01*
X133220870Y-91732896D01*
X133215546Y-91869110D01*
X133207868Y-91991307D01*
X133202602Y-92050926D01*
X133190639Y-92167965D01*
X133180287Y-92262318D01*
X133171077Y-92336677D01*
X133162539Y-92393735D01*
X133154203Y-92436184D01*
X133145599Y-92466717D01*
X133136258Y-92488025D01*
X133125709Y-92502802D01*
X133123320Y-92505305D01*
X133078446Y-92534959D01*
X133030151Y-92542067D01*
X132984382Y-92527388D01*
X132947086Y-92491685D01*
X132941114Y-92481996D01*
X132935132Y-92468683D01*
X132931403Y-92451626D01*
X132930065Y-92427340D01*
X132931254Y-92392338D01*
X132935109Y-92343137D01*
X132941765Y-92276251D01*
X132951360Y-92188196D01*
X132953384Y-92170066D01*
X132962730Y-92082922D01*
X132970046Y-92004709D01*
X132975567Y-91930243D01*
X132979528Y-91854341D01*
X132982164Y-91771820D01*
X132983712Y-91677495D01*
X132984406Y-91566185D01*
X132984510Y-91484360D01*
X132984075Y-91345542D01*
X132982525Y-91227353D01*
X132979493Y-91124973D01*
X132974615Y-91033578D01*
X132967524Y-90948345D01*
X132957854Y-90864452D01*
X132945238Y-90777078D01*
X132929311Y-90681398D01*
X132919273Y-90624961D01*
X132852710Y-90322394D01*
X132763127Y-90025675D01*
X132649392Y-89731100D01*
X132637475Y-89703518D01*
X132566024Y-89539617D01*
X131979528Y-89548920D01*
X131859912Y-89550886D01*
X131748337Y-89552851D01*
X131647334Y-89554762D01*
X131559435Y-89556565D01*
X131487171Y-89558205D01*
X131433074Y-89559628D01*
X131399677Y-89560781D01*
X131389418Y-89561529D01*
X131389583Y-89574599D01*
X131392170Y-89609075D01*
X131396827Y-89661052D01*
X131403201Y-89726622D01*
X131410940Y-89801880D01*
X131411969Y-89811616D01*
X131440778Y-90136325D01*
X131456058Y-90439818D01*
X131457783Y-90722469D01*
X131445928Y-90984652D01*
X131420466Y-91226738D01*
X131381371Y-91449101D01*
X131328619Y-91652115D01*
X131273125Y-91809482D01*
X131194251Y-91978229D01*
X131100886Y-92128140D01*
X130993860Y-92258240D01*
X130874005Y-92367554D01*
X130742153Y-92455109D01*
X130705513Y-92474437D01*
X130627603Y-92508123D01*
X130537952Y-92538478D01*
X130446581Y-92562617D01*
X130363514Y-92577656D01*
X130337874Y-92580264D01*
X130287857Y-92582921D01*
X130252611Y-92580432D01*
X130221621Y-92570682D01*
X130184376Y-92551555D01*
X130178320Y-92548153D01*
X130032337Y-92451327D01*
X129899202Y-92333470D01*
X129780150Y-92196213D01*
X129676415Y-92041187D01*
X129589230Y-91870021D01*
X129519830Y-91684345D01*
X129516600Y-91673899D01*
X129484274Y-91561269D01*
X129458567Y-91454383D01*
X129438855Y-91348235D01*
X129424516Y-91237819D01*
X129414927Y-91118127D01*
X129409465Y-90984154D01*
X129407507Y-90830894D01*
X129407482Y-90796841D01*
X129408605Y-90659437D01*
X129412012Y-90533291D01*
X129418169Y-90412530D01*
X129427542Y-90291283D01*
X129440597Y-90163677D01*
X129457803Y-90023839D01*
X129479624Y-89865898D01*
X129483662Y-89837952D01*
X129496020Y-89747072D01*
X129503280Y-89679021D01*
X129505599Y-89631711D01*
X129503134Y-89603055D01*
X129501728Y-89598401D01*
X129490642Y-89551973D01*
X129499455Y-89513593D01*
X129524636Y-89479331D01*
X129537562Y-89466510D01*
X129552557Y-89455727D01*
X129572245Y-89446534D01*
X129599252Y-89438483D01*
X129636202Y-89431128D01*
X129685719Y-89424021D01*
X129750429Y-89416714D01*
X129832956Y-89408761D01*
X129935925Y-89399714D01*
X130046239Y-89390433D01*
X130195953Y-89378593D01*
X130344857Y-89368160D01*
X130496977Y-89358936D01*
X130656336Y-89350724D01*
X130826960Y-89343325D01*
X131012871Y-89336540D01*
X131218094Y-89330172D01*
X131335738Y-89326907D01*
X131412774Y-89324997D01*
X131507894Y-89322892D01*
X131618508Y-89320630D01*
X131742023Y-89318254D01*
X131875847Y-89315802D01*
X132017390Y-89313316D01*
X132164060Y-89310834D01*
X132313264Y-89308399D01*
X132462412Y-89306049D01*
X132608911Y-89303825D01*
X132750170Y-89301768D01*
X132883597Y-89299917D01*
X133006601Y-89298313D01*
X133116590Y-89296996D01*
X133210972Y-89296007D01*
X133287156Y-89295384D01*
X133342549Y-89295170D01*
X133370193Y-89295320D01*
G37*
G36*
X135534086Y-81086178D02*
G01*
X135572986Y-81113792D01*
X135611286Y-81158043D01*
X135658373Y-81222081D01*
X135712296Y-81302606D01*
X135771104Y-81396316D01*
X135832844Y-81499912D01*
X135895567Y-81610092D01*
X135957320Y-81723555D01*
X136016153Y-81837000D01*
X136070114Y-81947127D01*
X136087267Y-81983797D01*
X136248228Y-82359171D01*
X136393225Y-82752044D01*
X136521732Y-83159663D01*
X136633220Y-83579274D01*
X136727161Y-84008124D01*
X136803029Y-84443459D01*
X136860294Y-84882527D01*
X136898429Y-85322575D01*
X136916906Y-85760848D01*
X136915197Y-86194593D01*
X136912157Y-86286617D01*
X136887204Y-86709186D01*
X136845077Y-87115026D01*
X136785271Y-87506656D01*
X136707286Y-87886594D01*
X136610616Y-88257358D01*
X136494760Y-88621467D01*
X136388588Y-88907965D01*
X136239878Y-89255150D01*
X136072375Y-89588433D01*
X135884829Y-89909794D01*
X135675991Y-90221212D01*
X135444610Y-90524667D01*
X135189437Y-90822139D01*
X135159370Y-90855117D01*
X135129276Y-90887929D01*
X135271798Y-90864912D01*
X135549842Y-90832125D01*
X135824286Y-90824337D01*
X136096598Y-90841591D01*
X136368246Y-90883932D01*
X136443812Y-90900158D01*
X136503040Y-90917753D01*
X136545252Y-90941227D01*
X136570784Y-90972910D01*
X136579974Y-91015133D01*
X136573157Y-91070224D01*
X136550670Y-91140514D01*
X136512851Y-91228334D01*
X136496280Y-91263177D01*
X136426901Y-91393686D01*
X136340543Y-91534951D01*
X136240408Y-91682198D01*
X136129698Y-91830655D01*
X136044633Y-91936340D01*
X135984466Y-92005917D01*
X135908646Y-92089191D01*
X135820468Y-92182847D01*
X135723226Y-92283569D01*
X135620216Y-92388045D01*
X135514733Y-92492958D01*
X135410072Y-92594995D01*
X135309527Y-92690841D01*
X135216394Y-92777181D01*
X135146875Y-92839432D01*
X134966584Y-92997581D01*
X135098214Y-93138565D01*
X135343733Y-93416003D01*
X135564854Y-93696497D01*
X135762591Y-93981494D01*
X135937957Y-94272442D01*
X136071044Y-94527267D01*
X136120324Y-94629287D01*
X136158789Y-94711440D01*
X136187199Y-94776540D01*
X136206312Y-94827403D01*
X136216889Y-94866842D01*
X136219688Y-94897673D01*
X136215468Y-94922709D01*
X136204989Y-94944767D01*
X136189409Y-94966165D01*
X136169092Y-94980557D01*
X136129118Y-94997217D01*
X136068543Y-95016401D01*
X135986423Y-95038364D01*
X135881813Y-95063361D01*
X135753770Y-95091647D01*
X135625137Y-95118604D01*
X135428287Y-95157683D01*
X135250740Y-95189772D01*
X135087498Y-95215487D01*
X134933562Y-95235445D01*
X134783936Y-95250261D01*
X134633621Y-95260552D01*
X134477618Y-95266935D01*
X134408700Y-95268609D01*
X134248162Y-95270328D01*
X134108498Y-95268302D01*
X133985328Y-95262062D01*
X133874272Y-95251140D01*
X133770952Y-95235065D01*
X133670990Y-95213369D01*
X133570004Y-95185582D01*
X133536086Y-95175115D01*
X133437596Y-95144002D01*
X133134662Y-95312149D01*
X132944397Y-95416439D01*
X132772488Y-95507721D01*
X132616195Y-95587247D01*
X132472778Y-95656270D01*
X132339496Y-95716040D01*
X132213609Y-95767811D01*
X132092377Y-95812833D01*
X131973059Y-95852359D01*
X131911231Y-95871048D01*
X131837029Y-95891513D01*
X131750786Y-95913271D01*
X131659111Y-95934844D01*
X131568612Y-95954755D01*
X131485896Y-95971525D01*
X131417571Y-95983678D01*
X131389344Y-95987755D01*
X131366287Y-95992994D01*
X131359206Y-95997794D01*
X131364428Y-96010302D01*
X131379709Y-96042903D01*
X131403739Y-96092904D01*
X131435211Y-96157612D01*
X131472817Y-96234333D01*
X131515248Y-96320374D01*
X131547819Y-96386114D01*
X131714801Y-96731230D01*
X131869200Y-97069174D01*
X132013565Y-97406154D01*
X132150446Y-97748381D01*
X132282391Y-98102062D01*
X132411948Y-98473408D01*
X132444797Y-98571336D01*
X132630964Y-99163924D01*
X132800627Y-99772564D01*
X132953165Y-100393756D01*
X133087958Y-101024001D01*
X133204387Y-101659799D01*
X133301832Y-102297652D01*
X133379672Y-102934060D01*
X133437288Y-103565525D01*
X133474060Y-104188547D01*
X133482646Y-104429448D01*
X133491377Y-104731829D01*
X133370483Y-104731829D01*
X133249589Y-104731829D01*
X133241383Y-104410350D01*
X133221365Y-103924710D01*
X133186005Y-103423007D01*
X133135871Y-102909066D01*
X133071525Y-102386707D01*
X132993535Y-101859755D01*
X132902466Y-101332031D01*
X132798881Y-100807358D01*
X132683348Y-100289558D01*
X132557740Y-99787405D01*
X132396106Y-99210427D01*
X132221155Y-98652988D01*
X132031851Y-98112322D01*
X131827161Y-97585662D01*
X131606049Y-97070243D01*
X131367482Y-96563299D01*
X131304730Y-96437042D01*
X131100070Y-96029623D01*
X130924097Y-96033947D01*
X130838927Y-96035020D01*
X130775266Y-96032831D01*
X130729263Y-96026430D01*
X130697069Y-96014868D01*
X130674834Y-95997195D01*
X130658707Y-95972463D01*
X130656524Y-95967972D01*
X130643517Y-95914659D01*
X130655298Y-95865168D01*
X130681880Y-95830560D01*
X130695703Y-95819259D01*
X130712320Y-95810952D01*
X130736118Y-95804899D01*
X130771480Y-95800355D01*
X130822792Y-95796578D01*
X130894439Y-95792825D01*
X130908639Y-95792151D01*
X131163558Y-95773543D01*
X131402661Y-95741973D01*
X131632644Y-95696382D01*
X131817951Y-95648128D01*
X131910049Y-95620702D01*
X131998016Y-95592345D01*
X132084297Y-95561929D01*
X132171333Y-95528324D01*
X132261568Y-95490402D01*
X132357444Y-95447034D01*
X132461406Y-95397090D01*
X132575896Y-95339441D01*
X132703358Y-95272959D01*
X132846233Y-95196515D01*
X133006966Y-95108980D01*
X133124177Y-95044494D01*
X133201732Y-95002124D01*
X133272648Y-94964196D01*
X133333672Y-94932387D01*
X133381549Y-94908371D01*
X133413024Y-94893822D01*
X133424121Y-94890124D01*
X133444818Y-94894312D01*
X133482414Y-94905471D01*
X133530015Y-94921497D01*
X133547974Y-94927943D01*
X133712238Y-94977114D01*
X133895926Y-95011762D01*
X134099278Y-95031891D01*
X134322533Y-95037505D01*
X134565929Y-95028606D01*
X134829705Y-95005199D01*
X135114101Y-94967288D01*
X135206215Y-94952635D01*
X135291539Y-94937991D01*
X135383189Y-94921246D01*
X135477666Y-94903143D01*
X135571471Y-94884421D01*
X135661106Y-94865820D01*
X135743072Y-94848082D01*
X135813872Y-94831946D01*
X135870006Y-94818152D01*
X135907977Y-94807442D01*
X135924144Y-94800699D01*
X135923080Y-94785452D01*
X135911129Y-94751472D01*
X135889968Y-94702176D01*
X135861272Y-94640981D01*
X135826720Y-94571302D01*
X135787987Y-94496557D01*
X135746750Y-94420161D01*
X135704685Y-94345530D01*
X135680606Y-94304460D01*
X135532768Y-94068697D01*
X135377620Y-93846332D01*
X135210831Y-93631752D01*
X135028068Y-93419346D01*
X134852977Y-93232238D01*
X134791759Y-93168813D01*
X134746103Y-93120555D01*
X134713734Y-93084457D01*
X134692375Y-93057515D01*
X134679752Y-93036724D01*
X134673589Y-93019078D01*
X134671610Y-93001571D01*
X134671478Y-92992537D01*
X134671548Y-92974799D01*
X134673175Y-92959610D01*
X134678483Y-92944654D01*
X134689593Y-92927612D01*
X134708630Y-92906165D01*
X134737717Y-92877997D01*
X134778978Y-92840789D01*
X134834536Y-92792222D01*
X134906513Y-92729980D01*
X134932697Y-92707368D01*
X134997923Y-92649496D01*
X135075004Y-92578562D01*
X135161037Y-92497444D01*
X135253120Y-92409025D01*
X135348349Y-92316185D01*
X135443820Y-92221804D01*
X135536629Y-92128764D01*
X135623875Y-92039944D01*
X135702652Y-91958226D01*
X135770058Y-91886491D01*
X135823190Y-91827618D01*
X135844537Y-91802656D01*
X135955579Y-91665273D01*
X136051418Y-91538763D01*
X136130350Y-91425414D01*
X136160371Y-91378550D01*
X136192433Y-91325207D01*
X136224107Y-91269665D01*
X136253002Y-91216480D01*
X136276727Y-91170207D01*
X136292894Y-91135401D01*
X136299111Y-91116619D01*
X136298725Y-91114832D01*
X136285222Y-91111444D01*
X136251898Y-91105475D01*
X136204154Y-91097844D01*
X136161024Y-91091422D01*
X135971226Y-91069886D01*
X135785859Y-91061471D01*
X135600620Y-91066573D01*
X135411207Y-91085582D01*
X135213320Y-91118893D01*
X135002656Y-91166897D01*
X134834305Y-91212602D01*
X134765887Y-91230612D01*
X134711204Y-91241618D01*
X134674495Y-91244834D01*
X134665961Y-91243806D01*
X134620709Y-91220472D01*
X134591721Y-91179782D01*
X134582355Y-91130601D01*
X134583168Y-91113708D01*
X134587098Y-91097704D01*
X134596385Y-91079879D01*
X134613267Y-91057527D01*
X134639982Y-91027937D01*
X134678768Y-90988403D01*
X134731865Y-90936216D01*
X134788203Y-90881548D01*
X135039159Y-90625244D01*
X135267276Y-90363706D01*
X135475116Y-90093451D01*
X135665243Y-89810999D01*
X135840221Y-89512866D01*
X135949432Y-89304262D01*
X136113079Y-88949348D01*
X136256196Y-88580132D01*
X136378683Y-88197508D01*
X136480443Y-87802372D01*
X136561376Y-87395619D01*
X136621382Y-86978145D01*
X136660362Y-86550844D01*
X136678218Y-86114612D01*
X136674850Y-85670345D01*
X136650159Y-85218938D01*
X136604046Y-84761285D01*
X136536413Y-84298282D01*
X136516372Y-84183149D01*
X136453303Y-83865663D01*
X136378514Y-83548335D01*
X136293141Y-83234531D01*
X136198316Y-82927618D01*
X136095175Y-82630962D01*
X135984850Y-82347930D01*
X135868477Y-82081889D01*
X135747189Y-81836205D01*
X135690774Y-81732232D01*
X135644693Y-81651228D01*
X135599917Y-81574947D01*
X135558327Y-81506382D01*
X135521807Y-81448525D01*
X135492240Y-81404369D01*
X135471510Y-81376906D01*
X135462164Y-81368921D01*
X135450224Y-81376494D01*
X135420930Y-81397885D01*
X135376889Y-81431107D01*
X135320710Y-81474171D01*
X135255001Y-81525090D01*
X135182370Y-81581874D01*
X135168494Y-81592777D01*
X134790697Y-81895626D01*
X134427247Y-82199125D01*
X134075176Y-82506105D01*
X133731520Y-82819401D01*
X133393313Y-83141845D01*
X133057588Y-83476269D01*
X132721382Y-83825508D01*
X132381728Y-84192394D01*
X132035660Y-84579759D01*
X132004261Y-84615538D01*
X131950101Y-84677778D01*
X131885882Y-84752306D01*
X131813710Y-84836623D01*
X131735691Y-84928224D01*
X131653928Y-85024609D01*
X131570528Y-85123277D01*
X131487596Y-85221724D01*
X131407237Y-85317449D01*
X131331555Y-85407950D01*
X131262658Y-85490727D01*
X131202649Y-85563275D01*
X131153634Y-85623095D01*
X131117718Y-85667684D01*
X131102508Y-85687164D01*
X131066919Y-85733879D01*
X131223618Y-85916337D01*
X131306633Y-86013332D01*
X131374183Y-86093341D01*
X131427639Y-86158490D01*
X131468366Y-86210901D01*
X131497734Y-86252696D01*
X131517110Y-86286001D01*
X131527862Y-86312937D01*
X131531358Y-86335629D01*
X131528965Y-86356199D01*
X131522052Y-86376770D01*
X131521344Y-86378480D01*
X131493008Y-86422090D01*
X131451685Y-86444591D01*
X131413676Y-86448921D01*
X131395950Y-86447632D01*
X131378663Y-86442256D01*
X131359460Y-86430534D01*
X131335983Y-86410207D01*
X131305873Y-86379014D01*
X131266775Y-86334698D01*
X131216330Y-86274997D01*
X131154657Y-86200651D01*
X130861726Y-85863653D01*
X130557694Y-85548235D01*
X130243048Y-85254667D01*
X129918277Y-84983214D01*
X129583867Y-84734146D01*
X129240306Y-84507730D01*
X128888082Y-84304234D01*
X128527682Y-84123925D01*
X128159594Y-83967073D01*
X127784304Y-83833944D01*
X127402301Y-83724806D01*
X127014072Y-83639928D01*
X126620104Y-83579576D01*
X126333472Y-83551484D01*
X126213861Y-83542492D01*
X126223008Y-83693877D01*
X126233991Y-83829556D01*
X126250729Y-83959149D01*
X126274217Y-84085343D01*
X126305447Y-84210823D01*
X126345414Y-84338278D01*
X126395110Y-84470394D01*
X126455530Y-84609858D01*
X126527666Y-84759356D01*
X126612513Y-84921575D01*
X126711064Y-85099202D01*
X126799227Y-85252129D01*
X126844212Y-85329243D01*
X126886627Y-85402178D01*
X126924197Y-85467006D01*
X126954647Y-85519798D01*
X126975704Y-85556625D01*
X126982266Y-85568307D01*
X127012802Y-85623482D01*
X127111895Y-85614710D01*
X127169193Y-85610791D01*
X127240481Y-85607572D01*
X127314289Y-85605520D01*
X127349717Y-85605068D01*
X127416231Y-85605503D01*
X127462716Y-85608229D01*
X127494556Y-85613906D01*
X127517132Y-85623194D01*
X127521984Y-85626173D01*
X127559567Y-85663731D01*
X127575030Y-85709380D01*
X127567991Y-85757952D01*
X127538067Y-85804277D01*
X127535348Y-85807060D01*
X127520068Y-85820629D01*
X127503060Y-85829489D01*
X127478814Y-85834635D01*
X127441817Y-85837063D01*
X127386559Y-85837769D01*
X127365154Y-85837794D01*
X127161749Y-85847927D01*
X126946489Y-85877903D01*
X126722650Y-85927086D01*
X126493513Y-85994840D01*
X126414481Y-86022173D01*
X126315834Y-86060519D01*
X126201652Y-86109846D01*
X126077764Y-86167286D01*
X125950003Y-86229971D01*
X125824201Y-86295034D01*
X125706189Y-86359605D01*
X125601799Y-86420819D01*
X125593683Y-86425811D01*
X125515035Y-86475604D01*
X125431709Y-86530505D01*
X125346161Y-86588689D01*
X125260847Y-86648332D01*
X125178221Y-86707611D01*
X125100741Y-86764704D01*
X125030862Y-86817785D01*
X124971040Y-86865032D01*
X124923730Y-86904621D01*
X124891389Y-86934729D01*
X124876472Y-86953533D01*
X124876509Y-86958328D01*
X124893786Y-86963436D01*
X124933797Y-86969347D01*
X124993833Y-86975867D01*
X125071184Y-86982801D01*
X125163140Y-86989956D01*
X125266991Y-86997138D01*
X125380028Y-87004153D01*
X125499541Y-87010806D01*
X125622820Y-87016904D01*
X125747156Y-87022253D01*
X125795034Y-87024082D01*
X126050380Y-87030413D01*
X126304904Y-87030803D01*
X126555389Y-87025456D01*
X126798618Y-87014578D01*
X127031376Y-86998373D01*
X127250445Y-86977047D01*
X127452609Y-86950804D01*
X127634650Y-86919850D01*
X127723754Y-86901180D01*
X127800664Y-86885764D01*
X127857742Y-86879764D01*
X127899045Y-86883782D01*
X127928630Y-86898416D01*
X127950552Y-86924266D01*
X127956951Y-86935658D01*
X127969784Y-86982094D01*
X127965577Y-87030269D01*
X127945626Y-87069864D01*
X127939274Y-87076380D01*
X127910159Y-87092502D01*
X127858414Y-87110123D01*
X127786788Y-87128702D01*
X127698034Y-87147700D01*
X127594901Y-87166578D01*
X127480141Y-87184794D01*
X127356504Y-87201810D01*
X127226742Y-87217085D01*
X127216991Y-87218129D01*
X126987674Y-87238301D01*
X126737993Y-87252555D01*
X126472336Y-87260944D01*
X126195092Y-87263523D01*
X125910651Y-87260347D01*
X125623400Y-87251472D01*
X125337728Y-87236952D01*
X125058025Y-87216841D01*
X124788679Y-87191196D01*
X124753382Y-87187316D01*
X124673223Y-87178228D01*
X124614332Y-87170892D01*
X124572659Y-87164311D01*
X124544159Y-87157488D01*
X124524784Y-87149424D01*
X124510486Y-87139123D01*
X124497217Y-87125585D01*
X124495563Y-87123763D01*
X124469013Y-87088509D01*
X124458442Y-87055646D01*
X124464975Y-87021372D01*
X124489735Y-86981887D01*
X124533847Y-86933390D01*
X124559193Y-86908678D01*
X124698525Y-86783234D01*
X124857589Y-86653001D01*
X125031930Y-86521160D01*
X125217094Y-86390890D01*
X125408630Y-86265373D01*
X125602083Y-86147791D01*
X125712104Y-86085204D01*
X125900550Y-85980813D01*
X125738614Y-85778802D01*
X125568903Y-85569349D01*
X125384186Y-85345533D01*
X125186326Y-85109434D01*
X124977184Y-84863131D01*
X124758621Y-84608705D01*
X124532500Y-84348236D01*
X124300682Y-84083804D01*
X124065030Y-83817489D01*
X123827404Y-83551371D01*
X123589666Y-83287529D01*
X123353679Y-83028045D01*
X123121303Y-82774998D01*
X122894402Y-82530468D01*
X122674835Y-82296535D01*
X122464466Y-82075280D01*
X122265155Y-81868781D01*
X122078766Y-81679120D01*
X121987128Y-81587404D01*
X121777934Y-81379371D01*
X121687014Y-81479574D01*
X121542550Y-81648998D01*
X121396449Y-81839992D01*
X121251070Y-82048981D01*
X121108775Y-82272386D01*
X120971924Y-82506631D01*
X120842878Y-82748139D01*
X120820068Y-82793288D01*
X120629694Y-83201854D01*
X120461610Y-83622160D01*
X120316133Y-84053081D01*
X120193580Y-84493491D01*
X120094268Y-84942263D01*
X120018513Y-85398271D01*
X119970883Y-85812330D01*
X119963504Y-85912214D01*
X119957565Y-86031088D01*
X119953095Y-86163919D01*
X119950121Y-86305671D01*
X119948672Y-86451313D01*
X119948776Y-86595808D01*
X119950462Y-86734125D01*
X119953756Y-86861229D01*
X119958689Y-86972085D01*
X119963973Y-87047317D01*
X119972526Y-87138247D01*
X119983114Y-87239512D01*
X119995035Y-87345291D01*
X120007588Y-87449767D01*
X120020069Y-87547119D01*
X120031777Y-87631528D01*
X120042009Y-87697176D01*
X120043232Y-87704244D01*
X120131385Y-88139965D01*
X120240441Y-88561963D01*
X120370957Y-88971516D01*
X120523492Y-89369903D01*
X120698605Y-89758403D01*
X120896854Y-90138295D01*
X121118799Y-90510857D01*
X121364997Y-90877368D01*
X121524094Y-91094247D01*
X121589484Y-91180594D01*
X121641140Y-91249017D01*
X121680576Y-91301986D01*
X121709303Y-91341971D01*
X121728835Y-91371441D01*
X121740685Y-91392867D01*
X121746366Y-91408719D01*
X121747392Y-91421466D01*
X121745275Y-91433580D01*
X121741528Y-91447528D01*
X121741227Y-91448703D01*
X121721719Y-91490541D01*
X121693633Y-91521335D01*
X121680912Y-91529752D01*
X121666011Y-91536273D01*
X121645570Y-91541202D01*
X121616230Y-91544845D01*
X121574632Y-91547509D01*
X121517414Y-91549498D01*
X121441218Y-91551120D01*
X121350388Y-91552564D01*
X121203757Y-91553147D01*
X121063066Y-91550144D01*
X120925102Y-91543116D01*
X120786653Y-91531621D01*
X120644505Y-91515220D01*
X120495447Y-91493473D01*
X120336264Y-91465938D01*
X120163744Y-91432176D01*
X119974675Y-91391746D01*
X119765843Y-91344208D01*
X119675825Y-91323049D01*
X119596355Y-91304623D01*
X119525405Y-91288930D01*
X119466639Y-91276719D01*
X119423721Y-91268738D01*
X119400316Y-91265734D01*
X119397174Y-91266149D01*
X119397698Y-91281005D01*
X119405727Y-91314938D01*
X119419717Y-91363223D01*
X119438127Y-91421133D01*
X119459411Y-91483945D01*
X119482029Y-91546933D01*
X119504436Y-91605371D01*
X119520919Y-91645087D01*
X119619543Y-91843819D01*
X119738475Y-92035281D01*
X119874386Y-92214979D01*
X120023947Y-92378419D01*
X120148268Y-92492001D01*
X120345682Y-92641230D01*
X120555970Y-92768543D01*
X120778454Y-92873556D01*
X120910719Y-92923376D01*
X120967906Y-92944562D01*
X121017747Y-92965834D01*
X121054220Y-92984453D01*
X121069867Y-92995752D01*
X121082889Y-93016686D01*
X121089839Y-93047453D01*
X121091994Y-93094811D01*
X121091909Y-93112262D01*
X121089595Y-93157098D01*
X121082829Y-93202928D01*
X121070227Y-93255871D01*
X121050409Y-93322045D01*
X121031655Y-93379061D01*
X120980240Y-93521888D01*
X120916719Y-93681854D01*
X120843047Y-93854864D01*
X120761179Y-94036828D01*
X120673069Y-94223652D01*
X120580673Y-94411244D01*
X120485944Y-94595513D01*
X120390838Y-94772366D01*
X120297309Y-94937710D01*
X120245051Y-95025901D01*
X120158662Y-95168945D01*
X120226475Y-95194317D01*
X120338711Y-95230991D01*
X120455450Y-95257927D01*
X120581855Y-95275886D01*
X120723091Y-95285627D01*
X120863809Y-95288003D01*
X121122092Y-95276901D01*
X121388544Y-95245398D01*
X121657501Y-95194472D01*
X121923298Y-95125101D01*
X122059806Y-95081580D01*
X122111307Y-95064676D01*
X122154749Y-95051521D01*
X122183784Y-95043984D01*
X122191042Y-95042906D01*
X122207079Y-95049325D01*
X122240851Y-95067142D01*
X122288537Y-95094196D01*
X122346318Y-95128327D01*
X122402542Y-95162536D01*
X122752513Y-95364770D01*
X123121528Y-95551984D01*
X123507414Y-95723239D01*
X123907999Y-95877596D01*
X124321110Y-96014113D01*
X124479648Y-96060755D01*
X124800716Y-96145917D01*
X125104193Y-96213693D01*
X125390955Y-96264227D01*
X125661881Y-96297662D01*
X125917847Y-96314143D01*
X126035404Y-96316074D01*
X126117616Y-96316199D01*
X126178357Y-96316864D01*
X126221622Y-96318526D01*
X126251404Y-96321640D01*
X126271695Y-96326663D01*
X126286491Y-96334051D01*
X126299784Y-96344259D01*
X126302483Y-96346568D01*
X126327496Y-96374941D01*
X126337130Y-96409212D01*
X126337917Y-96429260D01*
X126332744Y-96471070D01*
X126315576Y-96503219D01*
X126283933Y-96526788D01*
X126235340Y-96542856D01*
X126167317Y-96552505D01*
X126077388Y-96556813D01*
X126044329Y-96557235D01*
X125869074Y-96552702D01*
X125674449Y-96537351D01*
X125463844Y-96511787D01*
X125240646Y-96476612D01*
X125008246Y-96432431D01*
X124770031Y-96379847D01*
X124529391Y-96319465D01*
X124289714Y-96251887D01*
X124231553Y-96234310D01*
X124167224Y-96215027D01*
X124111970Y-96199268D01*
X124070120Y-96188205D01*
X124046006Y-96183009D01*
X124041925Y-96183002D01*
X124043532Y-96197711D01*
X124055671Y-96230356D01*
X124076314Y-96276726D01*
X124103429Y-96332608D01*
X124134987Y-96393790D01*
X124168957Y-96456060D01*
X124196712Y-96504174D01*
X124279226Y-96632678D01*
X124369623Y-96751782D01*
X124473665Y-96868649D01*
X124557728Y-96952991D01*
X124705304Y-97084617D01*
X124866029Y-97206595D01*
X125043668Y-97321505D01*
X125241986Y-97431929D01*
X125298031Y-97460539D01*
X125362983Y-97495042D01*
X125406666Y-97523028D01*
X125431843Y-97546396D01*
X125438320Y-97556863D01*
X125450658Y-97590667D01*
X125452747Y-97620501D01*
X125442463Y-97649299D01*
X125417677Y-97679995D01*
X125376264Y-97715524D01*
X125316097Y-97758820D01*
X125269022Y-97790468D01*
X125095812Y-97915248D01*
X124942971Y-98047680D01*
X124805568Y-98192538D01*
X124678672Y-98354598D01*
X124661664Y-98378646D01*
X124630363Y-98425319D01*
X124595167Y-98480878D01*
X124558354Y-98541341D01*
X124522205Y-98602729D01*
X124488998Y-98661063D01*
X124461015Y-98712362D01*
X124440534Y-98752646D01*
X124429836Y-98777936D01*
X124429209Y-98784449D01*
X124443808Y-98787075D01*
X124479915Y-98789766D01*
X124533578Y-98792340D01*
X124600841Y-98794613D01*
X124677752Y-98796403D01*
X124693949Y-98796687D01*
X124862049Y-98796485D01*
X125011594Y-98789528D01*
X125148738Y-98775215D01*
X125279635Y-98752944D01*
X125382675Y-98729327D01*
X125441066Y-98715060D01*
X125481160Y-98707228D01*
X125509157Y-98705310D01*
X125531255Y-98708788D01*
X125549444Y-98715353D01*
X125593708Y-98744932D01*
X125616118Y-98787570D01*
X125619147Y-98815312D01*
X125613735Y-98835629D01*
X125598607Y-98874881D01*
X125575420Y-98929223D01*
X125545835Y-98994809D01*
X125511510Y-99067792D01*
X125499317Y-99093067D01*
X125358119Y-99402541D01*
X125223288Y-99735996D01*
X125095066Y-100092699D01*
X124973696Y-100471913D01*
X124859419Y-100872904D01*
X124752478Y-101294939D01*
X124703579Y-101505861D01*
X124653869Y-101733184D01*
X124605111Y-101969598D01*
X124556950Y-102217145D01*
X124509028Y-102477871D01*
X124460990Y-102753821D01*
X124412480Y-103047039D01*
X124363141Y-103359570D01*
X124312617Y-103693459D01*
X124261932Y-104041127D01*
X124162907Y-104731829D01*
X124044360Y-104731829D01*
X123986505Y-104731010D01*
X123950106Y-104728156D01*
X123931198Y-104722671D01*
X123925814Y-104714021D01*
X123927675Y-104694147D01*
X123933017Y-104651546D01*
X123941480Y-104588666D01*
X123952702Y-104507951D01*
X123966322Y-104411847D01*
X123981979Y-104302800D01*
X123999311Y-104183256D01*
X124017957Y-104055661D01*
X124037557Y-103922460D01*
X124057748Y-103786099D01*
X124078170Y-103649025D01*
X124098461Y-103513682D01*
X124118260Y-103382517D01*
X124137207Y-103257976D01*
X124154939Y-103142504D01*
X124171096Y-103038547D01*
X124185316Y-102948551D01*
X124197238Y-102874963D01*
X124198878Y-102865053D01*
X124279105Y-102403553D01*
X124362479Y-101966305D01*
X124449285Y-101552256D01*
X124539807Y-101160356D01*
X124634329Y-100789553D01*
X124733135Y-100438796D01*
X124836510Y-100107034D01*
X124944738Y-99793216D01*
X125058102Y-99496290D01*
X125176887Y-99215206D01*
X125198249Y-99167576D01*
X125274334Y-98999419D01*
X125222717Y-99007673D01*
X125110179Y-99021644D01*
X124977987Y-99031253D01*
X124831581Y-99036446D01*
X124676404Y-99037166D01*
X124517897Y-99033361D01*
X124361503Y-99024974D01*
X124266335Y-99017297D01*
X124193915Y-99005439D01*
X124143730Y-98984424D01*
X124113736Y-98952770D01*
X124101887Y-98908993D01*
X124101513Y-98897708D01*
X124108337Y-98868972D01*
X124127562Y-98822349D01*
X124157315Y-98761037D01*
X124195724Y-98688237D01*
X124240916Y-98607147D01*
X124291020Y-98520969D01*
X124344161Y-98432900D01*
X124398470Y-98346142D01*
X124452072Y-98263893D01*
X124503095Y-98189353D01*
X124549668Y-98125722D01*
X124564100Y-98107211D01*
X124629061Y-98030954D01*
X124707491Y-97947371D01*
X124792649Y-97863082D01*
X124877795Y-97784709D01*
X124956188Y-97718871D01*
X124971739Y-97706818D01*
X125081875Y-97622990D01*
X124918358Y-97524816D01*
X124696127Y-97379455D01*
X124496629Y-97223665D01*
X124319016Y-97056625D01*
X124162440Y-96877515D01*
X124026054Y-96685515D01*
X123989650Y-96626457D01*
X123949315Y-96554711D01*
X123906188Y-96471040D01*
X123863234Y-96381859D01*
X123823419Y-96293587D01*
X123789708Y-96212641D01*
X123765067Y-96145437D01*
X123760163Y-96129843D01*
X123744465Y-96077282D01*
X123513661Y-95984806D01*
X123292056Y-95892186D01*
X123069535Y-95791881D01*
X122851356Y-95686510D01*
X122642779Y-95578693D01*
X122449062Y-95471049D01*
X122289380Y-95374982D01*
X122169918Y-95299899D01*
X122071796Y-95331059D01*
X121912357Y-95377255D01*
X121736780Y-95420393D01*
X121554365Y-95458550D01*
X121374410Y-95489804D01*
X121206217Y-95512233D01*
X121184068Y-95514567D01*
X121092860Y-95521241D01*
X120987541Y-95524698D01*
X120873941Y-95525114D01*
X120757894Y-95522667D01*
X120645230Y-95517533D01*
X120541783Y-95509891D01*
X120453383Y-95499916D01*
X120399097Y-95490728D01*
X120298337Y-95466772D01*
X120200629Y-95437946D01*
X120109600Y-95405785D01*
X120028875Y-95371825D01*
X119962078Y-95337601D01*
X119912835Y-95304648D01*
X119884772Y-95274502D01*
X119883643Y-95272437D01*
X119870659Y-95241906D01*
X119866819Y-95213121D01*
X119873493Y-95181097D01*
X119892054Y-95140850D01*
X119923872Y-95087396D01*
X119942586Y-95058160D01*
X120031660Y-94914958D01*
X120126418Y-94752250D01*
X120224492Y-94574686D01*
X120323517Y-94386918D01*
X120421127Y-94193597D01*
X120514955Y-93999374D01*
X120602636Y-93808900D01*
X120681802Y-93626828D01*
X120727697Y-93514879D01*
X120766068Y-93415750D01*
X120797090Y-93329579D01*
X120820101Y-93258526D01*
X120834440Y-93204748D01*
X120839446Y-93170404D01*
X120836706Y-93158724D01*
X120820614Y-93149816D01*
X120786477Y-93134575D01*
X120740121Y-93115528D01*
X120710459Y-93103936D01*
X120488097Y-93005117D01*
X120276281Y-92883947D01*
X120076600Y-92741909D01*
X119890638Y-92580486D01*
X119719985Y-92401164D01*
X119566225Y-92205424D01*
X119430947Y-91994752D01*
X119340058Y-91822632D01*
X119300110Y-91733822D01*
X119261786Y-91637819D01*
X119226093Y-91538241D01*
X119194034Y-91438708D01*
X119166615Y-91342842D01*
X119144840Y-91254261D01*
X119129716Y-91176585D01*
X119122247Y-91113435D01*
X119123437Y-91068431D01*
X119126998Y-91055227D01*
X119157624Y-91010150D01*
X119202903Y-90985766D01*
X119238059Y-90981453D01*
X119261461Y-90984388D01*
X119305912Y-90992668D01*
X119367749Y-91005507D01*
X119443307Y-91022117D01*
X119528921Y-91041713D01*
X119620926Y-91063506D01*
X119626730Y-91064905D01*
X119848416Y-91117015D01*
X120059115Y-91163784D01*
X120255805Y-91204595D01*
X120435467Y-91238828D01*
X120595082Y-91265866D01*
X120647367Y-91273765D01*
X120705203Y-91281206D01*
X120776169Y-91288815D01*
X120856434Y-91296337D01*
X120942167Y-91303515D01*
X121029536Y-91310092D01*
X121114711Y-91315812D01*
X121193860Y-91320418D01*
X121263152Y-91323654D01*
X121318756Y-91325262D01*
X121356840Y-91324987D01*
X121373573Y-91322572D01*
X121373758Y-91322413D01*
X121368949Y-91310294D01*
X121351184Y-91280712D01*
X121322513Y-91236781D01*
X121284984Y-91181611D01*
X121240647Y-91118314D01*
X121223316Y-91094001D01*
X121047798Y-90841512D01*
X120889466Y-90597616D01*
X120744690Y-90356246D01*
X120609836Y-90111335D01*
X120481271Y-89856816D01*
X120476149Y-89846228D01*
X120294422Y-89441055D01*
X120137004Y-89028791D01*
X120003939Y-88610062D01*
X119895270Y-88185490D01*
X119811040Y-87755702D01*
X119751291Y-87321320D01*
X119716067Y-86882970D01*
X119705411Y-86441276D01*
X119719366Y-85996863D01*
X119757974Y-85550355D01*
X119821279Y-85102376D01*
X119909324Y-84653551D01*
X120022152Y-84204504D01*
X120075104Y-84022067D01*
X120181690Y-83693804D01*
X120301637Y-83370337D01*
X120433703Y-83053956D01*
X120576645Y-82746948D01*
X120729218Y-82451603D01*
X120890180Y-82170208D01*
X121058287Y-81905053D01*
X121232295Y-81658425D01*
X121410961Y-81432614D01*
X121591157Y-81231866D01*
X121641078Y-81180339D01*
X121677419Y-81144503D01*
X121704071Y-81121522D01*
X121724925Y-81108564D01*
X121743872Y-81102792D01*
X121764802Y-81101374D01*
X121770290Y-81101365D01*
X121791367Y-81103070D01*
X121813278Y-81109095D01*
X121837905Y-81121028D01*
X121867131Y-81140456D01*
X121902840Y-81168968D01*
X121946914Y-81208151D01*
X122001236Y-81259595D01*
X122067689Y-81324886D01*
X122148156Y-81405613D01*
X122232811Y-81491451D01*
X122455295Y-81719767D01*
X122688319Y-81962741D01*
X122929928Y-82218181D01*
X123178167Y-82483898D01*
X123431083Y-82757702D01*
X123686721Y-83037403D01*
X123943127Y-83320810D01*
X124198347Y-83605733D01*
X124450426Y-83889983D01*
X124697411Y-84171369D01*
X124937346Y-84447702D01*
X125168278Y-84716790D01*
X125388252Y-84976445D01*
X125595314Y-85224476D01*
X125787510Y-85458692D01*
X125923718Y-85627718D01*
X125976353Y-85693586D01*
X126023831Y-85752924D01*
X126063794Y-85802792D01*
X126093884Y-85840250D01*
X126111745Y-85862357D01*
X126115496Y-85866902D01*
X126130127Y-85866523D01*
X126163156Y-85857872D01*
X126209477Y-85842475D01*
X126256837Y-85824692D01*
X126320186Y-85801167D01*
X126398785Y-85774109D01*
X126483303Y-85746624D01*
X126564409Y-85721819D01*
X126576302Y-85718348D01*
X126763182Y-85664225D01*
X126584921Y-85359506D01*
X126468649Y-85156527D01*
X126367627Y-84970535D01*
X126280875Y-84798896D01*
X126207411Y-84638978D01*
X126146254Y-84488147D01*
X126096423Y-84343770D01*
X126056937Y-84203215D01*
X126026814Y-84063847D01*
X126005075Y-83923034D01*
X125990737Y-83778142D01*
X125989553Y-83761603D01*
X125985473Y-83684580D01*
X125983425Y-83605974D01*
X125983506Y-83534386D01*
X125985813Y-83478418D01*
X125986288Y-83472663D01*
X125992309Y-83417550D01*
X125999887Y-83380876D01*
X126011183Y-83355624D01*
X126028358Y-83334777D01*
X126028939Y-83334194D01*
X126047969Y-83317354D01*
X126067988Y-83307585D01*
X126096227Y-83303180D01*
X126139913Y-83302434D01*
X126162141Y-83302756D01*
X126324303Y-83310084D01*
X126505006Y-83326062D01*
X126699166Y-83349851D01*
X126901693Y-83380609D01*
X127107502Y-83417499D01*
X127311505Y-83459679D01*
X127508615Y-83506311D01*
X127686106Y-83554332D01*
X128067526Y-83676885D01*
X128438341Y-83820520D01*
X128799441Y-83985770D01*
X129151719Y-84173168D01*
X129496066Y-84383248D01*
X129833373Y-84616542D01*
X130164532Y-84873585D01*
X130490435Y-85154909D01*
X130715608Y-85366269D01*
X130773707Y-85421630D01*
X130825199Y-85468787D01*
X130867386Y-85505417D01*
X130897573Y-85529194D01*
X130913061Y-85537796D01*
X130914236Y-85537412D01*
X130924988Y-85524591D01*
X130949436Y-85495042D01*
X130985137Y-85451730D01*
X131029646Y-85397622D01*
X131080520Y-85335686D01*
X131107295Y-85303057D01*
X131494918Y-84839156D01*
X131884040Y-84390541D01*
X132273326Y-83958618D01*
X132661442Y-83544797D01*
X133047053Y-83150485D01*
X133428827Y-82777090D01*
X133805429Y-82426021D01*
X133990325Y-82260225D01*
X134077006Y-82184336D01*
X134173499Y-82101249D01*
X134277814Y-82012582D01*
X134387958Y-81919948D01*
X134501940Y-81824964D01*
X134617766Y-81729246D01*
X134733446Y-81634408D01*
X134846988Y-81542067D01*
X134956399Y-81453837D01*
X135059688Y-81371335D01*
X135154862Y-81296176D01*
X135239930Y-81229976D01*
X135312900Y-81174350D01*
X135371780Y-81130914D01*
X135414577Y-81101283D01*
X135433155Y-81090016D01*
X135483990Y-81075871D01*
X135534086Y-81086178D01*
G37*
D11*
%TO.C,D3*%
X124955000Y-43565000D02*
X128045000Y-43565000D01*
X124955170Y-43565000D02*
G75*
G02*
X126499952Y-38015000I1544830J2560000D01*
G01*
X126500048Y-38015000D02*
G75*
G02*
X128044830Y-43565000I-48J-2990000D01*
G01*
X129000000Y-41004999D02*
G75*
G02*
X124000000Y-41004999I-2500000J0D01*
G01*
X124000000Y-41004999D02*
G75*
G02*
X129000000Y-41004999I2500000J0D01*
G01*
%TD*%
M02*
