%TF.GenerationSoftware,KiCad,Pcbnew,9.0.0*%
%TF.CreationDate,2025-04-08T13:38:04+08:00*%
%TF.ProjectId,project,70726f6a-6563-4742-9e6b-696361645f70,rev?*%
%TF.SameCoordinates,Original*%
%TF.FileFunction,Copper,L2,Bot*%
%TF.FilePolarity,Positive*%
%FSLAX46Y46*%
G04 Gerber Fmt 4.6, Leading zero omitted, Abs format (unit mm)*
G04 Created by KiCad (PCBNEW 9.0.0) date 2025-04-08 13:38:04*
%MOMM*%
%LPD*%
G01*
G04 APERTURE LIST*
%TA.AperFunction,ComponentPad*%
%ADD10R,1.800000X1.800000*%
%TD*%
%TA.AperFunction,ComponentPad*%
%ADD11C,1.800000*%
%TD*%
%TA.AperFunction,ComponentPad*%
%ADD12C,2.000000*%
%TD*%
%TA.AperFunction,ComponentPad*%
%ADD13C,1.600000*%
%TD*%
%TA.AperFunction,ComponentPad*%
%ADD14O,1.600000X1.600000*%
%TD*%
%TA.AperFunction,ComponentPad*%
%ADD15R,1.700000X1.700000*%
%TD*%
%TA.AperFunction,ComponentPad*%
%ADD16O,1.700000X1.700000*%
%TD*%
%TA.AperFunction,SMDPad,CuDef*%
%ADD17R,1.270000X5.080000*%
%TD*%
%TA.AperFunction,SMDPad,CuDef*%
%ADD18C,17.800000*%
%TD*%
%TA.AperFunction,ViaPad*%
%ADD19C,0.600000*%
%TD*%
%TA.AperFunction,Conductor*%
%ADD20C,0.400000*%
%TD*%
G04 APERTURE END LIST*
D10*
%TO.P,D2,1,K*%
%TO.N,Net-(D2-K)*%
X134275000Y-57000000D03*
D11*
%TO.P,D2,2,A*%
%TO.N,Net-(D2-A)*%
X131735000Y-57000000D03*
%TD*%
D12*
%TO.P,SW2,1,1*%
%TO.N,+3.3V*%
X122750000Y-68750000D03*
X129250000Y-68750000D03*
%TO.P,SW2,2,2*%
%TO.N,Net-(D2-A)*%
X122750000Y-73250000D03*
X129250000Y-73250000D03*
%TD*%
%TO.P,SW3,1,1*%
%TO.N,+3.3V*%
X135750000Y-62250000D03*
X142250000Y-62250000D03*
%TO.P,SW3,2,2*%
%TO.N,Net-(D3-A)*%
X135750000Y-66750000D03*
X142250000Y-66750000D03*
%TD*%
%TO.P,SW1,1,1*%
%TO.N,+3.3V*%
X108750000Y-62250000D03*
X115250000Y-62250000D03*
%TO.P,SW1,2,2*%
%TO.N,Net-(D1-A)*%
X108750000Y-66750000D03*
X115250000Y-66750000D03*
%TD*%
D10*
%TO.P,D1,1,K*%
%TO.N,Net-(D1-K)*%
X118725000Y-57000000D03*
D11*
%TO.P,D1,2,A*%
%TO.N,Net-(D1-A)*%
X121265000Y-57000000D03*
%TD*%
D10*
%TO.P,D3,1,K*%
%TO.N,Net-(D3-K)*%
X126500000Y-42275000D03*
D11*
%TO.P,D3,2,A*%
%TO.N,Net-(D3-A)*%
X126500000Y-39735000D03*
%TD*%
D13*
%TO.P,R1,1*%
%TO.N,Net-(D1-K)*%
X116190000Y-50500000D03*
D14*
%TO.P,R1,2*%
%TO.N,GND*%
X123810000Y-50500000D03*
%TD*%
D13*
%TO.P,R2,1*%
%TO.N,Net-(D2-K)*%
X129190000Y-50500000D03*
D14*
%TO.P,R2,2*%
%TO.N,Net-(J1-Pin_1)*%
X136810000Y-50500000D03*
%TD*%
D15*
%TO.P,J1,1,Pin_1*%
%TO.N,Net-(J1-Pin_1)*%
X125460000Y-47000000D03*
D16*
%TO.P,J1,2,Pin_2*%
%TO.N,GND*%
X128000000Y-47000000D03*
%TD*%
D17*
%TO.P,BT1,1,+*%
%TO.N,+3.3V*%
X118015000Y-94000000D03*
X139985000Y-94000000D03*
D18*
%TO.P,BT1,2,-*%
%TO.N,GND*%
X129000000Y-94000000D03*
%TD*%
D13*
%TO.P,R3,1*%
%TO.N,Net-(D3-K)*%
X145000000Y-41190000D03*
D14*
%TO.P,R3,2*%
%TO.N,GND*%
X145000000Y-48810000D03*
%TD*%
D19*
%TO.N,Net-(D1-A)*%
X117500000Y-66500000D03*
X119500000Y-64500000D03*
%TO.N,Net-(D2-A)*%
X132000000Y-68000000D03*
X131000000Y-63000000D03*
%TO.N,Net-(D3-A)*%
X130000000Y-41000000D03*
X131000000Y-44000000D03*
%TD*%
D20*
%TO.N,+3.3V*%
X137000000Y-76500000D02*
X129250000Y-68750000D01*
X120000000Y-71500000D02*
X122750000Y-68750000D01*
X119000000Y-86015000D02*
X119000000Y-84000000D01*
X119000000Y-84000000D02*
X120000000Y-83000000D01*
X139000000Y-83846399D02*
X138000000Y-82846399D01*
X137000000Y-81000000D02*
X137000000Y-76500000D01*
X118015000Y-87000000D02*
X119000000Y-86015000D01*
X138000000Y-82000000D02*
X137000000Y-81000000D01*
X139985000Y-87000000D02*
X139000000Y-86015000D01*
X139000000Y-86015000D02*
X139000000Y-83846399D01*
X118015000Y-87000000D02*
X118015000Y-94000000D01*
X120000000Y-83000000D02*
X120000000Y-71500000D01*
X138000000Y-82846399D02*
X138000000Y-82000000D01*
X139985000Y-87000000D02*
X139985000Y-94000000D01*
%TO.N,Net-(D1-A)*%
X117500000Y-66500000D02*
X119500000Y-64500000D01*
%TO.N,Net-(D2-A)*%
X132000000Y-68000000D02*
X132000000Y-64000000D01*
X132000000Y-64000000D02*
X131000000Y-63000000D01*
%TO.N,Net-(D3-A)*%
X131000000Y-42000000D02*
X130000000Y-41000000D01*
X131000000Y-44000000D02*
X131000000Y-42000000D01*
%TD*%
%TA.AperFunction,Conductor*%
%TO.N,GND*%
G36*
X148288792Y-29346875D02*
G01*
X148333091Y-29387051D01*
X148535666Y-29689197D01*
X148542450Y-29700589D01*
X149231969Y-31013325D01*
X149489312Y-31503268D01*
X149549974Y-31618758D01*
X149555931Y-31631906D01*
X149941921Y-32635484D01*
X149942291Y-32636458D01*
X150294680Y-33576161D01*
X150297117Y-33583316D01*
X150596267Y-34557967D01*
X150598160Y-34564832D01*
X150841268Y-35556711D01*
X150842232Y-35560964D01*
X151246148Y-37501731D01*
X151247453Y-37509115D01*
X151531503Y-39458283D01*
X151532468Y-39467116D01*
X151680106Y-41484838D01*
X151680332Y-41488778D01*
X151719010Y-42426698D01*
X151719060Y-42435507D01*
X151660686Y-44391027D01*
X151659642Y-44403798D01*
X151535128Y-45332865D01*
X151534605Y-45336386D01*
X151211214Y-47315928D01*
X151208524Y-47328351D01*
X150444935Y-50147759D01*
X150441174Y-50159354D01*
X150053689Y-51180044D01*
X150048457Y-51191914D01*
X149033441Y-53202611D01*
X149024307Y-53217875D01*
X147694975Y-55115544D01*
X147684154Y-55128912D01*
X145836497Y-57112712D01*
X145836496Y-57112711D01*
X145831971Y-57117568D01*
X145802405Y-57143196D01*
X145787261Y-57165574D01*
X145780699Y-57172621D01*
X145780694Y-57172628D01*
X145768842Y-57185353D01*
X145768836Y-57185360D01*
X145753594Y-57214070D01*
X145746777Y-57225405D01*
X145728551Y-57252342D01*
X145719714Y-57277883D01*
X145707042Y-57301752D01*
X145698261Y-57339886D01*
X145696096Y-57346146D01*
X145696095Y-57346152D01*
X145685464Y-57376881D01*
X145685464Y-57376883D01*
X145683539Y-57403839D01*
X145677476Y-57430176D01*
X145678865Y-57469291D01*
X145678393Y-57475903D01*
X145676077Y-57508331D01*
X145679372Y-57525415D01*
X145681537Y-57544487D01*
X145682155Y-57561879D01*
X145682156Y-57561884D01*
X145691681Y-57592972D01*
X145693624Y-57599314D01*
X145701034Y-57637732D01*
X145712842Y-57662034D01*
X145715664Y-57671242D01*
X145715665Y-57671245D01*
X145720760Y-57687876D01*
X145720761Y-57687877D01*
X145720762Y-57687880D01*
X145741524Y-57721062D01*
X145758630Y-57756264D01*
X145776329Y-57776685D01*
X145781436Y-57784846D01*
X145790664Y-57799594D01*
X145790665Y-57799595D01*
X145790666Y-57799596D01*
X145814461Y-57821758D01*
X145823641Y-57831271D01*
X145844942Y-57855849D01*
X145867326Y-57870995D01*
X145887102Y-57889414D01*
X145921669Y-57907766D01*
X145954088Y-57929703D01*
X145970532Y-57935392D01*
X145970531Y-57935392D01*
X145979632Y-57938540D01*
X146003498Y-57951212D01*
X146041640Y-57959993D01*
X146078626Y-57972789D01*
X146078629Y-57972790D01*
X146095984Y-57974028D01*
X146114964Y-57976873D01*
X146131922Y-57980778D01*
X146171037Y-57979388D01*
X146210079Y-57982176D01*
X146236613Y-57977058D01*
X146263624Y-57976099D01*
X146294730Y-57966567D01*
X146307542Y-57963378D01*
X148992564Y-57445552D01*
X149025453Y-57443667D01*
X149950446Y-57514142D01*
X149966765Y-57516487D01*
X150291005Y-57585352D01*
X150352492Y-57618534D01*
X150386278Y-57679692D01*
X150381637Y-57749407D01*
X150377830Y-57758609D01*
X150195374Y-58153930D01*
X150180805Y-58177918D01*
X148772299Y-59995652D01*
X148760226Y-60009084D01*
X147495035Y-61225613D01*
X147494268Y-61226345D01*
X146041399Y-62599604D01*
X146040332Y-62600611D01*
X145995736Y-62640865D01*
X145992561Y-62645765D01*
X145988313Y-62649781D01*
X145957547Y-62699763D01*
X145956029Y-62702168D01*
X145924092Y-62751479D01*
X145921629Y-62756658D01*
X145919230Y-62762019D01*
X145902458Y-62818230D01*
X145901613Y-62820950D01*
X145883522Y-62876860D01*
X145882471Y-62882567D01*
X145881554Y-62888289D01*
X145879899Y-62946989D01*
X145879786Y-62949829D01*
X145876785Y-63008474D01*
X145877248Y-63014273D01*
X145877842Y-63020024D01*
X145880886Y-63032814D01*
X145891769Y-63078544D01*
X145904341Y-63137342D01*
X145906999Y-63142544D01*
X145908353Y-63148232D01*
X145908354Y-63148235D01*
X145936271Y-63199894D01*
X145936956Y-63201161D01*
X145964312Y-63254690D01*
X145968226Y-63259026D01*
X145971005Y-63264168D01*
X145971004Y-63264168D01*
X146011343Y-63306846D01*
X146013276Y-63308939D01*
X147377016Y-64819844D01*
X147385027Y-64829688D01*
X148760314Y-66708602D01*
X148769541Y-66723255D01*
X149258546Y-67635438D01*
X149262380Y-67643236D01*
X149373815Y-67891431D01*
X149383317Y-67960651D01*
X149353886Y-68024020D01*
X149294868Y-68061418D01*
X149285466Y-68063720D01*
X145983798Y-68736877D01*
X145962225Y-68739336D01*
X144511164Y-68776782D01*
X144493713Y-68776001D01*
X143404646Y-68649993D01*
X143374921Y-68642755D01*
X142738036Y-68401178D01*
X142682335Y-68358997D01*
X142658282Y-68293398D01*
X142673512Y-68225209D01*
X142723191Y-68176078D01*
X142743689Y-68167309D01*
X142825992Y-68140568D01*
X143036433Y-68033343D01*
X143227510Y-67894517D01*
X143394517Y-67727510D01*
X143533343Y-67536433D01*
X143640568Y-67325992D01*
X143713553Y-67101368D01*
X143722779Y-67043118D01*
X143750500Y-66868097D01*
X143750500Y-66631902D01*
X143713553Y-66398631D01*
X143679689Y-66294412D01*
X143640568Y-66174008D01*
X143640566Y-66174005D01*
X143640566Y-66174003D01*
X143533342Y-65963566D01*
X143471329Y-65878213D01*
X143394517Y-65772490D01*
X143227510Y-65605483D01*
X143036433Y-65466657D01*
X142825996Y-65359433D01*
X142601368Y-65286446D01*
X142368097Y-65249500D01*
X142368092Y-65249500D01*
X142131908Y-65249500D01*
X142131903Y-65249500D01*
X141898631Y-65286446D01*
X141674003Y-65359433D01*
X141463566Y-65466657D01*
X141354550Y-65545862D01*
X141272490Y-65605483D01*
X141272488Y-65605485D01*
X141272487Y-65605485D01*
X141105485Y-65772487D01*
X141105485Y-65772488D01*
X141105483Y-65772490D01*
X141092321Y-65790606D01*
X140966657Y-65963566D01*
X140859433Y-66174003D01*
X140786446Y-66398631D01*
X140749500Y-66631902D01*
X140749500Y-66868097D01*
X140786446Y-67101368D01*
X140859433Y-67325996D01*
X140931104Y-67466657D01*
X140966657Y-67536433D01*
X141105483Y-67727510D01*
X141272490Y-67894517D01*
X141463567Y-68033343D01*
X141552864Y-68078842D01*
X141674003Y-68140566D01*
X141674005Y-68140566D01*
X141674008Y-68140568D01*
X141783296Y-68176078D01*
X141898631Y-68213553D01*
X141957544Y-68222884D01*
X142020679Y-68252813D01*
X142057610Y-68312125D01*
X142056612Y-68381987D01*
X142018002Y-68440220D01*
X141995767Y-68455156D01*
X138779760Y-70142854D01*
X138762373Y-70150346D01*
X137131428Y-70709799D01*
X137113680Y-70714452D01*
X135821599Y-70952707D01*
X135821600Y-70952708D01*
X135811178Y-70954630D01*
X135808276Y-70954433D01*
X135746409Y-70966573D01*
X135745704Y-70966704D01*
X135745703Y-70966703D01*
X135745703Y-70966704D01*
X135684205Y-70978044D01*
X135682317Y-70978680D01*
X135682316Y-70978679D01*
X135678968Y-70979806D01*
X135623009Y-71007223D01*
X135621735Y-71007838D01*
X135565440Y-71034626D01*
X135562494Y-71036535D01*
X135562470Y-71036552D01*
X135560793Y-71037638D01*
X135513660Y-71078758D01*
X135512590Y-71079681D01*
X135465149Y-71120125D01*
X135462821Y-71122707D01*
X135461448Y-71124228D01*
X135426527Y-71176201D01*
X135426127Y-71176795D01*
X135390412Y-71228662D01*
X135389440Y-71231396D01*
X135387815Y-71233816D01*
X135367629Y-71292782D01*
X135367630Y-71292783D01*
X135367383Y-71293503D01*
X135346308Y-71352846D01*
X135346077Y-71355742D01*
X135345134Y-71358498D01*
X135340902Y-71420628D01*
X135340798Y-71422038D01*
X135335848Y-71484220D01*
X135336030Y-71487764D01*
X135336031Y-71487769D01*
X135336132Y-71489744D01*
X135348173Y-71551100D01*
X135348438Y-71552489D01*
X135359749Y-71613826D01*
X135360831Y-71617166D01*
X135360849Y-71617221D01*
X135361451Y-71619080D01*
X135361557Y-71619296D01*
X135389294Y-71675907D01*
X135416373Y-71732813D01*
X135418257Y-71735024D01*
X135422919Y-71744538D01*
X135422923Y-71744545D01*
X136604248Y-74155609D01*
X136606635Y-74160780D01*
X137079923Y-75250777D01*
X137088568Y-75320110D01*
X137058357Y-75383110D01*
X136998881Y-75419775D01*
X136929023Y-75418465D01*
X136878502Y-75387845D01*
X130737480Y-69246823D01*
X130703995Y-69185500D01*
X130707231Y-69120824D01*
X130713553Y-69101368D01*
X130746918Y-68890710D01*
X130750500Y-68868097D01*
X130750500Y-68631902D01*
X130713553Y-68398631D01*
X130659964Y-68233704D01*
X130640568Y-68174008D01*
X130640566Y-68174005D01*
X130640566Y-68174003D01*
X130583201Y-68061418D01*
X130533343Y-67963567D01*
X130394517Y-67772490D01*
X130227510Y-67605483D01*
X130036433Y-67466657D01*
X129825996Y-67359433D01*
X129601368Y-67286446D01*
X129368097Y-67249500D01*
X129368092Y-67249500D01*
X129131908Y-67249500D01*
X129131903Y-67249500D01*
X128898631Y-67286446D01*
X128674003Y-67359433D01*
X128463566Y-67466657D01*
X128367529Y-67536433D01*
X128272490Y-67605483D01*
X128272488Y-67605485D01*
X128272487Y-67605485D01*
X128105485Y-67772487D01*
X128105485Y-67772488D01*
X128105483Y-67772490D01*
X128045862Y-67854550D01*
X127966657Y-67963566D01*
X127859433Y-68174003D01*
X127786446Y-68398631D01*
X127749500Y-68631902D01*
X127749500Y-68868097D01*
X127786446Y-69101368D01*
X127859433Y-69325996D01*
X127933835Y-69472017D01*
X127966657Y-69536433D01*
X128105483Y-69727510D01*
X128272490Y-69894517D01*
X128463567Y-70033343D01*
X128562991Y-70084002D01*
X128674003Y-70140566D01*
X128674005Y-70140566D01*
X128674008Y-70140568D01*
X128794412Y-70179689D01*
X128898631Y-70213553D01*
X129131903Y-70250500D01*
X129131908Y-70250500D01*
X129368097Y-70250500D01*
X129542533Y-70222871D01*
X129601368Y-70213553D01*
X129620824Y-70207230D01*
X129690661Y-70205234D01*
X129746823Y-70237480D01*
X136263181Y-76753838D01*
X136296666Y-76815161D01*
X136299500Y-76841519D01*
X136299500Y-80931006D01*
X136299500Y-81068994D01*
X136299500Y-81068996D01*
X136299499Y-81068996D01*
X136326418Y-81204322D01*
X136326421Y-81204332D01*
X136379222Y-81331807D01*
X136455887Y-81446545D01*
X136455888Y-81446546D01*
X137263181Y-82253838D01*
X137296666Y-82315161D01*
X137299500Y-82341519D01*
X137299500Y-82777405D01*
X137299500Y-82915393D01*
X137299500Y-82915395D01*
X137299499Y-82915395D01*
X137326418Y-83050721D01*
X137326421Y-83050731D01*
X137379222Y-83178206D01*
X137455887Y-83292944D01*
X137455888Y-83292945D01*
X138263181Y-84100237D01*
X138296666Y-84161560D01*
X138299500Y-84187918D01*
X138299500Y-85946006D01*
X138299500Y-86083994D01*
X138299500Y-86083996D01*
X138299499Y-86083996D01*
X138326418Y-86219322D01*
X138326421Y-86219332D01*
X138379222Y-86346807D01*
X138455887Y-86461545D01*
X138455888Y-86461546D01*
X139248181Y-87253837D01*
X139281666Y-87315160D01*
X139284500Y-87341518D01*
X139284500Y-90864154D01*
X139264815Y-90931193D01*
X139212011Y-90976948D01*
X139203834Y-90980336D01*
X139107669Y-91016203D01*
X139107664Y-91016206D01*
X138992455Y-91102452D01*
X138992452Y-91102455D01*
X138906206Y-91217664D01*
X138906202Y-91217671D01*
X138855908Y-91352517D01*
X138849501Y-91412116D01*
X138849501Y-91412123D01*
X138849500Y-91412135D01*
X138849500Y-96587870D01*
X138849501Y-96587876D01*
X138855908Y-96647483D01*
X138906202Y-96782328D01*
X138906206Y-96782335D01*
X138992452Y-96897544D01*
X138992455Y-96897547D01*
X139107664Y-96983793D01*
X139107671Y-96983797D01*
X139242517Y-97034091D01*
X139242516Y-97034091D01*
X139249444Y-97034835D01*
X139302127Y-97040500D01*
X140667872Y-97040499D01*
X140727483Y-97034091D01*
X140862331Y-96983796D01*
X140977546Y-96897546D01*
X141063796Y-96782331D01*
X141114091Y-96647483D01*
X141120500Y-96587873D01*
X141120499Y-91633911D01*
X141140184Y-91566873D01*
X141192988Y-91521118D01*
X141262146Y-91511174D01*
X141325702Y-91540199D01*
X141363476Y-91598977D01*
X141367017Y-91614796D01*
X141412102Y-91903752D01*
X141413141Y-91912397D01*
X141560683Y-93653389D01*
X141560890Y-93656220D01*
X141659482Y-95253422D01*
X141659710Y-95259653D01*
X141678694Y-96930296D01*
X141678804Y-96940010D01*
X141678336Y-96941906D01*
X141679552Y-97005844D01*
X141679559Y-97006380D01*
X141680317Y-97073073D01*
X141680993Y-97081429D01*
X141820803Y-104421393D01*
X141802398Y-104488795D01*
X141750475Y-104535547D01*
X141696825Y-104547754D01*
X114593248Y-104547754D01*
X114526209Y-104528069D01*
X114480454Y-104475265D01*
X114470510Y-104406107D01*
X114470569Y-104405705D01*
X114636271Y-103279416D01*
X114997577Y-100823579D01*
X122529972Y-100823579D01*
X122570793Y-100864400D01*
X123033514Y-101270196D01*
X123521774Y-101644851D01*
X124033486Y-101986766D01*
X124033511Y-101986782D01*
X124566496Y-102294501D01*
X125118472Y-102566705D01*
X125687067Y-102802225D01*
X125687078Y-102802229D01*
X126269852Y-103000055D01*
X126269860Y-103000057D01*
X126864345Y-103159349D01*
X126864363Y-103159353D01*
X127467952Y-103279414D01*
X127467963Y-103279416D01*
X128078139Y-103359747D01*
X128692287Y-103400000D01*
X129307713Y-103400000D01*
X129921860Y-103359747D01*
X130532036Y-103279416D01*
X130532047Y-103279414D01*
X131135636Y-103159353D01*
X131135654Y-103159349D01*
X131730139Y-103000057D01*
X131730147Y-103000055D01*
X132312921Y-102802229D01*
X132312932Y-102802225D01*
X132881527Y-102566705D01*
X133433503Y-102294501D01*
X133966488Y-101986782D01*
X133966513Y-101986766D01*
X134478225Y-101644851D01*
X134966485Y-101270196D01*
X135429207Y-100864400D01*
X135470027Y-100823579D01*
X129000000Y-94353553D01*
X122529972Y-100823579D01*
X114997577Y-100823579D01*
X116084352Y-93436655D01*
X116084695Y-93434465D01*
X116365142Y-91740334D01*
X117057606Y-87557279D01*
X117060940Y-87542681D01*
X117071501Y-87506630D01*
X117109239Y-87447828D01*
X117172776Y-87418763D01*
X117241941Y-87428663D01*
X117294773Y-87474385D01*
X117314500Y-87541412D01*
X117314500Y-90864154D01*
X117294815Y-90931193D01*
X117242011Y-90976948D01*
X117233834Y-90980336D01*
X117137669Y-91016203D01*
X117137664Y-91016206D01*
X117022455Y-91102452D01*
X117022452Y-91102455D01*
X116936206Y-91217664D01*
X116936202Y-91217671D01*
X116885908Y-91352517D01*
X116879501Y-91412116D01*
X116879501Y-91412123D01*
X116879500Y-91412135D01*
X116879500Y-96587870D01*
X116879501Y-96587876D01*
X116885908Y-96647483D01*
X116936202Y-96782328D01*
X116936206Y-96782335D01*
X117022452Y-96897544D01*
X117022455Y-96897547D01*
X117137664Y-96983793D01*
X117137671Y-96983797D01*
X117272517Y-97034091D01*
X117272516Y-97034091D01*
X117279444Y-97034835D01*
X117332127Y-97040500D01*
X118697872Y-97040499D01*
X118757483Y-97034091D01*
X118892331Y-96983796D01*
X119007546Y-96897546D01*
X119093796Y-96782331D01*
X119144091Y-96647483D01*
X119150500Y-96587873D01*
X119150499Y-93692287D01*
X119600000Y-93692287D01*
X119600000Y-94307712D01*
X119640252Y-94921860D01*
X119720583Y-95532036D01*
X119720585Y-95532047D01*
X119840646Y-96135636D01*
X119840650Y-96135654D01*
X119999942Y-96730139D01*
X119999944Y-96730147D01*
X120197770Y-97312921D01*
X120197774Y-97312932D01*
X120433294Y-97881527D01*
X120705498Y-98433503D01*
X121013217Y-98966488D01*
X121013233Y-98966513D01*
X121355148Y-99478225D01*
X121729803Y-99966485D01*
X122135606Y-100429214D01*
X122176419Y-100470027D01*
X128646446Y-94000000D01*
X128646446Y-93999999D01*
X129353553Y-93999999D01*
X129353553Y-94000000D01*
X135823579Y-100470027D01*
X135823580Y-100470027D01*
X135864400Y-100429207D01*
X136270196Y-99966485D01*
X136644851Y-99478225D01*
X136986766Y-98966513D01*
X136986782Y-98966488D01*
X137294501Y-98433503D01*
X137566705Y-97881527D01*
X137802225Y-97312932D01*
X137802229Y-97312921D01*
X138000055Y-96730147D01*
X138000057Y-96730139D01*
X138159349Y-96135654D01*
X138159353Y-96135636D01*
X138279414Y-95532047D01*
X138279416Y-95532036D01*
X138359747Y-94921860D01*
X138400000Y-94307712D01*
X138400000Y-93692287D01*
X138359747Y-93078139D01*
X138279416Y-92467963D01*
X138279414Y-92467952D01*
X138159353Y-91864363D01*
X138159349Y-91864345D01*
X138000057Y-91269860D01*
X138000055Y-91269852D01*
X137802229Y-90687078D01*
X137802225Y-90687067D01*
X137566705Y-90118472D01*
X137294501Y-89566496D01*
X136986782Y-89033511D01*
X136986766Y-89033486D01*
X136644851Y-88521774D01*
X136270196Y-88033514D01*
X135864393Y-87570785D01*
X135823580Y-87529972D01*
X129353553Y-93999999D01*
X128646446Y-93999999D01*
X122176419Y-87529972D01*
X122176418Y-87529972D01*
X122135628Y-87570762D01*
X122135601Y-87570791D01*
X121729803Y-88033514D01*
X121355148Y-88521774D01*
X121013233Y-89033486D01*
X121013217Y-89033511D01*
X120705498Y-89566496D01*
X120433294Y-90118472D01*
X120197774Y-90687067D01*
X120197770Y-90687078D01*
X119999944Y-91269852D01*
X119999942Y-91269860D01*
X119840650Y-91864345D01*
X119840646Y-91864363D01*
X119720585Y-92467952D01*
X119720583Y-92467963D01*
X119640252Y-93078139D01*
X119600000Y-93692287D01*
X119150499Y-93692287D01*
X119150499Y-91412128D01*
X119144091Y-91352517D01*
X119093796Y-91217669D01*
X119093795Y-91217668D01*
X119093793Y-91217664D01*
X119007547Y-91102455D01*
X119007544Y-91102452D01*
X118892335Y-91016206D01*
X118892330Y-91016203D01*
X118796166Y-90980336D01*
X118740233Y-90938464D01*
X118715816Y-90873000D01*
X118715500Y-90864154D01*
X118715500Y-87341518D01*
X118735185Y-87274479D01*
X118751819Y-87253837D01*
X118829239Y-87176417D01*
X122529972Y-87176417D01*
X122529972Y-87176418D01*
X128999999Y-93646446D01*
X135470027Y-87176419D01*
X135429214Y-87135606D01*
X134966485Y-86729803D01*
X134478225Y-86355148D01*
X133966513Y-86013233D01*
X133966488Y-86013217D01*
X133433503Y-85705498D01*
X132881527Y-85433294D01*
X132312932Y-85197774D01*
X132312921Y-85197770D01*
X131730147Y-84999944D01*
X131730139Y-84999942D01*
X131135654Y-84840650D01*
X131135636Y-84840646D01*
X130532047Y-84720585D01*
X130532036Y-84720583D01*
X129921860Y-84640252D01*
X129307713Y-84600000D01*
X128692287Y-84600000D01*
X128078139Y-84640252D01*
X127467963Y-84720583D01*
X127467952Y-84720585D01*
X126864363Y-84840646D01*
X126864345Y-84840650D01*
X126269860Y-84999942D01*
X126269852Y-84999944D01*
X125687078Y-85197770D01*
X125687067Y-85197774D01*
X125118472Y-85433294D01*
X124566496Y-85705498D01*
X124033511Y-86013217D01*
X124033486Y-86013233D01*
X123521774Y-86355148D01*
X123033514Y-86729803D01*
X122570791Y-87135601D01*
X122570762Y-87135628D01*
X122529972Y-87176417D01*
X118829239Y-87176417D01*
X119544107Y-86461549D01*
X119544113Y-86461543D01*
X119599117Y-86379225D01*
X119620775Y-86346811D01*
X119673580Y-86219328D01*
X119684227Y-86165804D01*
X119700500Y-86083995D01*
X119700500Y-84341519D01*
X119720185Y-84274480D01*
X119736819Y-84253838D01*
X120544112Y-83446545D01*
X120544114Y-83446543D01*
X120620775Y-83331811D01*
X120673580Y-83204328D01*
X120700500Y-83068994D01*
X120700500Y-82931006D01*
X120700500Y-73131902D01*
X121249500Y-73131902D01*
X121249500Y-73368097D01*
X121286446Y-73601368D01*
X121359433Y-73825996D01*
X121466657Y-74036433D01*
X121605483Y-74227510D01*
X121772490Y-74394517D01*
X121963567Y-74533343D01*
X122062991Y-74584002D01*
X122174003Y-74640566D01*
X122174005Y-74640566D01*
X122174008Y-74640568D01*
X122294412Y-74679689D01*
X122398631Y-74713553D01*
X122631903Y-74750500D01*
X122631908Y-74750500D01*
X122868097Y-74750500D01*
X123101368Y-74713553D01*
X123325992Y-74640568D01*
X123536433Y-74533343D01*
X123727510Y-74394517D01*
X123894517Y-74227510D01*
X124033343Y-74036433D01*
X124140568Y-73825992D01*
X124213553Y-73601368D01*
X124250500Y-73368097D01*
X124250500Y-73131902D01*
X127749500Y-73131902D01*
X127749500Y-73368097D01*
X127786446Y-73601368D01*
X127859433Y-73825996D01*
X127966657Y-74036433D01*
X128105483Y-74227510D01*
X128272490Y-74394517D01*
X128463567Y-74533343D01*
X128562991Y-74584002D01*
X128674003Y-74640566D01*
X128674005Y-74640566D01*
X128674008Y-74640568D01*
X128794412Y-74679689D01*
X128898631Y-74713553D01*
X129131903Y-74750500D01*
X129131908Y-74750500D01*
X129368097Y-74750500D01*
X129601368Y-74713553D01*
X129825992Y-74640568D01*
X130036433Y-74533343D01*
X130227510Y-74394517D01*
X130394517Y-74227510D01*
X130533343Y-74036433D01*
X130640568Y-73825992D01*
X130713553Y-73601368D01*
X130750500Y-73368097D01*
X130750500Y-73131902D01*
X130713553Y-72898631D01*
X130640566Y-72674003D01*
X130533342Y-72463566D01*
X130394517Y-72272490D01*
X130227510Y-72105483D01*
X130036433Y-71966657D01*
X129825996Y-71859433D01*
X129601368Y-71786446D01*
X129368097Y-71749500D01*
X129368092Y-71749500D01*
X129131908Y-71749500D01*
X129131903Y-71749500D01*
X128898631Y-71786446D01*
X128674003Y-71859433D01*
X128463566Y-71966657D01*
X128354550Y-72045862D01*
X128272490Y-72105483D01*
X128272488Y-72105485D01*
X128272487Y-72105485D01*
X128105485Y-72272487D01*
X128105485Y-72272488D01*
X128105483Y-72272490D01*
X128094583Y-72287493D01*
X127966657Y-72463566D01*
X127859433Y-72674003D01*
X127786446Y-72898631D01*
X127749500Y-73131902D01*
X124250500Y-73131902D01*
X124213553Y-72898631D01*
X124140566Y-72674003D01*
X124033342Y-72463566D01*
X123894517Y-72272490D01*
X123727510Y-72105483D01*
X123536433Y-71966657D01*
X123325996Y-71859433D01*
X123101368Y-71786446D01*
X122868097Y-71749500D01*
X122868092Y-71749500D01*
X122631908Y-71749500D01*
X122631903Y-71749500D01*
X122398631Y-71786446D01*
X122174003Y-71859433D01*
X121963566Y-71966657D01*
X121854550Y-72045862D01*
X121772490Y-72105483D01*
X121772488Y-72105485D01*
X121772487Y-72105485D01*
X121605485Y-72272487D01*
X121605485Y-72272488D01*
X121605483Y-72272490D01*
X121594583Y-72287493D01*
X121466657Y-72463566D01*
X121359433Y-72674003D01*
X121286446Y-72898631D01*
X121249500Y-73131902D01*
X120700500Y-73131902D01*
X120700500Y-71841518D01*
X120720185Y-71774479D01*
X120736814Y-71753842D01*
X122253177Y-70237478D01*
X122314498Y-70203995D01*
X122379175Y-70207230D01*
X122398632Y-70213553D01*
X122486110Y-70227408D01*
X122631903Y-70250500D01*
X122631908Y-70250500D01*
X122868097Y-70250500D01*
X123101368Y-70213553D01*
X123130784Y-70203995D01*
X123325992Y-70140568D01*
X123536433Y-70033343D01*
X123727510Y-69894517D01*
X123894517Y-69727510D01*
X124033343Y-69536433D01*
X124140568Y-69325992D01*
X124213553Y-69101368D01*
X124213554Y-69101360D01*
X124250500Y-68868097D01*
X124250500Y-68631902D01*
X124213553Y-68398631D01*
X124159964Y-68233704D01*
X124140568Y-68174008D01*
X124140566Y-68174005D01*
X124140566Y-68174003D01*
X124083201Y-68061418D01*
X124033343Y-67963567D01*
X123894517Y-67772490D01*
X123727510Y-67605483D01*
X123536433Y-67466657D01*
X123325996Y-67359433D01*
X123101368Y-67286446D01*
X122868097Y-67249500D01*
X122868092Y-67249500D01*
X122631908Y-67249500D01*
X122631903Y-67249500D01*
X122398631Y-67286446D01*
X122174003Y-67359433D01*
X121963566Y-67466657D01*
X121867529Y-67536433D01*
X121772490Y-67605483D01*
X121772488Y-67605485D01*
X121772487Y-67605485D01*
X121605485Y-67772487D01*
X121605485Y-67772488D01*
X121605483Y-67772490D01*
X121545862Y-67854550D01*
X121466657Y-67963566D01*
X121359433Y-68174003D01*
X121286446Y-68398631D01*
X121249500Y-68631902D01*
X121249500Y-68868097D01*
X121286447Y-69101369D01*
X121286447Y-69101372D01*
X121292768Y-69120824D01*
X121294763Y-69190665D01*
X121262518Y-69246823D01*
X119455887Y-71053454D01*
X119379222Y-71168192D01*
X119326421Y-71295667D01*
X119326418Y-71295679D01*
X119301056Y-71423184D01*
X119301055Y-71423189D01*
X119299500Y-71431004D01*
X119299500Y-75979799D01*
X119294533Y-75996711D01*
X119294593Y-76014335D01*
X119284895Y-76029537D01*
X119279815Y-76046838D01*
X119266496Y-76058378D01*
X119257016Y-76073240D01*
X119240636Y-76080786D01*
X119227011Y-76092593D01*
X119209566Y-76095101D01*
X119193558Y-76102477D01*
X119175701Y-76099970D01*
X119157853Y-76102537D01*
X119141716Y-76095200D01*
X119124366Y-76092765D01*
X119102652Y-76077439D01*
X119094611Y-76073783D01*
X119090206Y-76069992D01*
X119064802Y-76043613D01*
X119047296Y-76033061D01*
X119039372Y-76026241D01*
X119039207Y-76025987D01*
X119038408Y-76025402D01*
X119030903Y-76018807D01*
X119030899Y-76018804D01*
X118995148Y-76001127D01*
X118986098Y-75996174D01*
X118339631Y-75606523D01*
X118339630Y-75606522D01*
X118327466Y-75599190D01*
X118321325Y-75593229D01*
X118271175Y-75565260D01*
X118269359Y-75564166D01*
X118221931Y-75535580D01*
X118214486Y-75532331D01*
X118214687Y-75531869D01*
X118201303Y-75526293D01*
X117286006Y-75015839D01*
X117263163Y-74999451D01*
X116947484Y-74713553D01*
X116298556Y-74125844D01*
X116283192Y-74109122D01*
X115590750Y-73200855D01*
X115576476Y-73176988D01*
X115338778Y-72654054D01*
X115176250Y-72296494D01*
X115169547Y-72277960D01*
X114991859Y-71629397D01*
X114987828Y-71598385D01*
X114974521Y-71566113D01*
X114965300Y-71532454D01*
X114949513Y-71505462D01*
X114937593Y-71476551D01*
X114916390Y-71448826D01*
X114898769Y-71418697D01*
X114876533Y-71396709D01*
X114857537Y-71371870D01*
X114829880Y-71350577D01*
X114805062Y-71326036D01*
X114785347Y-71314800D01*
X114771102Y-71305323D01*
X114753120Y-71291479D01*
X114753111Y-71291474D01*
X114727976Y-71281014D01*
X114727976Y-71281015D01*
X114727973Y-71281014D01*
X114720889Y-71278066D01*
X114690565Y-71260785D01*
X114660314Y-71252861D01*
X114652393Y-71249565D01*
X114652391Y-71249563D01*
X113216955Y-70652268D01*
X113211193Y-70649697D01*
X111292208Y-69734039D01*
X111278156Y-69726175D01*
X110381436Y-69144853D01*
X109892278Y-68827744D01*
X109869591Y-68807931D01*
X109837216Y-68792048D01*
X109831012Y-68788026D01*
X109831011Y-68788025D01*
X109806970Y-68772440D01*
X109786751Y-68765888D01*
X109770367Y-68759254D01*
X109756645Y-68752523D01*
X109751276Y-68749889D01*
X109751274Y-68749888D01*
X109751273Y-68749888D01*
X109723147Y-68744354D01*
X109715893Y-68742926D01*
X109681601Y-68731815D01*
X109651528Y-68730262D01*
X109642827Y-68728550D01*
X109642825Y-68728549D01*
X109621972Y-68724447D01*
X109593374Y-68726382D01*
X109593371Y-68726382D01*
X109585993Y-68726880D01*
X109549992Y-68725023D01*
X109520542Y-68731306D01*
X109511704Y-68731904D01*
X109511699Y-68731905D01*
X109490487Y-68733340D01*
X109463356Y-68742611D01*
X109449146Y-68746540D01*
X109421114Y-68752523D01*
X109421103Y-68752527D01*
X109402161Y-68762196D01*
X109385889Y-68769088D01*
X107887173Y-69281308D01*
X107871389Y-69285564D01*
X106945882Y-69470665D01*
X106932255Y-69472611D01*
X105966584Y-69556178D01*
X105950784Y-69556535D01*
X105070055Y-69520216D01*
X105050610Y-69517866D01*
X104196652Y-69345350D01*
X104163569Y-69333595D01*
X104026177Y-69261464D01*
X103975972Y-69212874D01*
X103960006Y-69144853D01*
X103977287Y-69088215D01*
X104162213Y-68777804D01*
X104169710Y-68766646D01*
X104173184Y-68762034D01*
X104173193Y-68762026D01*
X104202862Y-68709575D01*
X104233704Y-68657805D01*
X104235260Y-68652300D01*
X104733129Y-67772137D01*
X104747865Y-67751504D01*
X104748187Y-67751026D01*
X104748193Y-67751020D01*
X104770531Y-67706341D01*
X104773478Y-67700806D01*
X104798076Y-67657322D01*
X104798078Y-67657315D01*
X104798284Y-67656805D01*
X104807183Y-67633037D01*
X105254309Y-66738788D01*
X105262817Y-66728084D01*
X105283692Y-66680022D01*
X105307129Y-66633149D01*
X105307276Y-66632427D01*
X105307442Y-66631902D01*
X107249500Y-66631902D01*
X107249500Y-66868097D01*
X107286446Y-67101368D01*
X107359433Y-67325996D01*
X107431104Y-67466657D01*
X107466657Y-67536433D01*
X107605483Y-67727510D01*
X107772490Y-67894517D01*
X107963567Y-68033343D01*
X108052864Y-68078842D01*
X108174003Y-68140566D01*
X108174005Y-68140566D01*
X108174008Y-68140568D01*
X108283296Y-68176078D01*
X108398631Y-68213553D01*
X108631903Y-68250500D01*
X108631908Y-68250500D01*
X108868097Y-68250500D01*
X109101368Y-68213553D01*
X109192559Y-68183923D01*
X109325992Y-68140568D01*
X109536433Y-68033343D01*
X109727510Y-67894517D01*
X109894517Y-67727510D01*
X110033343Y-67536433D01*
X110140568Y-67325992D01*
X110213553Y-67101368D01*
X110222779Y-67043118D01*
X110250500Y-66868097D01*
X110250500Y-66631902D01*
X113749500Y-66631902D01*
X113749500Y-66868097D01*
X113786446Y-67101368D01*
X113859433Y-67325996D01*
X113931104Y-67466657D01*
X113966657Y-67536433D01*
X114105483Y-67727510D01*
X114272490Y-67894517D01*
X114463567Y-68033343D01*
X114552864Y-68078842D01*
X114674003Y-68140566D01*
X114674005Y-68140566D01*
X114674008Y-68140568D01*
X114783296Y-68176078D01*
X114898631Y-68213553D01*
X115131903Y-68250500D01*
X115131908Y-68250500D01*
X115368097Y-68250500D01*
X115601368Y-68213553D01*
X115692559Y-68183923D01*
X115825992Y-68140568D01*
X116036433Y-68033343D01*
X116227510Y-67894517D01*
X116394517Y-67727510D01*
X116533343Y-67536433D01*
X116640568Y-67325992D01*
X116713553Y-67101368D01*
X116713740Y-67100793D01*
X116753178Y-67043118D01*
X116817537Y-67015920D01*
X116886383Y-67027835D01*
X116919352Y-67051431D01*
X116989707Y-67121786D01*
X116989711Y-67121789D01*
X117120814Y-67209390D01*
X117120827Y-67209397D01*
X117266498Y-67269735D01*
X117266503Y-67269737D01*
X117421153Y-67300499D01*
X117421156Y-67300500D01*
X117421158Y-67300500D01*
X117578844Y-67300500D01*
X117578845Y-67300499D01*
X117733497Y-67269737D01*
X117879179Y-67209394D01*
X118010289Y-67121789D01*
X118121789Y-67010289D01*
X118209394Y-66879179D01*
X118209395Y-66879176D01*
X118209397Y-66879173D01*
X118269192Y-66734812D01*
X118296069Y-66694586D01*
X119694586Y-65296069D01*
X119734810Y-65269192D01*
X119789435Y-65246566D01*
X119879173Y-65209397D01*
X119879176Y-65209395D01*
X119879179Y-65209394D01*
X120010289Y-65121789D01*
X120121789Y-65010289D01*
X120209394Y-64879179D01*
X120269737Y-64733497D01*
X120300500Y-64578842D01*
X120300500Y-64421158D01*
X120300500Y-64421155D01*
X120300499Y-64421153D01*
X120280195Y-64319079D01*
X120269737Y-64266503D01*
X120218675Y-64143227D01*
X120209397Y-64120827D01*
X120209390Y-64120814D01*
X120121789Y-63989711D01*
X120121786Y-63989707D01*
X120010292Y-63878213D01*
X120010288Y-63878210D01*
X119879185Y-63790609D01*
X119879172Y-63790602D01*
X119733501Y-63730264D01*
X119733489Y-63730261D01*
X119578845Y-63699500D01*
X119578842Y-63699500D01*
X119421158Y-63699500D01*
X119421155Y-63699500D01*
X119266510Y-63730261D01*
X119266498Y-63730264D01*
X119120827Y-63790602D01*
X119120814Y-63790609D01*
X118989711Y-63878210D01*
X118989707Y-63878213D01*
X118878213Y-63989707D01*
X118878210Y-63989711D01*
X118790609Y-64120814D01*
X118790604Y-64120823D01*
X118730809Y-64265184D01*
X118703929Y-64305412D01*
X117305412Y-65703929D01*
X117265184Y-65730809D01*
X117120823Y-65790604D01*
X117120814Y-65790609D01*
X116989711Y-65878210D01*
X116989707Y-65878213D01*
X116878213Y-65989707D01*
X116878210Y-65989711D01*
X116807644Y-66095320D01*
X116754031Y-66140125D01*
X116684706Y-66148832D01*
X116621679Y-66118677D01*
X116594057Y-66082724D01*
X116533342Y-65963566D01*
X116471329Y-65878213D01*
X116394517Y-65772490D01*
X116227510Y-65605483D01*
X116036433Y-65466657D01*
X115825996Y-65359433D01*
X115601368Y-65286446D01*
X115368097Y-65249500D01*
X115368092Y-65249500D01*
X115131908Y-65249500D01*
X115131903Y-65249500D01*
X114898631Y-65286446D01*
X114674003Y-65359433D01*
X114463566Y-65466657D01*
X114354550Y-65545862D01*
X114272490Y-65605483D01*
X114272488Y-65605485D01*
X114272487Y-65605485D01*
X114105485Y-65772487D01*
X114105485Y-65772488D01*
X114105483Y-65772490D01*
X114092321Y-65790606D01*
X113966657Y-65963566D01*
X113859433Y-66174003D01*
X113786446Y-66398631D01*
X113749500Y-66631902D01*
X110250500Y-66631902D01*
X110213553Y-66398631D01*
X110179689Y-66294412D01*
X110140568Y-66174008D01*
X110140566Y-66174005D01*
X110140566Y-66174003D01*
X110033342Y-65963566D01*
X109971329Y-65878213D01*
X109894517Y-65772490D01*
X109727510Y-65605483D01*
X109536433Y-65466657D01*
X109325996Y-65359433D01*
X109101368Y-65286446D01*
X108868097Y-65249500D01*
X108868092Y-65249500D01*
X108631908Y-65249500D01*
X108631903Y-65249500D01*
X108398631Y-65286446D01*
X108174003Y-65359433D01*
X107963566Y-65466657D01*
X107854550Y-65545862D01*
X107772490Y-65605483D01*
X107772488Y-65605485D01*
X107772487Y-65605485D01*
X107605485Y-65772487D01*
X107605485Y-65772488D01*
X107605483Y-65772490D01*
X107592321Y-65790606D01*
X107466657Y-65963566D01*
X107359433Y-66174003D01*
X107286446Y-66398631D01*
X107249500Y-66631902D01*
X105307442Y-66631902D01*
X105315020Y-66607892D01*
X106132831Y-64725025D01*
X106140210Y-64710674D01*
X106153141Y-64689109D01*
X106159952Y-64665267D01*
X106165439Y-64649952D01*
X106175318Y-64627210D01*
X106179024Y-64602344D01*
X106182440Y-64586559D01*
X106184644Y-64578846D01*
X106523602Y-63392492D01*
X106538057Y-63357261D01*
X106541628Y-63329401D01*
X106549345Y-63302395D01*
X106549859Y-63271202D01*
X106550848Y-63257492D01*
X106554816Y-63226546D01*
X106551055Y-63198711D01*
X106551519Y-63170629D01*
X106542271Y-63133688D01*
X106537173Y-63095949D01*
X106529947Y-63078671D01*
X106524064Y-63060960D01*
X106519516Y-63042790D01*
X106519514Y-63042787D01*
X106519514Y-63042785D01*
X106504365Y-63015517D01*
X106501017Y-63009492D01*
X106486329Y-62974367D01*
X106469158Y-62952145D01*
X106455516Y-62927589D01*
X106433823Y-62905167D01*
X106429030Y-62900213D01*
X106405752Y-62870088D01*
X106383413Y-62853066D01*
X106363881Y-62832879D01*
X106343985Y-62820950D01*
X106337122Y-62816835D01*
X106331212Y-62813291D01*
X106300929Y-62790217D01*
X106274949Y-62779557D01*
X106266922Y-62774745D01*
X106266916Y-62774742D01*
X106250854Y-62765112D01*
X106250850Y-62765110D01*
X106220861Y-62756543D01*
X106207860Y-62752035D01*
X104964061Y-62241757D01*
X104748221Y-62153207D01*
X104722785Y-62139082D01*
X104712823Y-62131902D01*
X107249500Y-62131902D01*
X107249500Y-62368097D01*
X107286446Y-62601368D01*
X107359433Y-62825996D01*
X107455366Y-63014273D01*
X107466657Y-63036433D01*
X107605483Y-63227510D01*
X107772490Y-63394517D01*
X107963567Y-63533343D01*
X108062991Y-63584002D01*
X108174003Y-63640566D01*
X108174005Y-63640566D01*
X108174008Y-63640568D01*
X108259023Y-63668191D01*
X108398631Y-63713553D01*
X108631903Y-63750500D01*
X108631908Y-63750500D01*
X108868097Y-63750500D01*
X109101368Y-63713553D01*
X109114180Y-63709390D01*
X109325992Y-63640568D01*
X109536433Y-63533343D01*
X109727510Y-63394517D01*
X109894517Y-63227510D01*
X110033343Y-63036433D01*
X110140568Y-62825992D01*
X110213553Y-62601368D01*
X110231238Y-62489711D01*
X110250500Y-62368097D01*
X110250500Y-62131902D01*
X113749500Y-62131902D01*
X113749500Y-62368097D01*
X113786446Y-62601368D01*
X113859433Y-62825996D01*
X113955366Y-63014273D01*
X113966657Y-63036433D01*
X114105483Y-63227510D01*
X114272490Y-63394517D01*
X114463567Y-63533343D01*
X114562991Y-63584002D01*
X114674003Y-63640566D01*
X114674005Y-63640566D01*
X114674008Y-63640568D01*
X114759023Y-63668191D01*
X114898631Y-63713553D01*
X115131903Y-63750500D01*
X115131908Y-63750500D01*
X115368097Y-63750500D01*
X115601368Y-63713553D01*
X115614180Y-63709390D01*
X115825992Y-63640568D01*
X116036433Y-63533343D01*
X116227510Y-63394517D01*
X116394517Y-63227510D01*
X116533343Y-63036433D01*
X116592081Y-62921153D01*
X130199500Y-62921153D01*
X130199500Y-63078846D01*
X130230261Y-63233489D01*
X130230264Y-63233501D01*
X130290602Y-63379172D01*
X130290609Y-63379185D01*
X130378210Y-63510288D01*
X130378213Y-63510292D01*
X130489707Y-63621786D01*
X130489711Y-63621789D01*
X130620814Y-63709390D01*
X130620827Y-63709397D01*
X130765185Y-63769191D01*
X130805414Y-63796071D01*
X131263181Y-64253838D01*
X131296666Y-64315161D01*
X131299500Y-64341519D01*
X131299500Y-67574684D01*
X131290061Y-67622136D01*
X131230264Y-67766498D01*
X131230261Y-67766510D01*
X131199500Y-67921153D01*
X131199500Y-68078846D01*
X131230261Y-68233489D01*
X131230264Y-68233501D01*
X131290602Y-68379172D01*
X131290609Y-68379185D01*
X131378210Y-68510288D01*
X131378213Y-68510292D01*
X131489707Y-68621786D01*
X131489711Y-68621789D01*
X131620814Y-68709390D01*
X131620827Y-68709397D01*
X131764936Y-68769088D01*
X131766503Y-68769737D01*
X131921153Y-68800499D01*
X131921156Y-68800500D01*
X131921158Y-68800500D01*
X132078844Y-68800500D01*
X132078845Y-68800499D01*
X132233497Y-68769737D01*
X132346166Y-68723067D01*
X132379172Y-68709397D01*
X132379172Y-68709396D01*
X132379179Y-68709394D01*
X132510289Y-68621789D01*
X132621789Y-68510289D01*
X132709394Y-68379179D01*
X132769737Y-68233497D01*
X132800500Y-68078842D01*
X132800500Y-67921158D01*
X132800500Y-67921155D01*
X132800499Y-67921153D01*
X132770927Y-67772487D01*
X132769737Y-67766503D01*
X132744831Y-67706373D01*
X132709939Y-67622136D01*
X132700500Y-67574684D01*
X132700500Y-66631902D01*
X134249500Y-66631902D01*
X134249500Y-66868097D01*
X134286446Y-67101368D01*
X134359433Y-67325996D01*
X134431104Y-67466657D01*
X134466657Y-67536433D01*
X134605483Y-67727510D01*
X134772490Y-67894517D01*
X134963567Y-68033343D01*
X135052864Y-68078842D01*
X135174003Y-68140566D01*
X135174005Y-68140566D01*
X135174008Y-68140568D01*
X135283296Y-68176078D01*
X135398631Y-68213553D01*
X135631903Y-68250500D01*
X135631908Y-68250500D01*
X135868097Y-68250500D01*
X136101368Y-68213553D01*
X136192559Y-68183923D01*
X136325992Y-68140568D01*
X136536433Y-68033343D01*
X136727510Y-67894517D01*
X136894517Y-67727510D01*
X137033343Y-67536433D01*
X137140568Y-67325992D01*
X137213553Y-67101368D01*
X137222779Y-67043118D01*
X137250500Y-66868097D01*
X137250500Y-66631902D01*
X137213553Y-66398631D01*
X137179689Y-66294412D01*
X137140568Y-66174008D01*
X137140566Y-66174005D01*
X137140566Y-66174003D01*
X137033342Y-65963566D01*
X136971329Y-65878213D01*
X136894517Y-65772490D01*
X136727510Y-65605483D01*
X136536433Y-65466657D01*
X136325996Y-65359433D01*
X136101368Y-65286446D01*
X135868097Y-65249500D01*
X135868092Y-65249500D01*
X135631908Y-65249500D01*
X135631903Y-65249500D01*
X135398631Y-65286446D01*
X135174003Y-65359433D01*
X134963566Y-65466657D01*
X134854550Y-65545862D01*
X134772490Y-65605483D01*
X134772488Y-65605485D01*
X134772487Y-65605485D01*
X134605485Y-65772487D01*
X134605485Y-65772488D01*
X134605483Y-65772490D01*
X134592321Y-65790606D01*
X134466657Y-65963566D01*
X134359433Y-66174003D01*
X134286446Y-66398631D01*
X134249500Y-66631902D01*
X132700500Y-66631902D01*
X132700500Y-63931004D01*
X132673581Y-63795677D01*
X132673580Y-63795676D01*
X132673580Y-63795672D01*
X132664131Y-63772859D01*
X132620776Y-63668191D01*
X132602319Y-63640568D01*
X132592252Y-63625501D01*
X132544114Y-63553457D01*
X132544112Y-63553454D01*
X132544111Y-63553453D01*
X131796071Y-62805414D01*
X131769191Y-62765185D01*
X131709397Y-62620827D01*
X131709390Y-62620814D01*
X131621789Y-62489711D01*
X131621786Y-62489707D01*
X131510292Y-62378213D01*
X131510288Y-62378210D01*
X131379185Y-62290609D01*
X131379172Y-62290602D01*
X131260861Y-62241597D01*
X131233501Y-62230264D01*
X131233489Y-62230261D01*
X131078845Y-62199500D01*
X131078842Y-62199500D01*
X130921158Y-62199500D01*
X130921155Y-62199500D01*
X130766510Y-62230261D01*
X130766498Y-62230264D01*
X130620827Y-62290602D01*
X130620814Y-62290609D01*
X130489711Y-62378210D01*
X130489707Y-62378213D01*
X130378213Y-62489707D01*
X130378210Y-62489711D01*
X130290609Y-62620814D01*
X130290602Y-62620827D01*
X130230264Y-62766498D01*
X130230261Y-62766510D01*
X130199500Y-62921153D01*
X116592081Y-62921153D01*
X116640568Y-62825992D01*
X116713553Y-62601368D01*
X116731238Y-62489711D01*
X116750500Y-62368097D01*
X116750500Y-62131902D01*
X134249500Y-62131902D01*
X134249500Y-62368097D01*
X134286446Y-62601368D01*
X134359433Y-62825996D01*
X134455366Y-63014273D01*
X134466657Y-63036433D01*
X134605483Y-63227510D01*
X134772490Y-63394517D01*
X134963567Y-63533343D01*
X135062991Y-63584002D01*
X135174003Y-63640566D01*
X135174005Y-63640566D01*
X135174008Y-63640568D01*
X135259023Y-63668191D01*
X135398631Y-63713553D01*
X135631903Y-63750500D01*
X135631908Y-63750500D01*
X135868097Y-63750500D01*
X136101368Y-63713553D01*
X136114180Y-63709390D01*
X136325992Y-63640568D01*
X136536433Y-63533343D01*
X136727510Y-63394517D01*
X136894517Y-63227510D01*
X137033343Y-63036433D01*
X137140568Y-62825992D01*
X137213553Y-62601368D01*
X137231238Y-62489711D01*
X137250500Y-62368097D01*
X137250500Y-62131902D01*
X140749500Y-62131902D01*
X140749500Y-62368097D01*
X140786446Y-62601368D01*
X140859433Y-62825996D01*
X140955366Y-63014273D01*
X140966657Y-63036433D01*
X141105483Y-63227510D01*
X141272490Y-63394517D01*
X141463567Y-63533343D01*
X141562991Y-63584002D01*
X141674003Y-63640566D01*
X141674005Y-63640566D01*
X141674008Y-63640568D01*
X141759023Y-63668191D01*
X141898631Y-63713553D01*
X142131903Y-63750500D01*
X142131908Y-63750500D01*
X142368097Y-63750500D01*
X142601368Y-63713553D01*
X142614180Y-63709390D01*
X142825992Y-63640568D01*
X143036433Y-63533343D01*
X143227510Y-63394517D01*
X143394517Y-63227510D01*
X143533343Y-63036433D01*
X143640568Y-62825992D01*
X143713553Y-62601368D01*
X143731238Y-62489711D01*
X143750500Y-62368097D01*
X143750500Y-62131902D01*
X143713553Y-61898631D01*
X143640566Y-61674003D01*
X143533342Y-61463566D01*
X143394517Y-61272490D01*
X143227510Y-61105483D01*
X143036433Y-60966657D01*
X142825996Y-60859433D01*
X142601368Y-60786446D01*
X142368097Y-60749500D01*
X142368092Y-60749500D01*
X142131908Y-60749500D01*
X142131903Y-60749500D01*
X141898631Y-60786446D01*
X141674003Y-60859433D01*
X141463566Y-60966657D01*
X141357117Y-61043998D01*
X141272490Y-61105483D01*
X141272488Y-61105485D01*
X141272487Y-61105485D01*
X141105485Y-61272487D01*
X141105485Y-61272488D01*
X141105483Y-61272490D01*
X141045862Y-61354550D01*
X140966657Y-61463566D01*
X140859433Y-61674003D01*
X140786446Y-61898631D01*
X140749500Y-62131902D01*
X137250500Y-62131902D01*
X137213553Y-61898631D01*
X137140566Y-61674003D01*
X137033342Y-61463566D01*
X136894517Y-61272490D01*
X136727510Y-61105483D01*
X136536433Y-60966657D01*
X136325996Y-60859433D01*
X136101368Y-60786446D01*
X135868097Y-60749500D01*
X135868092Y-60749500D01*
X135631908Y-60749500D01*
X135631903Y-60749500D01*
X135398631Y-60786446D01*
X135174003Y-60859433D01*
X134963566Y-60966657D01*
X134857117Y-61043998D01*
X134772490Y-61105483D01*
X134772488Y-61105485D01*
X134772487Y-61105485D01*
X134605485Y-61272487D01*
X134605485Y-61272488D01*
X134605483Y-61272490D01*
X134545862Y-61354550D01*
X134466657Y-61463566D01*
X134359433Y-61674003D01*
X134286446Y-61898631D01*
X134249500Y-62131902D01*
X116750500Y-62131902D01*
X116713553Y-61898631D01*
X116640566Y-61674003D01*
X116533342Y-61463566D01*
X116394517Y-61272490D01*
X116227510Y-61105483D01*
X116036433Y-60966657D01*
X115825996Y-60859433D01*
X115601368Y-60786446D01*
X115368097Y-60749500D01*
X115368092Y-60749500D01*
X115131908Y-60749500D01*
X115131903Y-60749500D01*
X114898631Y-60786446D01*
X114674003Y-60859433D01*
X114463566Y-60966657D01*
X114357117Y-61043998D01*
X114272490Y-61105483D01*
X114272488Y-61105485D01*
X114272487Y-61105485D01*
X114105485Y-61272487D01*
X114105485Y-61272488D01*
X114105483Y-61272490D01*
X114045862Y-61354550D01*
X113966657Y-61463566D01*
X113859433Y-61674003D01*
X113786446Y-61898631D01*
X113749500Y-62131902D01*
X110250500Y-62131902D01*
X110213553Y-61898631D01*
X110140566Y-61674003D01*
X110033342Y-61463566D01*
X109894517Y-61272490D01*
X109727510Y-61105483D01*
X109536433Y-60966657D01*
X109325996Y-60859433D01*
X109101368Y-60786446D01*
X108868097Y-60749500D01*
X108868092Y-60749500D01*
X108631908Y-60749500D01*
X108631903Y-60749500D01*
X108398631Y-60786446D01*
X108174003Y-60859433D01*
X107963566Y-60966657D01*
X107857117Y-61043998D01*
X107772490Y-61105483D01*
X107772488Y-61105485D01*
X107772487Y-61105485D01*
X107605485Y-61272487D01*
X107605485Y-61272488D01*
X107605483Y-61272490D01*
X107545862Y-61354550D01*
X107466657Y-61463566D01*
X107359433Y-61674003D01*
X107286446Y-61898631D01*
X107249500Y-62131902D01*
X104712823Y-62131902D01*
X103718252Y-61415095D01*
X103701448Y-61400526D01*
X102749331Y-60412138D01*
X102729614Y-60385190D01*
X102058935Y-59147546D01*
X101838688Y-58741110D01*
X101827217Y-58711305D01*
X101748017Y-58385186D01*
X101751324Y-58315397D01*
X101791838Y-58258473D01*
X101856697Y-58232489D01*
X101897658Y-58235398D01*
X103300643Y-58574645D01*
X103321723Y-58583766D01*
X103364443Y-58590072D01*
X103406414Y-58600221D01*
X103418751Y-58599917D01*
X103439882Y-58601208D01*
X105446748Y-58897459D01*
X105470848Y-58905138D01*
X105511665Y-58907042D01*
X105552095Y-58913011D01*
X105567243Y-58911257D01*
X105587260Y-58910570D01*
X107003864Y-58976678D01*
X107036403Y-58982521D01*
X107069409Y-58979737D01*
X107102489Y-58981281D01*
X107126844Y-58975958D01*
X107142873Y-58973541D01*
X107868156Y-58912373D01*
X107869896Y-58912673D01*
X107933897Y-58906828D01*
X107997721Y-58901446D01*
X107997726Y-58901444D01*
X107997810Y-58901437D01*
X107999187Y-58901127D01*
X107999206Y-58901123D01*
X108001120Y-58900690D01*
X108001134Y-58900689D01*
X108061342Y-58878515D01*
X108121698Y-58856761D01*
X108121706Y-58856754D01*
X108123476Y-58855841D01*
X108123499Y-58855829D01*
X108124731Y-58855191D01*
X108124794Y-58855146D01*
X108124798Y-58855145D01*
X108176958Y-58818325D01*
X108177408Y-58818010D01*
X108229885Y-58781511D01*
X108229895Y-58781498D01*
X108231475Y-58780061D01*
X108231492Y-58780045D01*
X108232416Y-58779203D01*
X108273249Y-58730163D01*
X108273249Y-58730162D01*
X108273507Y-58729853D01*
X108314910Y-58680823D01*
X108315658Y-58679229D01*
X108316785Y-58677877D01*
X108316785Y-58677875D01*
X108316787Y-58677874D01*
X108343646Y-58619698D01*
X108370978Y-58561561D01*
X108371286Y-58559837D01*
X108372024Y-58558240D01*
X108372025Y-58558229D01*
X108372027Y-58558227D01*
X108382877Y-58495293D01*
X108382959Y-58494827D01*
X108394267Y-58431851D01*
X108394265Y-58431837D01*
X108394373Y-58429567D01*
X108394374Y-58429563D01*
X108394426Y-58428438D01*
X108394419Y-58428358D01*
X108388574Y-58364349D01*
X108383192Y-58300534D01*
X108382597Y-58298886D01*
X108382437Y-58297125D01*
X108360425Y-58237357D01*
X108360129Y-58236547D01*
X108346168Y-58197812D01*
X108338507Y-58176556D01*
X108338505Y-58176554D01*
X108338505Y-58176552D01*
X108337690Y-58174973D01*
X108337604Y-58174808D01*
X108336943Y-58173529D01*
X108300192Y-58121465D01*
X108299699Y-58120762D01*
X108261156Y-58065348D01*
X108256397Y-58059423D01*
X106839489Y-56052135D01*
X117324500Y-56052135D01*
X117324500Y-57947870D01*
X117324501Y-57947876D01*
X117330908Y-58007483D01*
X117381202Y-58142328D01*
X117381206Y-58142335D01*
X117467452Y-58257544D01*
X117467455Y-58257547D01*
X117582664Y-58343793D01*
X117582671Y-58343797D01*
X117717517Y-58394091D01*
X117717516Y-58394091D01*
X117724444Y-58394835D01*
X117777127Y-58400500D01*
X119672872Y-58400499D01*
X119732483Y-58394091D01*
X119867331Y-58343796D01*
X119982546Y-58257546D01*
X120068796Y-58142331D01*
X120096429Y-58068243D01*
X120098601Y-58062420D01*
X120140471Y-58006486D01*
X120205936Y-57982068D01*
X120274209Y-57996919D01*
X120302464Y-58018071D01*
X120352636Y-58068243D01*
X120352641Y-58068247D01*
X120497551Y-58173529D01*
X120530978Y-58197815D01*
X120650025Y-58258473D01*
X120727393Y-58297895D01*
X120727396Y-58297896D01*
X120781260Y-58315397D01*
X120937049Y-58366015D01*
X121154778Y-58400500D01*
X121154779Y-58400500D01*
X121375221Y-58400500D01*
X121375222Y-58400500D01*
X121592951Y-58366015D01*
X121802606Y-58297895D01*
X121999022Y-58197815D01*
X122177365Y-58068242D01*
X122333242Y-57912365D01*
X122462815Y-57734022D01*
X122562895Y-57537606D01*
X122631015Y-57327951D01*
X122665500Y-57110222D01*
X122665500Y-56889778D01*
X130334500Y-56889778D01*
X130334500Y-57110222D01*
X130335323Y-57115419D01*
X130368985Y-57327952D01*
X130437103Y-57537603D01*
X130437104Y-57537606D01*
X130500505Y-57662035D01*
X130530581Y-57721062D01*
X130537187Y-57734025D01*
X130666752Y-57912358D01*
X130666756Y-57912363D01*
X130822636Y-58068243D01*
X130822641Y-58068247D01*
X130967551Y-58173529D01*
X131000978Y-58197815D01*
X131120025Y-58258473D01*
X131197393Y-58297895D01*
X131197396Y-58297896D01*
X131251260Y-58315397D01*
X131407049Y-58366015D01*
X131624778Y-58400500D01*
X131624779Y-58400500D01*
X131845221Y-58400500D01*
X131845222Y-58400500D01*
X132062951Y-58366015D01*
X132272606Y-58297895D01*
X132469022Y-58197815D01*
X132647365Y-58068242D01*
X132697536Y-58018070D01*
X132758857Y-57984586D01*
X132828548Y-57989570D01*
X132884482Y-58031441D01*
X132901398Y-58062419D01*
X132931202Y-58142328D01*
X132931206Y-58142335D01*
X133017452Y-58257544D01*
X133017455Y-58257547D01*
X133132664Y-58343793D01*
X133132671Y-58343797D01*
X133267517Y-58394091D01*
X133267516Y-58394091D01*
X133274444Y-58394835D01*
X133327127Y-58400500D01*
X135222872Y-58400499D01*
X135282483Y-58394091D01*
X135417331Y-58343796D01*
X135532546Y-58257546D01*
X135618796Y-58142331D01*
X135669091Y-58007483D01*
X135675500Y-57947873D01*
X135675499Y-56052128D01*
X135669091Y-55992517D01*
X135648601Y-55937581D01*
X135618797Y-55857671D01*
X135618793Y-55857664D01*
X135532547Y-55742455D01*
X135532544Y-55742452D01*
X135417335Y-55656206D01*
X135417328Y-55656202D01*
X135282482Y-55605908D01*
X135282483Y-55605908D01*
X135222883Y-55599501D01*
X135222881Y-55599500D01*
X135222873Y-55599500D01*
X135222864Y-55599500D01*
X133327129Y-55599500D01*
X133327123Y-55599501D01*
X133267516Y-55605908D01*
X133132671Y-55656202D01*
X133132664Y-55656206D01*
X133017455Y-55742452D01*
X133017452Y-55742455D01*
X132931206Y-55857664D01*
X132931203Y-55857669D01*
X132901398Y-55937581D01*
X132859526Y-55993514D01*
X132794062Y-56017931D01*
X132725789Y-56003079D01*
X132697535Y-55981928D01*
X132647363Y-55931756D01*
X132647358Y-55931752D01*
X132469025Y-55802187D01*
X132469024Y-55802186D01*
X132469022Y-55802185D01*
X132406096Y-55770122D01*
X132272606Y-55702104D01*
X132272603Y-55702103D01*
X132062952Y-55633985D01*
X131954086Y-55616742D01*
X131845222Y-55599500D01*
X131624778Y-55599500D01*
X131552201Y-55610995D01*
X131407047Y-55633985D01*
X131197396Y-55702103D01*
X131197393Y-55702104D01*
X131000974Y-55802187D01*
X130822641Y-55931752D01*
X130822636Y-55931756D01*
X130666756Y-56087636D01*
X130666752Y-56087641D01*
X130537187Y-56265974D01*
X130437104Y-56462393D01*
X130437103Y-56462396D01*
X130368985Y-56672047D01*
X130343741Y-56831433D01*
X130334500Y-56889778D01*
X122665500Y-56889778D01*
X122631015Y-56672049D01*
X122562895Y-56462394D01*
X122562895Y-56462393D01*
X122528237Y-56394375D01*
X122462815Y-56265978D01*
X122404501Y-56185715D01*
X122333247Y-56087641D01*
X122333243Y-56087636D01*
X122177363Y-55931756D01*
X122177358Y-55931752D01*
X121999025Y-55802187D01*
X121999024Y-55802186D01*
X121999022Y-55802185D01*
X121936096Y-55770122D01*
X121802606Y-55702104D01*
X121802603Y-55702103D01*
X121592952Y-55633985D01*
X121484086Y-55616742D01*
X121375222Y-55599500D01*
X121154778Y-55599500D01*
X121082201Y-55610995D01*
X120937047Y-55633985D01*
X120727396Y-55702103D01*
X120727393Y-55702104D01*
X120530974Y-55802187D01*
X120352641Y-55931752D01*
X120352636Y-55931756D01*
X120302463Y-55981929D01*
X120241140Y-56015413D01*
X120171448Y-56010428D01*
X120115515Y-55968557D01*
X120098601Y-55937580D01*
X120068797Y-55857671D01*
X120068793Y-55857664D01*
X119982547Y-55742455D01*
X119982544Y-55742452D01*
X119867335Y-55656206D01*
X119867328Y-55656202D01*
X119732482Y-55605908D01*
X119732483Y-55605908D01*
X119672883Y-55599501D01*
X119672881Y-55599500D01*
X119672873Y-55599500D01*
X119672864Y-55599500D01*
X117777129Y-55599500D01*
X117777123Y-55599501D01*
X117717516Y-55605908D01*
X117582671Y-55656202D01*
X117582664Y-55656206D01*
X117467455Y-55742452D01*
X117467452Y-55742455D01*
X117381206Y-55857664D01*
X117381202Y-55857671D01*
X117330908Y-55992517D01*
X117324501Y-56052116D01*
X117324501Y-56052123D01*
X117324500Y-56052135D01*
X106839489Y-56052135D01*
X106519528Y-55598857D01*
X106512024Y-55586819D01*
X106261772Y-55128912D01*
X105142161Y-53080261D01*
X105134366Y-53062974D01*
X104677726Y-51800500D01*
X104170312Y-50397648D01*
X114889500Y-50397648D01*
X114889500Y-50602351D01*
X114921522Y-50804534D01*
X114984781Y-50999223D01*
X115048691Y-51124653D01*
X115076915Y-51180044D01*
X115077715Y-51181613D01*
X115198028Y-51347213D01*
X115342786Y-51491971D01*
X115497749Y-51604556D01*
X115508390Y-51612287D01*
X115624607Y-51671503D01*
X115690776Y-51705218D01*
X115690778Y-51705218D01*
X115690781Y-51705220D01*
X115795137Y-51739127D01*
X115885465Y-51768477D01*
X115986557Y-51784488D01*
X116087648Y-51800500D01*
X116087649Y-51800500D01*
X116292351Y-51800500D01*
X116292352Y-51800500D01*
X116494534Y-51768477D01*
X116689219Y-51705220D01*
X116871610Y-51612287D01*
X116964590Y-51544732D01*
X117037213Y-51491971D01*
X117037215Y-51491968D01*
X117037219Y-51491966D01*
X117181966Y-51347219D01*
X117181968Y-51347215D01*
X117181971Y-51347213D01*
X117234732Y-51274590D01*
X117302287Y-51181610D01*
X117395220Y-50999219D01*
X117458477Y-50804534D01*
X117490500Y-50602352D01*
X117490500Y-50397648D01*
X117467114Y-50250000D01*
X122533391Y-50250000D01*
X123494314Y-50250000D01*
X123489920Y-50254394D01*
X123437259Y-50345606D01*
X123410000Y-50447339D01*
X123410000Y-50552661D01*
X123437259Y-50654394D01*
X123489920Y-50745606D01*
X123494314Y-50750000D01*
X122533391Y-50750000D01*
X122542009Y-50804413D01*
X122605244Y-50999029D01*
X122698140Y-51181349D01*
X122818417Y-51346894D01*
X122818417Y-51346895D01*
X122963104Y-51491582D01*
X123128650Y-51611859D01*
X123310968Y-51704754D01*
X123505578Y-51767988D01*
X123560000Y-51776607D01*
X123560000Y-50815686D01*
X123564394Y-50820080D01*
X123655606Y-50872741D01*
X123757339Y-50900000D01*
X123862661Y-50900000D01*
X123964394Y-50872741D01*
X124055606Y-50820080D01*
X124060000Y-50815686D01*
X124060000Y-51776606D01*
X124114421Y-51767988D01*
X124309031Y-51704754D01*
X124491349Y-51611859D01*
X124656894Y-51491582D01*
X124656895Y-51491582D01*
X124801582Y-51346895D01*
X124801582Y-51346894D01*
X124921859Y-51181349D01*
X125014755Y-50999029D01*
X125077990Y-50804413D01*
X125086609Y-50750000D01*
X124125686Y-50750000D01*
X124130080Y-50745606D01*
X124182741Y-50654394D01*
X124210000Y-50552661D01*
X124210000Y-50447339D01*
X124196685Y-50397648D01*
X127889500Y-50397648D01*
X127889500Y-50602351D01*
X127921522Y-50804534D01*
X127984781Y-50999223D01*
X128048691Y-51124653D01*
X128076915Y-51180044D01*
X128077715Y-51181613D01*
X128198028Y-51347213D01*
X128342786Y-51491971D01*
X128497749Y-51604556D01*
X128508390Y-51612287D01*
X128624607Y-51671503D01*
X128690776Y-51705218D01*
X128690778Y-51705218D01*
X128690781Y-51705220D01*
X128795137Y-51739127D01*
X128885465Y-51768477D01*
X128986557Y-51784488D01*
X129087648Y-51800500D01*
X129087649Y-51800500D01*
X129292351Y-51800500D01*
X129292352Y-51800500D01*
X129494534Y-51768477D01*
X129689219Y-51705220D01*
X129871610Y-51612287D01*
X129964590Y-51544732D01*
X130037213Y-51491971D01*
X130037215Y-51491968D01*
X130037219Y-51491966D01*
X130181966Y-51347219D01*
X130181968Y-51347215D01*
X130181971Y-51347213D01*
X130234732Y-51274590D01*
X130302287Y-51181610D01*
X130395220Y-50999219D01*
X130458477Y-50804534D01*
X130490500Y-50602352D01*
X130490500Y-50397648D01*
X135509500Y-50397648D01*
X135509500Y-50602351D01*
X135541522Y-50804534D01*
X135604781Y-50999223D01*
X135668691Y-51124653D01*
X135696915Y-51180044D01*
X135697715Y-51181613D01*
X135818028Y-51347213D01*
X135962786Y-51491971D01*
X136117749Y-51604556D01*
X136128390Y-51612287D01*
X136244607Y-51671503D01*
X136310776Y-51705218D01*
X136310778Y-51705218D01*
X136310781Y-51705220D01*
X136415137Y-51739127D01*
X136505465Y-51768477D01*
X136606557Y-51784488D01*
X136707648Y-51800500D01*
X136707649Y-51800500D01*
X136912351Y-51800500D01*
X136912352Y-51800500D01*
X137114534Y-51768477D01*
X137309219Y-51705220D01*
X137491610Y-51612287D01*
X137584590Y-51544732D01*
X137657213Y-51491971D01*
X137657215Y-51491968D01*
X137657219Y-51491966D01*
X137801966Y-51347219D01*
X137801968Y-51347215D01*
X137801971Y-51347213D01*
X137854732Y-51274590D01*
X137922287Y-51181610D01*
X138015220Y-50999219D01*
X138078477Y-50804534D01*
X138110500Y-50602352D01*
X138110500Y-50397648D01*
X138095971Y-50305916D01*
X138078477Y-50195465D01*
X138047458Y-50100000D01*
X138015220Y-50000781D01*
X138015218Y-50000778D01*
X138015218Y-50000776D01*
X137922419Y-49818650D01*
X137922287Y-49818390D01*
X137910075Y-49801582D01*
X137801971Y-49652786D01*
X137657213Y-49508028D01*
X137491613Y-49387715D01*
X137491612Y-49387714D01*
X137491610Y-49387713D01*
X137434653Y-49358691D01*
X137309223Y-49294781D01*
X137114534Y-49231522D01*
X136939995Y-49203878D01*
X136912352Y-49199500D01*
X136707648Y-49199500D01*
X136683329Y-49203351D01*
X136505465Y-49231522D01*
X136310776Y-49294781D01*
X136128386Y-49387715D01*
X135962786Y-49508028D01*
X135818028Y-49652786D01*
X135697715Y-49818386D01*
X135604781Y-50000776D01*
X135541522Y-50195465D01*
X135509500Y-50397648D01*
X130490500Y-50397648D01*
X130475971Y-50305916D01*
X130458477Y-50195465D01*
X130427458Y-50100000D01*
X130395220Y-50000781D01*
X130395218Y-50000778D01*
X130395218Y-50000776D01*
X130302419Y-49818650D01*
X130302287Y-49818390D01*
X130290075Y-49801582D01*
X130181971Y-49652786D01*
X130037213Y-49508028D01*
X129871613Y-49387715D01*
X129871612Y-49387714D01*
X129871610Y-49387713D01*
X129814653Y-49358691D01*
X129689223Y-49294781D01*
X129494534Y-49231522D01*
X129319995Y-49203878D01*
X129292352Y-49199500D01*
X129087648Y-49199500D01*
X129063329Y-49203351D01*
X128885465Y-49231522D01*
X128690776Y-49294781D01*
X128508386Y-49387715D01*
X128342786Y-49508028D01*
X128198028Y-49652786D01*
X128077715Y-49818386D01*
X127984781Y-50000776D01*
X127921522Y-50195465D01*
X127889500Y-50397648D01*
X124196685Y-50397648D01*
X124182741Y-50345606D01*
X124130080Y-50254394D01*
X124125686Y-50250000D01*
X125086609Y-50250000D01*
X125077990Y-50195586D01*
X125014755Y-50000970D01*
X124921859Y-49818650D01*
X124801582Y-49653105D01*
X124801582Y-49653104D01*
X124656895Y-49508417D01*
X124491349Y-49388140D01*
X124309029Y-49295244D01*
X124114413Y-49232009D01*
X124060000Y-49223390D01*
X124060000Y-50184314D01*
X124055606Y-50179920D01*
X123964394Y-50127259D01*
X123862661Y-50100000D01*
X123757339Y-50100000D01*
X123655606Y-50127259D01*
X123564394Y-50179920D01*
X123560000Y-50184314D01*
X123560000Y-49223390D01*
X123505586Y-49232009D01*
X123310970Y-49295244D01*
X123128650Y-49388140D01*
X122963105Y-49508417D01*
X122963104Y-49508417D01*
X122818417Y-49653104D01*
X122818417Y-49653105D01*
X122698140Y-49818650D01*
X122605244Y-50000970D01*
X122542009Y-50195586D01*
X122533391Y-50250000D01*
X117467114Y-50250000D01*
X117458477Y-50195466D01*
X117395220Y-50000781D01*
X117395218Y-50000778D01*
X117395218Y-50000776D01*
X117302419Y-49818650D01*
X117302287Y-49818390D01*
X117290075Y-49801582D01*
X117181971Y-49652786D01*
X117037213Y-49508028D01*
X116871613Y-49387715D01*
X116871612Y-49387714D01*
X116871610Y-49387713D01*
X116814653Y-49358691D01*
X116689223Y-49294781D01*
X116494534Y-49231522D01*
X116319995Y-49203878D01*
X116292352Y-49199500D01*
X116087648Y-49199500D01*
X116063329Y-49203351D01*
X115885465Y-49231522D01*
X115690776Y-49294781D01*
X115508386Y-49387715D01*
X115342786Y-49508028D01*
X115198028Y-49652786D01*
X115077715Y-49818386D01*
X114984781Y-50000776D01*
X114921522Y-50195465D01*
X114889500Y-50397648D01*
X104170312Y-50397648D01*
X104141510Y-50318019D01*
X104137819Y-50305916D01*
X103824593Y-49053011D01*
X103769670Y-48833321D01*
X103701340Y-48560000D01*
X143723391Y-48560000D01*
X144684314Y-48560000D01*
X144679920Y-48564394D01*
X144627259Y-48655606D01*
X144600000Y-48757339D01*
X144600000Y-48862661D01*
X144627259Y-48964394D01*
X144679920Y-49055606D01*
X144684314Y-49060000D01*
X143723391Y-49060000D01*
X143732009Y-49114413D01*
X143795244Y-49309029D01*
X143888140Y-49491349D01*
X144008417Y-49656894D01*
X144008417Y-49656895D01*
X144153104Y-49801582D01*
X144318650Y-49921859D01*
X144500968Y-50014754D01*
X144695578Y-50077988D01*
X144750000Y-50086607D01*
X144750000Y-49125686D01*
X144754394Y-49130080D01*
X144845606Y-49182741D01*
X144947339Y-49210000D01*
X145052661Y-49210000D01*
X145154394Y-49182741D01*
X145245606Y-49130080D01*
X145250000Y-49125686D01*
X145250000Y-50086606D01*
X145304421Y-50077988D01*
X145499031Y-50014754D01*
X145681349Y-49921859D01*
X145846894Y-49801582D01*
X145846895Y-49801582D01*
X145991582Y-49656895D01*
X145991582Y-49656894D01*
X146111859Y-49491349D01*
X146204755Y-49309029D01*
X146267990Y-49114413D01*
X146276609Y-49060000D01*
X145315686Y-49060000D01*
X145320080Y-49055606D01*
X145372741Y-48964394D01*
X145400000Y-48862661D01*
X145400000Y-48757339D01*
X145372741Y-48655606D01*
X145320080Y-48564394D01*
X145315686Y-48560000D01*
X146276609Y-48560000D01*
X146267990Y-48505586D01*
X146204755Y-48310970D01*
X146111859Y-48128650D01*
X145991582Y-47963105D01*
X145991582Y-47963104D01*
X145846895Y-47818417D01*
X145681349Y-47698140D01*
X145499029Y-47605244D01*
X145304413Y-47542009D01*
X145250000Y-47533390D01*
X145250000Y-48494314D01*
X145245606Y-48489920D01*
X145154394Y-48437259D01*
X145052661Y-48410000D01*
X144947339Y-48410000D01*
X144845606Y-48437259D01*
X144754394Y-48489920D01*
X144750000Y-48494314D01*
X144750000Y-47533390D01*
X144695586Y-47542009D01*
X144500970Y-47605244D01*
X144318650Y-47698140D01*
X144153105Y-47818417D01*
X144153104Y-47818417D01*
X144008417Y-47963104D01*
X144008417Y-47963105D01*
X143888140Y-48128650D01*
X143795244Y-48310970D01*
X143732009Y-48505586D01*
X143723391Y-48560000D01*
X103701340Y-48560000D01*
X103466365Y-47620104D01*
X103463316Y-47602726D01*
X103309050Y-46102135D01*
X124109500Y-46102135D01*
X124109500Y-47897870D01*
X124109501Y-47897876D01*
X124115908Y-47957483D01*
X124166202Y-48092328D01*
X124166206Y-48092335D01*
X124252452Y-48207544D01*
X124252455Y-48207547D01*
X124367664Y-48293793D01*
X124367671Y-48293797D01*
X124502517Y-48344091D01*
X124502516Y-48344091D01*
X124509444Y-48344835D01*
X124562127Y-48350500D01*
X126357872Y-48350499D01*
X126417483Y-48344091D01*
X126552331Y-48293796D01*
X126667546Y-48207546D01*
X126753796Y-48092331D01*
X126803002Y-47960401D01*
X126844872Y-47904468D01*
X126910337Y-47880050D01*
X126978610Y-47894901D01*
X127006865Y-47916053D01*
X127120535Y-48029723D01*
X127120540Y-48029727D01*
X127292442Y-48154620D01*
X127481782Y-48251095D01*
X127683871Y-48316757D01*
X127750000Y-48327231D01*
X127750000Y-47433012D01*
X127807007Y-47465925D01*
X127934174Y-47500000D01*
X128065826Y-47500000D01*
X128192993Y-47465925D01*
X128250000Y-47433012D01*
X128250000Y-48327230D01*
X128316126Y-48316757D01*
X128316129Y-48316757D01*
X128518217Y-48251095D01*
X128707557Y-48154620D01*
X128879459Y-48029727D01*
X128879464Y-48029723D01*
X129029723Y-47879464D01*
X129029727Y-47879459D01*
X129154620Y-47707557D01*
X129251095Y-47518217D01*
X129316757Y-47316129D01*
X129316757Y-47316126D01*
X129327231Y-47250000D01*
X128433012Y-47250000D01*
X128465925Y-47192993D01*
X128500000Y-47065826D01*
X128500000Y-46934174D01*
X128465925Y-46807007D01*
X128433012Y-46750000D01*
X129327231Y-46750000D01*
X129316757Y-46683873D01*
X129316757Y-46683870D01*
X129251095Y-46481782D01*
X129154620Y-46292442D01*
X129029727Y-46120540D01*
X129029723Y-46120535D01*
X128879464Y-45970276D01*
X128879459Y-45970272D01*
X128707557Y-45845379D01*
X128518215Y-45748903D01*
X128316124Y-45683241D01*
X128250000Y-45672768D01*
X128250000Y-46566988D01*
X128192993Y-46534075D01*
X128065826Y-46500000D01*
X127934174Y-46500000D01*
X127807007Y-46534075D01*
X127750000Y-46566988D01*
X127750000Y-45672768D01*
X127749999Y-45672768D01*
X127683875Y-45683241D01*
X127481784Y-45748903D01*
X127292442Y-45845379D01*
X127120541Y-45970271D01*
X127006865Y-46083947D01*
X126945542Y-46117431D01*
X126875850Y-46112447D01*
X126819917Y-46070575D01*
X126803002Y-46039598D01*
X126753797Y-45907671D01*
X126753793Y-45907664D01*
X126667547Y-45792455D01*
X126667544Y-45792452D01*
X126552335Y-45706206D01*
X126552328Y-45706202D01*
X126417482Y-45655908D01*
X126417483Y-45655908D01*
X126357883Y-45649501D01*
X126357881Y-45649500D01*
X126357873Y-45649500D01*
X126357864Y-45649500D01*
X124562129Y-45649500D01*
X124562123Y-45649501D01*
X124502516Y-45655908D01*
X124367671Y-45706202D01*
X124367664Y-45706206D01*
X124252455Y-45792452D01*
X124252452Y-45792455D01*
X124166206Y-45907664D01*
X124166202Y-45907671D01*
X124115908Y-46042517D01*
X124109501Y-46102116D01*
X124109500Y-46102135D01*
X103309050Y-46102135D01*
X103250303Y-45530680D01*
X103249697Y-45521288D01*
X103201123Y-43685239D01*
X103201386Y-43673272D01*
X103357599Y-41457008D01*
X103358608Y-41447716D01*
X103699467Y-39129869D01*
X103702683Y-39114689D01*
X104493722Y-36272811D01*
X104497674Y-36260961D01*
X104594519Y-36012944D01*
X105295285Y-34218297D01*
X105300139Y-34207440D01*
X106106793Y-32613568D01*
X106110922Y-32606067D01*
X106768736Y-31503261D01*
X106773399Y-31496030D01*
X106928673Y-31272588D01*
X107556133Y-30369657D01*
X107566948Y-30356201D01*
X108348729Y-29511373D01*
X108408709Y-29475538D01*
X108478541Y-29477819D01*
X108524908Y-29505467D01*
X110048498Y-30945258D01*
X110055261Y-30952170D01*
X115184829Y-36621177D01*
X115262938Y-36707500D01*
X115265239Y-36710116D01*
X120178199Y-42458477D01*
X120180442Y-42461101D01*
X120187587Y-42470304D01*
X120201799Y-42490500D01*
X120525658Y-42950720D01*
X120535195Y-42970986D01*
X120563424Y-43004390D01*
X120566584Y-43008880D01*
X120566586Y-43008882D01*
X120588606Y-43040173D01*
X120588607Y-43040174D01*
X120588608Y-43040175D01*
X120597530Y-43047626D01*
X120612749Y-43062756D01*
X120620258Y-43071641D01*
X120642859Y-43087348D01*
X120651683Y-43093481D01*
X120651682Y-43093481D01*
X120656190Y-43096614D01*
X120689759Y-43124648D01*
X120710078Y-43134065D01*
X120718923Y-43140212D01*
X120718926Y-43140214D01*
X120728473Y-43146849D01*
X120764456Y-43159802D01*
X120774600Y-43163969D01*
X120802578Y-43176935D01*
X120809326Y-43180063D01*
X120831396Y-43183901D01*
X120852468Y-43191487D01*
X120896056Y-43195146D01*
X120939162Y-43202643D01*
X120961473Y-43200638D01*
X120983790Y-43202512D01*
X121026837Y-43194765D01*
X121070417Y-43190850D01*
X121091452Y-43183137D01*
X121113491Y-43179172D01*
X121153063Y-43160549D01*
X121194148Y-43145487D01*
X121203660Y-43138792D01*
X121222211Y-43128008D01*
X121820480Y-42846471D01*
X121833726Y-42841148D01*
X122875978Y-42490656D01*
X122897696Y-42485475D01*
X123487864Y-42399944D01*
X123509378Y-42400653D01*
X123552848Y-42390526D01*
X123596997Y-42384128D01*
X123606653Y-42379979D01*
X123627471Y-42373142D01*
X123637725Y-42370754D01*
X123677085Y-42349725D01*
X123718083Y-42332115D01*
X123734982Y-42318794D01*
X123753961Y-42308655D01*
X123786536Y-42278157D01*
X123821580Y-42250535D01*
X123834454Y-42233296D01*
X123850165Y-42218588D01*
X123873739Y-42180694D01*
X123900437Y-42144947D01*
X123908411Y-42124962D01*
X123919778Y-42106692D01*
X123931212Y-42069025D01*
X123934689Y-42059109D01*
X123943424Y-42037219D01*
X123949279Y-42022548D01*
X123951809Y-42001178D01*
X123958060Y-41980589D01*
X123959529Y-41935984D01*
X123964776Y-41891678D01*
X123963267Y-41881266D01*
X123962052Y-41859397D01*
X123962399Y-41848877D01*
X123952274Y-41805416D01*
X123945875Y-41761257D01*
X123937381Y-41741484D01*
X123932500Y-41720529D01*
X123913955Y-41685816D01*
X123909394Y-41676329D01*
X123893862Y-41640172D01*
X123893862Y-41640171D01*
X123887340Y-41631897D01*
X123875357Y-41613570D01*
X123498381Y-40907948D01*
X123121673Y-40202828D01*
X122814770Y-39624778D01*
X125099500Y-39624778D01*
X125099500Y-39845221D01*
X125133985Y-40062952D01*
X125202103Y-40272603D01*
X125202104Y-40272606D01*
X125302187Y-40469025D01*
X125431752Y-40647358D01*
X125431756Y-40647363D01*
X125481928Y-40697535D01*
X125515413Y-40758858D01*
X125510429Y-40828550D01*
X125468557Y-40884483D01*
X125437581Y-40901398D01*
X125357669Y-40931203D01*
X125357664Y-40931206D01*
X125242455Y-41017452D01*
X125242452Y-41017455D01*
X125156206Y-41132664D01*
X125156202Y-41132671D01*
X125105908Y-41267517D01*
X125102703Y-41297335D01*
X125099501Y-41327123D01*
X125099500Y-41327135D01*
X125099500Y-43222870D01*
X125099501Y-43222876D01*
X125105908Y-43282483D01*
X125156202Y-43417328D01*
X125156206Y-43417335D01*
X125242452Y-43532544D01*
X125242455Y-43532547D01*
X125357664Y-43618793D01*
X125357671Y-43618797D01*
X125492517Y-43669091D01*
X125492516Y-43669091D01*
X125499444Y-43669835D01*
X125552127Y-43675500D01*
X127447872Y-43675499D01*
X127507483Y-43669091D01*
X127642331Y-43618796D01*
X127757546Y-43532546D01*
X127843796Y-43417331D01*
X127894091Y-43282483D01*
X127900500Y-43222873D01*
X127900499Y-41327128D01*
X127894091Y-41267517D01*
X127881402Y-41233497D01*
X127843797Y-41132671D01*
X127843793Y-41132664D01*
X127757547Y-41017456D01*
X127757548Y-41017456D01*
X127757546Y-41017454D01*
X127753375Y-41014331D01*
X127753374Y-41014330D01*
X127642335Y-40931206D01*
X127642328Y-40931202D01*
X127615385Y-40921153D01*
X129199500Y-40921153D01*
X129199500Y-41078846D01*
X129230261Y-41233489D01*
X129230264Y-41233501D01*
X129290602Y-41379172D01*
X129290609Y-41379185D01*
X129378210Y-41510288D01*
X129378213Y-41510292D01*
X129489707Y-41621786D01*
X129489711Y-41621789D01*
X129620814Y-41709390D01*
X129620827Y-41709397D01*
X129765185Y-41769191D01*
X129805414Y-41796071D01*
X130263181Y-42253838D01*
X130296666Y-42315161D01*
X130299500Y-42341519D01*
X130299500Y-43574684D01*
X130290061Y-43622136D01*
X130230264Y-43766498D01*
X130230261Y-43766510D01*
X130199500Y-43921153D01*
X130199500Y-44078846D01*
X130230261Y-44233489D01*
X130230264Y-44233501D01*
X130290602Y-44379172D01*
X130290609Y-44379185D01*
X130378210Y-44510288D01*
X130378213Y-44510292D01*
X130489707Y-44621786D01*
X130489711Y-44621789D01*
X130620814Y-44709390D01*
X130620827Y-44709397D01*
X130766498Y-44769735D01*
X130766503Y-44769737D01*
X130921153Y-44800499D01*
X130921156Y-44800500D01*
X130921158Y-44800500D01*
X131078844Y-44800500D01*
X131078845Y-44800499D01*
X131233497Y-44769737D01*
X131379179Y-44709394D01*
X131510289Y-44621789D01*
X131621789Y-44510289D01*
X131709394Y-44379179D01*
X131769737Y-44233497D01*
X131800500Y-44078842D01*
X131800500Y-43921158D01*
X131800500Y-43921155D01*
X131800499Y-43921153D01*
X131769738Y-43766510D01*
X131769737Y-43766503D01*
X131709939Y-43622136D01*
X131700500Y-43574684D01*
X131700500Y-41931007D01*
X131700287Y-41929938D01*
X131700290Y-41929937D01*
X131700281Y-41929911D01*
X131673580Y-41795672D01*
X131664131Y-41772859D01*
X131620777Y-41668192D01*
X131544112Y-41553454D01*
X131544111Y-41553453D01*
X130796071Y-40805414D01*
X130769191Y-40765185D01*
X130709397Y-40620827D01*
X130709390Y-40620814D01*
X130621789Y-40489711D01*
X130621786Y-40489707D01*
X130510292Y-40378213D01*
X130510288Y-40378210D01*
X130379185Y-40290609D01*
X130379172Y-40290602D01*
X130233501Y-40230264D01*
X130233489Y-40230261D01*
X130078845Y-40199500D01*
X130078842Y-40199500D01*
X129921158Y-40199500D01*
X129921155Y-40199500D01*
X129766510Y-40230261D01*
X129766498Y-40230264D01*
X129620827Y-40290602D01*
X129620814Y-40290609D01*
X129489711Y-40378210D01*
X129489707Y-40378213D01*
X129378213Y-40489707D01*
X129378210Y-40489711D01*
X129290609Y-40620814D01*
X129290602Y-40620827D01*
X129230264Y-40766498D01*
X129230261Y-40766510D01*
X129199500Y-40921153D01*
X127615385Y-40921153D01*
X127562419Y-40901398D01*
X127506485Y-40859527D01*
X127482068Y-40794062D01*
X127496920Y-40725789D01*
X127518069Y-40697537D01*
X127568242Y-40647365D01*
X127697815Y-40469022D01*
X127797895Y-40272606D01*
X127866015Y-40062951D01*
X127900500Y-39845222D01*
X127900500Y-39624778D01*
X127866015Y-39407049D01*
X127797895Y-39197394D01*
X127797895Y-39197393D01*
X127755747Y-39114674D01*
X127697815Y-39000978D01*
X127681260Y-38978192D01*
X127568247Y-38822641D01*
X127568243Y-38822636D01*
X127412363Y-38666756D01*
X127412358Y-38666752D01*
X127234025Y-38537187D01*
X127234024Y-38537186D01*
X127234022Y-38537185D01*
X127171096Y-38505122D01*
X127037606Y-38437104D01*
X127037603Y-38437103D01*
X126827952Y-38368985D01*
X126719086Y-38351742D01*
X126610222Y-38334500D01*
X126389778Y-38334500D01*
X126317201Y-38345995D01*
X126172047Y-38368985D01*
X125962396Y-38437103D01*
X125962393Y-38437104D01*
X125765974Y-38537187D01*
X125587641Y-38666752D01*
X125587636Y-38666756D01*
X125431756Y-38822636D01*
X125431752Y-38822641D01*
X125302187Y-39000974D01*
X125202104Y-39197393D01*
X125202103Y-39197396D01*
X125133985Y-39407047D01*
X125099500Y-39624778D01*
X122814770Y-39624778D01*
X122103214Y-38284565D01*
X122099120Y-38276089D01*
X121687315Y-37333517D01*
X121679028Y-37306506D01*
X121519713Y-36447973D01*
X121517790Y-36431561D01*
X121482416Y-35724079D01*
X121498728Y-35656142D01*
X121549181Y-35607808D01*
X121615278Y-35594217D01*
X121912505Y-35615890D01*
X121920833Y-35616781D01*
X123920515Y-35899662D01*
X123932058Y-35901859D01*
X125637345Y-36311129D01*
X125859103Y-36364351D01*
X125876217Y-36369796D01*
X126772150Y-36728168D01*
X126776821Y-36730149D01*
X128781051Y-37629608D01*
X128794140Y-37636447D01*
X130713671Y-38790106D01*
X130724594Y-38797488D01*
X132576322Y-40198034D01*
X132651870Y-40255174D01*
X132658142Y-40260246D01*
X133605510Y-41078846D01*
X133649906Y-41117207D01*
X133658583Y-41125471D01*
X134632537Y-42147167D01*
X134649512Y-42171155D01*
X134677814Y-42194664D01*
X134682791Y-42199885D01*
X134682792Y-42199886D01*
X134703195Y-42221289D01*
X134720558Y-42231876D01*
X134735232Y-42242359D01*
X134745076Y-42250535D01*
X134750885Y-42255360D01*
X134784306Y-42270742D01*
X134815715Y-42289892D01*
X134843905Y-42298173D01*
X134870599Y-42310459D01*
X134899766Y-42315451D01*
X134913770Y-42318696D01*
X134942153Y-42327034D01*
X134942152Y-42327034D01*
X134942156Y-42327035D01*
X134962492Y-42327521D01*
X134971531Y-42327737D01*
X135000493Y-42332696D01*
X135037124Y-42329307D01*
X135073903Y-42330187D01*
X135102460Y-42323262D01*
X135131717Y-42320556D01*
X135166219Y-42307802D01*
X135173225Y-42306104D01*
X135173229Y-42306103D01*
X135188967Y-42302287D01*
X135201976Y-42299133D01*
X135227768Y-42285053D01*
X135255327Y-42274867D01*
X135285356Y-42253616D01*
X135317648Y-42235989D01*
X135321991Y-42231848D01*
X135332366Y-42221958D01*
X135332370Y-42221954D01*
X135338917Y-42215712D01*
X135362901Y-42198742D01*
X135386409Y-42170440D01*
X135413035Y-42145059D01*
X135423626Y-42127686D01*
X135434105Y-42113020D01*
X136285824Y-41087648D01*
X143699500Y-41087648D01*
X143699500Y-41292351D01*
X143731522Y-41494534D01*
X143794781Y-41689223D01*
X143853985Y-41805416D01*
X143887089Y-41870386D01*
X143887715Y-41871613D01*
X144008028Y-42037213D01*
X144152786Y-42181971D01*
X144290130Y-42281755D01*
X144318390Y-42302287D01*
X144431256Y-42359795D01*
X144500776Y-42395218D01*
X144500778Y-42395218D01*
X144500781Y-42395220D01*
X144593669Y-42425401D01*
X144695465Y-42458477D01*
X144790114Y-42473468D01*
X144897648Y-42490500D01*
X144897649Y-42490500D01*
X145102351Y-42490500D01*
X145102352Y-42490500D01*
X145304534Y-42458477D01*
X145499219Y-42395220D01*
X145681610Y-42302287D01*
X145796813Y-42218588D01*
X145847213Y-42181971D01*
X145847215Y-42181968D01*
X145847219Y-42181966D01*
X145991966Y-42037219D01*
X145991968Y-42037215D01*
X145991971Y-42037213D01*
X146069906Y-41929943D01*
X146112287Y-41871610D01*
X146205220Y-41689219D01*
X146268477Y-41494534D01*
X146300500Y-41292352D01*
X146300500Y-41087648D01*
X146298641Y-41075909D01*
X146268477Y-40885465D01*
X146229826Y-40766510D01*
X146205220Y-40690781D01*
X146205218Y-40690778D01*
X146205218Y-40690776D01*
X146166781Y-40615341D01*
X146112287Y-40508390D01*
X146064696Y-40442886D01*
X145991971Y-40342786D01*
X145847213Y-40198028D01*
X145681613Y-40077715D01*
X145681612Y-40077714D01*
X145681610Y-40077713D01*
X145624653Y-40048691D01*
X145499223Y-39984781D01*
X145304534Y-39921522D01*
X145129995Y-39893878D01*
X145102352Y-39889500D01*
X144897648Y-39889500D01*
X144873329Y-39893351D01*
X144695465Y-39921522D01*
X144500776Y-39984781D01*
X144318386Y-40077715D01*
X144152786Y-40198028D01*
X144008028Y-40342786D01*
X143887715Y-40508386D01*
X143794781Y-40690776D01*
X143731522Y-40885465D01*
X143699500Y-41087648D01*
X136285824Y-41087648D01*
X136387713Y-40964985D01*
X136388664Y-40963983D01*
X136415821Y-40931206D01*
X136434994Y-40908065D01*
X136435126Y-40907976D01*
X136435092Y-40907948D01*
X136453767Y-40885466D01*
X136477106Y-40857369D01*
X136477106Y-40857367D01*
X136481772Y-40851751D01*
X136482579Y-40850635D01*
X138456419Y-38468414D01*
X138460036Y-38464245D01*
X140411014Y-36315198D01*
X140414843Y-36311169D01*
X142357453Y-34358648D01*
X142360399Y-34355785D01*
X143345502Y-33429788D01*
X143348392Y-33427158D01*
X144307464Y-32582035D01*
X144314520Y-32578254D01*
X144356814Y-32538549D01*
X144400333Y-32500201D01*
X144405678Y-32494077D01*
X144406132Y-32494473D01*
X144415218Y-32483719D01*
X145327439Y-31627349D01*
X145333598Y-31621941D01*
X147318431Y-29992601D01*
X147322060Y-29989736D01*
X148155123Y-29357337D01*
X148220420Y-29332482D01*
X148288792Y-29346875D01*
G37*
%TD.AperFunction*%
%TD*%
M02*
